{
    "asset" : {
        "generator" : "Khronos glTF Blender I/O v1.0.5",
        "version" : "2.0"
    },
    "extensionsUsed" : [
        "KHR_texture_transform"
    ],
    "extensionsRequired" : [
        "KHR_texture_transform"
    ],
    "scene" : 0,
    "scenes" : [
        {
            "extras" : {
                "glTF2ExportSettings" : {
                    "export_animations" : 0,
                    "export_colors" : 0,
                    "export_extras" : 1,
                    "export_format" : "GLTF_SEPARATE",
                    "export_image_format" : "NAME",
                    "export_morph" : 0,
                    "export_selected" : 1,
                    "export_skins" : 0,
                    "export_tangents" : 1
                }
            },
            "name" : "Scene",
            "nodes" : [
                0,
                1
            ]
        }
    ],
    "nodes" : [
        {
            "mesh" : 0,
            "name" : "Building_Left_Low"
        },
        {
            "mesh" : 1,
            "name" : "Grass_Left_1"
        }
    ],
    "materials" : [
        {
            "doubleSided" : true,
            "name" : "MatBrick",
            "pbrMetallicRoughness" : {
                "baseColorTexture" : {
                    "index" : 0,
                    "texCoord" : 0
                },
                "metallicFactor" : 0,
                "roughnessFactor" : 1
            }
        },
        {
            "doubleSided" : true,
            "name" : "Metal",
            "pbrMetallicRoughness" : {
                "baseColorTexture" : {
                    "extensions" : {
                        "KHR_texture_transform" : {
                            "offset" : [
                                0,
                                -2.0303029098896115
                            ],
                            "scale" : [
                                1,
                                3.0303029098896115
                            ]
                        }
                    },
                    "index" : 1,
                    "texCoord" : 0
                },
                "metallicFactor" : 0,
                "roughnessFactor" : 1
            }
        },
        {
            "doubleSided" : true,
            "name" : "Window",
            "pbrMetallicRoughness" : {
                "baseColorTexture" : {
                    "index" : 2,
                    "texCoord" : 0
                },
                "metallicFactor" : 0,
                "roughnessFactor" : 0
            }
        },
        {
            "doubleSided" : true,
            "name" : "MetalGreen",
            "pbrMetallicRoughness" : {
                "baseColorTexture" : {
                    "index" : 3,
                    "texCoord" : 0
                },
                "metallicFactor" : 0,
                "roughnessFactor" : 0.3153846263885498
            }
        },
        {
            "doubleSided" : true,
            "name" : "Material.008",
            "pbrMetallicRoughness" : {
                "baseColorTexture" : {
                    "extensions" : {
                        "KHR_texture_transform" : {
                            "offset" : [
                                0,
                                -8.99999985098839
                            ],
                            "scale" : [
                                9.99999985098839,
                                9.99999985098839
                            ]
                        }
                    },
                    "index" : 4,
                    "texCoord" : 0
                },
                "metallicFactor" : 0,
                "roughnessFactor" : 1
            }
        }
    ],
    "meshes" : [
        {
            "name" : "Cube.001",
            "primitives" : [
                {
                    "attributes" : {
                        "POSITION" : 0,
                        "NORMAL" : 1,
                        "TEXCOORD_0" : 2
                    },
                    "indices" : 3,
                    "material" : 0
                },
                {
                    "attributes" : {
                        "POSITION" : 4,
                        "NORMAL" : 5,
                        "TEXCOORD_0" : 6
                    },
                    "indices" : 7,
                    "material" : 1
                },
                {
                    "attributes" : {
                        "POSITION" : 8,
                        "NORMAL" : 9,
                        "TEXCOORD_0" : 10
                    },
                    "indices" : 11,
                    "material" : 2
                },
                {
                    "attributes" : {
                        "POSITION" : 12,
                        "NORMAL" : 13,
                        "TEXCOORD_0" : 14
                    },
                    "indices" : 15,
                    "material" : 3
                }
            ]
        },
        {
            "name" : "Cube.002",
            "primitives" : [
                {
                    "attributes" : {
                        "POSITION" : 16,
                        "NORMAL" : 17,
                        "TANGENT" : 18,
                        "TEXCOORD_0" : 19
                    },
                    "indices" : 20,
                    "material" : 4
                }
            ]
        }
    ],
    "textures" : [
        {
            "source" : 0
        },
        {
            "source" : 1
        },
        {
            "source" : 2
        },
        {
            "source" : 3
        },
        {
            "source" : 4
        }
    ],
    "images" : [
        {
            "mimeType" : "image/png",
            "name" : "37_texture colored bricks rustic-seamless_style2",
            "uri" : "37_texture colored bricks rustic-seamless_style2.png"
        },
        {
            "mimeType" : "image/png",
            "name" : "257_metal facade cladding texture-seamless",
            "uri" : "257_metal facade cladding texture-seamless.png"
        },
        {
            "mimeType" : "image/jpeg",
            "name" : "20_glass building window texture",
            "uri" : "20_glass building window texture.jpg"
        },
        {
            "mimeType" : "image/png",
            "name" : "186_metal facade cladding texture-seamless",
            "uri" : "186_metal facade cladding texture-seamless.png"
        },
        {
            "mimeType" : "image/png",
            "name" : "153_artificial green grass texture-seamless_style1",
            "uri" : "153_artificial green grass texture-seamless_style1.png"
        }
    ],
    "accessors" : [
        {
            "bufferView" : 0,
            "componentType" : 5126,
            "count" : 271,
            "max" : [
                -13.35999870300293,
                34.55205154418945,
                3
            ],
            "min" : [
                -94.63999938964844,
                -5.960464477539063e-08,
                -47.999996185302734
            ],
            "type" : "VEC3"
        },
        {
            "bufferView" : 1,
            "componentType" : 5126,
            "count" : 271,
            "type" : "VEC3"
        },
        {
            "bufferView" : 2,
            "componentType" : 5126,
            "count" : 271,
            "type" : "VEC2"
        },
        {
            "bufferView" : 3,
            "componentType" : 5123,
            "count" : 816,
            "type" : "SCALAR"
        },
        {
            "bufferView" : 4,
            "componentType" : 5126,
            "count" : 20,
            "max" : [
                -13.360000610351562,
                34.55205154418945,
                3
            ],
            "min" : [
                -94.63999938964844,
                9.799999237060547,
                -47.999996185302734
            ],
            "type" : "VEC3"
        },
        {
            "bufferView" : 5,
            "componentType" : 5126,
            "count" : 20,
            "type" : "VEC3"
        },
        {
            "bufferView" : 6,
            "componentType" : 5126,
            "count" : 20,
            "type" : "VEC2"
        },
        {
            "bufferView" : 7,
            "componentType" : 5123,
            "count" : 30,
            "type" : "SCALAR"
        },
        {
            "bufferView" : 8,
            "componentType" : 5126,
            "count" : 28,
            "max" : [
                -13.35999870300293,
                30.82677459716797,
                3
            ],
            "min" : [
                -94.63999938964844,
                1.9599997997283936,
                -39.07499694824219
            ],
            "type" : "VEC3"
        },
        {
            "bufferView" : 9,
            "componentType" : 5126,
            "count" : 28,
            "type" : "VEC3"
        },
        {
            "bufferView" : 10,
            "componentType" : 5126,
            "count" : 28,
            "type" : "VEC2"
        },
        {
            "bufferView" : 11,
            "componentType" : 5123,
            "count" : 48,
            "type" : "SCALAR"
        },
        {
            "bufferView" : 12,
            "componentType" : 5126,
            "count" : 14,
            "max" : [
                -13.35999870300293,
                13.999998092651367,
                3
            ],
            "min" : [
                -94.63999938964844,
                9.799999237060547,
                -39.07499694824219
            ],
            "type" : "VEC3"
        },
        {
            "bufferView" : 13,
            "componentType" : 5126,
            "count" : 14,
            "type" : "VEC3"
        },
        {
            "bufferView" : 14,
            "componentType" : 5126,
            "count" : 14,
            "type" : "VEC2"
        },
        {
            "bufferView" : 15,
            "componentType" : 5123,
            "count" : 24,
            "type" : "SCALAR"
        },
        {
            "bufferView" : 16,
            "componentType" : 5126,
            "count" : 24,
            "max" : [
                -10,
                0.10000000149011612,
                5.999999046325684
            ],
            "min" : [
                -100,
                0,
                -50.000003814697266
            ],
            "type" : "VEC3"
        },
        {
            "bufferView" : 17,
            "componentType" : 5126,
            "count" : 24,
            "type" : "VEC3"
        },
        {
            "bufferView" : 18,
            "componentType" : 5126,
            "count" : 24,
            "type" : "VEC4"
        },
        {
            "bufferView" : 19,
            "componentType" : 5126,
            "count" : 24,
            "type" : "VEC2"
        },
        {
            "bufferView" : 20,
            "componentType" : 5123,
            "count" : 36,
            "type" : "SCALAR"
        }
    ],
    "bufferViews" : [
        {
            "buffer" : 0,
            "byteLength" : 3252,
            "byteOffset" : 0
        },
        {
            "buffer" : 0,
            "byteLength" : 3252,
            "byteOffset" : 3252
        },
        {
            "buffer" : 0,
            "byteLength" : 2168,
            "byteOffset" : 6504
        },
        {
            "buffer" : 0,
            "byteLength" : 1632,
            "byteOffset" : 8672
        },
        {
            "buffer" : 0,
            "byteLength" : 240,
            "byteOffset" : 10304
        },
        {
            "buffer" : 0,
            "byteLength" : 240,
            "byteOffset" : 10544
        },
        {
            "buffer" : 0,
            "byteLength" : 160,
            "byteOffset" : 10784
        },
        {
            "buffer" : 0,
            "byteLength" : 60,
            "byteOffset" : 10944
        },
        {
            "buffer" : 0,
            "byteLength" : 336,
            "byteOffset" : 11004
        },
        {
            "buffer" : 0,
            "byteLength" : 336,
            "byteOffset" : 11340
        },
        {
            "buffer" : 0,
            "byteLength" : 224,
            "byteOffset" : 11676
        },
        {
            "buffer" : 0,
            "byteLength" : 96,
            "byteOffset" : 11900
        },
        {
            "buffer" : 0,
            "byteLength" : 168,
            "byteOffset" : 11996
        },
        {
            "buffer" : 0,
            "byteLength" : 168,
            "byteOffset" : 12164
        },
        {
            "buffer" : 0,
            "byteLength" : 112,
            "byteOffset" : 12332
        },
        {
            "buffer" : 0,
            "byteLength" : 48,
            "byteOffset" : 12444
        },
        {
            "buffer" : 0,
            "byteLength" : 288,
            "byteOffset" : 12492
        },
        {
            "buffer" : 0,
            "byteLength" : 288,
            "byteOffset" : 12780
        },
        {
            "buffer" : 0,
            "byteLength" : 384,
            "byteOffset" : 13068
        },
        {
            "buffer" : 0,
            "byteLength" : 192,
            "byteOffset" : 13452
        },
        {
            "buffer" : 0,
            "byteLength" : 72,
            "byteOffset" : 13644
        }
    ],
    "buffers" : [
        {
            "byteLength" : 13716,
            "uri" : "buildingAndGrass.bin"
        }
    ]
}
