{
    "asset" : {
        "generator" : "Khronos glTF Blender I/O v1.0.5",
        "version" : "2.0"
    },
    "scene" : 0,
    "scenes" : [
        {
            "extras" : {
                "glTF2ExportSettings" : {
                    "export_animations" : 0,
                    "export_colors" : 0,
                    "export_extras" : 1,
                    "export_format" : "GLTF_SEPARATE",
                    "export_image_format" : "NAME",
                    "export_morph" : 0,
                    "export_selected" : 1,
                    "export_skins" : 0,
                    "export_tangents" : 1
                }
            },
            "name" : "Scene",
            "nodes" : [
                0,
                1,
                2
            ]
        }
    ],
    "nodes" : [
        {
            "extras" : {
                "MaxHandle" : 18
            },
            "mesh" : 0,
            "name" : "Bush.006"
        },
        {
            "extras" : {
                "MaxHandle" : 18
            },
            "mesh" : 1,
            "name" : "Bush.005_PCA",
            "rotation" : [
                0,
                -0.3826834559440613,
                0,
                0.9238795042037964
            ],
            "translation" : [
                0,
                0,
                9.5
            ]
        },
        {
            "extras" : {
                "MaxHandle" : 18
            },
            "mesh" : 2,
            "name" : "Bush.004"
        }
    ],
    "materials" : [
        {
            "doubleSided" : true,
            "name" : "Material #2.004",
            "pbrMetallicRoughness" : {
                "baseColorFactor" : [
                    0.010035651735961437,
                    0.2159527987241745,
                    0,
                    1
                ],
                "metallicFactor" : 0,
                "roughnessFactor" : 1
            }
        },
        {
            "doubleSided" : true,
            "name" : "Material #2.005",
            "pbrMetallicRoughness" : {
                "baseColorFactor" : [
                    0.010035651735961437,
                    0.2159527987241745,
                    0,
                    1
                ],
                "metallicFactor" : 0,
                "roughnessFactor" : 1
            }
        },
        {
            "doubleSided" : true,
            "name" : "Material #2.006",
            "pbrMetallicRoughness" : {
                "baseColorFactor" : [
                    0.010035651735961437,
                    0.2159527987241745,
                    0,
                    1
                ],
                "metallicFactor" : 0,
                "roughnessFactor" : 1
            }
        }
    ],
    "meshes" : [
        {
            "name" : "Untitled.025",
            "primitives" : [
                {
                    "attributes" : {
                        "POSITION" : 0,
                        "NORMAL" : 1,
                        "TANGENT" : 2,
                        "TEXCOORD_0" : 3
                    },
                    "indices" : 4,
                    "material" : 0
                }
            ]
        },
        {
            "name" : "Untitled.024",
            "primitives" : [
                {
                    "attributes" : {
                        "POSITION" : 5,
                        "NORMAL" : 6,
                        "TANGENT" : 7,
                        "TEXCOORD_0" : 8
                    },
                    "indices" : 9,
                    "material" : 1
                }
            ]
        },
        {
            "name" : "Untitled.023",
            "primitives" : [
                {
                    "attributes" : {
                        "POSITION" : 10,
                        "NORMAL" : 11,
                        "TEXCOORD_0" : 12
                    },
                    "indices" : 13,
                    "material" : 2
                }
            ]
        }
    ],
    "accessors" : [
        {
            "bufferView" : 0,
            "componentType" : 5126,
            "count" : 684,
            "max" : [
                -7.319679260253906,
                2.6580021381378174,
                2.4413211345672607
            ],
            "min" : [
                -12.906692504882812,
                -0.002904009073972702,
                -6.1248040199279785
            ],
            "type" : "VEC3"
        },
        {
            "bufferView" : 1,
            "componentType" : 5126,
            "count" : 684,
            "type" : "VEC3"
        },
        {
            "bufferView" : 2,
            "componentType" : 5126,
            "count" : 684,
            "type" : "VEC4"
        },
        {
            "bufferView" : 3,
            "componentType" : 5126,
            "count" : 684,
            "type" : "VEC2"
        },
        {
            "bufferView" : 4,
            "componentType" : 5123,
            "count" : 684,
            "type" : "SCALAR"
        },
        {
            "bufferView" : 5,
            "componentType" : 5126,
            "count" : 594,
            "max" : [
                -9.534109115600586,
                2.703664541244507,
                8.415499687194824
            ],
            "min" : [
                -12.703351974487305,
                0.04226219654083252,
                0.7475342750549316
            ],
            "type" : "VEC3"
        },
        {
            "bufferView" : 6,
            "componentType" : 5126,
            "count" : 594,
            "type" : "VEC3"
        },
        {
            "bufferView" : 7,
            "componentType" : 5126,
            "count" : 594,
            "type" : "VEC4"
        },
        {
            "bufferView" : 8,
            "componentType" : 5126,
            "count" : 594,
            "type" : "VEC2"
        },
        {
            "bufferView" : 9,
            "componentType" : 5123,
            "count" : 594,
            "type" : "SCALAR"
        },
        {
            "bufferView" : 10,
            "componentType" : 5126,
            "count" : 3168,
            "max" : [
                -13.854442596435547,
                2.808906078338623,
                9.433404922485352
            ],
            "min" : [
                -50.4134407043457,
                -0.8308006525039673,
                3.7038416862487793
            ],
            "type" : "VEC3"
        },
        {
            "bufferView" : 11,
            "componentType" : 5126,
            "count" : 3168,
            "type" : "VEC3"
        },
        {
            "bufferView" : 12,
            "componentType" : 5126,
            "count" : 3168,
            "type" : "VEC2"
        },
        {
            "bufferView" : 13,
            "componentType" : 5123,
            "count" : 4104,
            "type" : "SCALAR"
        }
    ],
    "bufferViews" : [
        {
            "buffer" : 0,
            "byteLength" : 8208,
            "byteOffset" : 0
        },
        {
            "buffer" : 0,
            "byteLength" : 8208,
            "byteOffset" : 8208
        },
        {
            "buffer" : 0,
            "byteLength" : 10944,
            "byteOffset" : 16416
        },
        {
            "buffer" : 0,
            "byteLength" : 5472,
            "byteOffset" : 27360
        },
        {
            "buffer" : 0,
            "byteLength" : 1368,
            "byteOffset" : 32832
        },
        {
            "buffer" : 0,
            "byteLength" : 7128,
            "byteOffset" : 34200
        },
        {
            "buffer" : 0,
            "byteLength" : 7128,
            "byteOffset" : 41328
        },
        {
            "buffer" : 0,
            "byteLength" : 9504,
            "byteOffset" : 48456
        },
        {
            "buffer" : 0,
            "byteLength" : 4752,
            "byteOffset" : 57960
        },
        {
            "buffer" : 0,
            "byteLength" : 1188,
            "byteOffset" : 62712
        },
        {
            "buffer" : 0,
            "byteLength" : 38016,
            "byteOffset" : 63900
        },
        {
            "buffer" : 0,
            "byteLength" : 38016,
            "byteOffset" : 101916
        },
        {
            "buffer" : 0,
            "byteLength" : 25344,
            "byteOffset" : 139932
        },
        {
            "buffer" : 0,
            "byteLength" : 8208,
            "byteOffset" : 165276
        }
    ],
    "buffers" : [
        {
            "byteLength" : 173484,
            "uri" : "bushesLeft.bin"
        }
    ]
}
