{
    "asset" : {
        "generator" : "Khronos glTF Blender I/O v1.0.5",
        "version" : "2.0"
    },
    "scene" : 0,
    "scenes" : [
        {
            "extras" : {
                "glTF2ExportSettings" : {
                    "export_animations" : 0,
                    "export_colors" : 0,
                    "export_extras" : 1,
                    "export_format" : "GLTF_SEPARATE",
                    "export_image_format" : "NAME",
                    "export_morph" : 0,
                    "export_selected" : 1,
                    "export_skins" : 0,
                    "export_tangents" : 1
                }
            },
            "name" : "Scene",
            "nodes" : [
                0,
                1,
                2
            ]
        }
    ],
    "nodes" : [
        {
            "extras" : {
                "MaxHandle" : 18
            },
            "mesh" : 0,
            "name" : "Bush.000"
        },
        {
            "extras" : {
                "MaxHandle" : 18
            },
            "mesh" : 1,
            "name" : "Bush.002_PCA",
            "rotation" : [
                0,
                -0.3826834559440613,
                0,
                0.9238795042037964
            ],
            "translation" : [
                12,
                1,
                5
            ]
        },
        {
            "extras" : {
                "MaxHandle" : 18
            },
            "mesh" : 2,
            "name" : "Bush.001"
        }
    ],
    "materials" : [
        {
            "doubleSided" : true,
            "name" : "Material #1.008",
            "pbrMetallicRoughness" : {
                "baseColorFactor" : [
                    0.010035651735961437,
                    0.2159527987241745,
                    0,
                    1
                ],
                "metallicFactor" : 0,
                "roughnessFactor" : 1
            }
        },
        {
            "doubleSided" : true,
            "name" : "Material #2.009",
            "pbrMetallicRoughness" : {
                "baseColorFactor" : [
                    0.010035651735961437,
                    0.2159527987241745,
                    0,
                    1
                ],
                "metallicFactor" : 0,
                "roughnessFactor" : 1
            }
        },
        {
            "doubleSided" : true,
            "name" : "Material #2.010",
            "pbrMetallicRoughness" : {
                "baseColorFactor" : [
                    0.010035651735961437,
                    0.2159527987241745,
                    0,
                    1
                ],
                "metallicFactor" : 0,
                "roughnessFactor" : 1
            }
        }
    ],
    "meshes" : [
        {
            "name" : "Untitled.014",
            "primitives" : [
                {
                    "attributes" : {
                        "POSITION" : 0,
                        "NORMAL" : 1,
                        "TANGENT" : 2,
                        "TEXCOORD_0" : 3
                    },
                    "indices" : 4,
                    "material" : 0
                }
            ]
        },
        {
            "name" : "Untitled.012",
            "primitives" : [
                {
                    "attributes" : {
                        "POSITION" : 5,
                        "NORMAL" : 6,
                        "TANGENT" : 7,
                        "TEXCOORD_0" : 8
                    },
                    "indices" : 9,
                    "material" : 1
                }
            ]
        },
        {
            "name" : "Untitled.011",
            "primitives" : [
                {
                    "attributes" : {
                        "POSITION" : 10,
                        "NORMAL" : 11,
                        "TANGENT" : 12,
                        "TEXCOORD_0" : 13
                    },
                    "indices" : 14,
                    "material" : 2
                }
            ]
        }
    ],
    "accessors" : [
        {
            "bufferView" : 0,
            "componentType" : 5126,
            "count" : 3594,
            "max" : [
                51.293724060058594,
                2.137434959411621,
                9.723752975463867
            ],
            "min" : [
                14.738877296447754,
                0.03288276866078377,
                4.151914596557617
            ],
            "type" : "VEC3"
        },
        {
            "bufferView" : 1,
            "componentType" : 5126,
            "count" : 3594,
            "type" : "VEC3"
        },
        {
            "bufferView" : 2,
            "componentType" : 5126,
            "count" : 3594,
            "type" : "VEC4"
        },
        {
            "bufferView" : 3,
            "componentType" : 5126,
            "count" : 3594,
            "type" : "VEC2"
        },
        {
            "bufferView" : 4,
            "componentType" : 5123,
            "count" : 3594,
            "type" : "SCALAR"
        },
        {
            "bufferView" : 5,
            "componentType" : 5126,
            "count" : 480,
            "max" : [
                4.298659324645996,
                1.1832258701324463,
                1.8611445426940918
            ],
            "min" : [
                -4.2632155418396,
                -1.3217042684555054,
                -1.6583752632141113
            ],
            "type" : "VEC3"
        },
        {
            "bufferView" : 6,
            "componentType" : 5126,
            "count" : 480,
            "type" : "VEC3"
        },
        {
            "bufferView" : 7,
            "componentType" : 5126,
            "count" : 480,
            "type" : "VEC4"
        },
        {
            "bufferView" : 8,
            "componentType" : 5126,
            "count" : 480,
            "type" : "VEC2"
        },
        {
            "bufferView" : 9,
            "componentType" : 5123,
            "count" : 480,
            "type" : "SCALAR"
        },
        {
            "bufferView" : 10,
            "componentType" : 5126,
            "count" : 486,
            "max" : [
                13.540081024169922,
                2.8361587524414062,
                3.090595245361328
            ],
            "min" : [
                7.987508773803711,
                -1.1717296838760376,
                -10.298351287841797
            ],
            "type" : "VEC3"
        },
        {
            "bufferView" : 11,
            "componentType" : 5126,
            "count" : 486,
            "type" : "VEC3"
        },
        {
            "bufferView" : 12,
            "componentType" : 5126,
            "count" : 486,
            "type" : "VEC4"
        },
        {
            "bufferView" : 13,
            "componentType" : 5126,
            "count" : 486,
            "type" : "VEC2"
        },
        {
            "bufferView" : 14,
            "componentType" : 5123,
            "count" : 486,
            "type" : "SCALAR"
        }
    ],
    "bufferViews" : [
        {
            "buffer" : 0,
            "byteLength" : 43128,
            "byteOffset" : 0
        },
        {
            "buffer" : 0,
            "byteLength" : 43128,
            "byteOffset" : 43128
        },
        {
            "buffer" : 0,
            "byteLength" : 57504,
            "byteOffset" : 86256
        },
        {
            "buffer" : 0,
            "byteLength" : 28752,
            "byteOffset" : 143760
        },
        {
            "buffer" : 0,
            "byteLength" : 7188,
            "byteOffset" : 172512
        },
        {
            "buffer" : 0,
            "byteLength" : 5760,
            "byteOffset" : 179700
        },
        {
            "buffer" : 0,
            "byteLength" : 5760,
            "byteOffset" : 185460
        },
        {
            "buffer" : 0,
            "byteLength" : 7680,
            "byteOffset" : 191220
        },
        {
            "buffer" : 0,
            "byteLength" : 3840,
            "byteOffset" : 198900
        },
        {
            "buffer" : 0,
            "byteLength" : 960,
            "byteOffset" : 202740
        },
        {
            "buffer" : 0,
            "byteLength" : 5832,
            "byteOffset" : 203700
        },
        {
            "buffer" : 0,
            "byteLength" : 5832,
            "byteOffset" : 209532
        },
        {
            "buffer" : 0,
            "byteLength" : 7776,
            "byteOffset" : 215364
        },
        {
            "buffer" : 0,
            "byteLength" : 3888,
            "byteOffset" : 223140
        },
        {
            "buffer" : 0,
            "byteLength" : 972,
            "byteOffset" : 227028
        }
    ],
    "buffers" : [
        {
            "byteLength" : 228000,
            "uri" : "bushesRight.bin"
        }
    ]
}
