{
    "asset" : {
        "generator" : "Khronos glTF Blender I/O v1.0.5",
        "version" : "2.0"
    },
    "scene" : 0,
    "scenes" : [
        {
            "name" : "Scene",
            "nodes" : [
                0
            ]
        }
    ],
    "nodes" : [
        {
            "mesh" : 0,
            "name" : "gun",
            "rotation" : [
                0.7071068286895752,
                0,
                0,
                0.7071067094802856
            ]
        }
    ],
    "materials" : [
        {
            "doubleSided" : true,
            "name" : "Default OBJ",
            "normalTexture" : {
                "index" : 0,
                "texCoord" : 0
            },
            "pbrMetallicRoughness" : {
                "baseColorTexture" : {
                    "index" : 1,
                    "texCoord" : 0
                },
                "metallicRoughnessTexture" : {
                    "index" : 2,
                    "texCoord" : 0
                }
            }
        }
    ],
    "meshes" : [
        {
            "name" : "gun",
            "primitives" : [
                {
                    "attributes" : {
                        "POSITION" : 0,
                        "NORMAL" : 1,
                        "TANGENT" : 2,
                        "TEXCOORD_0" : 3
                    },
                    "indices" : 4,
                    "material" : 0
                },
                {
                    "attributes" : {
                        "POSITION" : 5,
                        "NORMAL" : 6,
                        "TANGENT" : 7,
                        "TEXCOORD_0" : 8
                    },
                    "indices" : 9,
                    "material" : 0
                },
                {
                    "attributes" : {
                        "POSITION" : 10,
                        "NORMAL" : 11,
                        "TANGENT" : 12,
                        "TEXCOORD_0" : 13
                    },
                    "indices" : 14,
                    "material" : 0
                },
                {
                    "attributes" : {
                        "POSITION" : 15,
                        "NORMAL" : 16,
                        "TANGENT" : 17,
                        "TEXCOORD_0" : 18
                    },
                    "indices" : 19,
                    "material" : 0
                },
                {
                    "attributes" : {
                        "POSITION" : 20,
                        "NORMAL" : 21,
                        "TANGENT" : 22,
                        "TEXCOORD_0" : 23
                    },
                    "indices" : 24,
                    "material" : 0
                }
            ]
        }
    ],
    "textures" : [
        {
            "source" : 0
        },
        {
            "source" : 1
        },
        {
            "source" : 2
        }
    ],
    "images" : [
        {
            "mimeType" : "image/png",
            "name" : "gun_N",
            "uri" : "gun_N.png"
        },
        {
            "mimeType" : "image/png",
            "name" : "gun_BC",
            "uri" : "gun_BC.png"
        },
        {
            "mimeType" : "image/png",
            "name" : "gun_M-gun_R",
            "uri" : "gun_M-gun_R.png"
        }
    ],
    "accessors" : [
        {
            "bufferView" : 0,
            "componentType" : 5126,
            "count" : 65533,
            "max" : [
                0.01571499928832054,
                0.033629000186920166,
                -0.07652600109577179
            ],
            "min" : [
                -0.014437000267207623,
                -0.06787899881601334,
                -0.12427499890327454
            ],
            "type" : "VEC3"
        },
        {
            "bufferView" : 1,
            "componentType" : 5126,
            "count" : 65533,
            "type" : "VEC3"
        },
        {
            "bufferView" : 2,
            "componentType" : 5126,
            "count" : 65533,
            "type" : "VEC4"
        },
        {
            "bufferView" : 3,
            "componentType" : 5126,
            "count" : 65533,
            "type" : "VEC2"
        },
        {
            "bufferView" : 4,
            "componentType" : 5123,
            "count" : 97734,
            "type" : "SCALAR"
        },
        {
            "bufferView" : 5,
            "componentType" : 5126,
            "count" : 65531,
            "max" : [
                0.019717000424861908,
                -0.0030610000248998404,
                -0.07695800065994263
            ],
            "min" : [
                -0.018530000001192093,
                -0.06374199688434601,
                -0.1273459941148758
            ],
            "type" : "VEC3"
        },
        {
            "bufferView" : 6,
            "componentType" : 5126,
            "count" : 65531,
            "type" : "VEC3"
        },
        {
            "bufferView" : 7,
            "componentType" : 5126,
            "count" : 65531,
            "type" : "VEC4"
        },
        {
            "bufferView" : 8,
            "componentType" : 5126,
            "count" : 65531,
            "type" : "VEC2"
        },
        {
            "bufferView" : 9,
            "componentType" : 5123,
            "count" : 98367,
            "type" : "SCALAR"
        },
        {
            "bufferView" : 10,
            "componentType" : 5126,
            "count" : 65533,
            "max" : [
                0.018081000074744225,
                0.10651800036430359,
                -0.0466810017824173
            ],
            "min" : [
                -0.016558000817894936,
                -0.10556700080633163,
                -0.13532499969005585
            ],
            "type" : "VEC3"
        },
        {
            "bufferView" : 11,
            "componentType" : 5126,
            "count" : 65533,
            "type" : "VEC3"
        },
        {
            "bufferView" : 12,
            "componentType" : 5126,
            "count" : 65533,
            "type" : "VEC4"
        },
        {
            "bufferView" : 13,
            "componentType" : 5126,
            "count" : 65533,
            "type" : "VEC2"
        },
        {
            "bufferView" : 14,
            "componentType" : 5123,
            "count" : 98859,
            "type" : "SCALAR"
        },
        {
            "bufferView" : 15,
            "componentType" : 5126,
            "count" : 34177,
            "max" : [
                0.016620999202132225,
                -0.001908999984152615,
                -0.0004250000056345016
            ],
            "min" : [
                -0.015496999956667423,
                -0.15126000344753265,
                -0.12976700067520142
            ],
            "type" : "VEC3"
        },
        {
            "bufferView" : 16,
            "componentType" : 5126,
            "count" : 34177,
            "type" : "VEC3"
        },
        {
            "bufferView" : 17,
            "componentType" : 5126,
            "count" : 34177,
            "type" : "VEC4"
        },
        {
            "bufferView" : 18,
            "componentType" : 5126,
            "count" : 34177,
            "type" : "VEC2"
        },
        {
            "bufferView" : 19,
            "componentType" : 5123,
            "count" : 135027,
            "type" : "SCALAR"
        },
        {
            "bufferView" : 20,
            "componentType" : 5126,
            "count" : 128,
            "max" : [
                0.011370999738574028,
                -0.0030610000248998404,
                -0.08140599727630615
            ],
            "min" : [
                -0.010246999561786652,
                -0.08169399946928024,
                -0.11635799705982208
            ],
            "type" : "VEC3"
        },
        {
            "bufferView" : 21,
            "componentType" : 5126,
            "count" : 128,
            "type" : "VEC3"
        },
        {
            "bufferView" : 22,
            "componentType" : 5126,
            "count" : 128,
            "type" : "VEC4"
        },
        {
            "bufferView" : 23,
            "componentType" : 5126,
            "count" : 128,
            "type" : "VEC2"
        },
        {
            "bufferView" : 24,
            "componentType" : 5123,
            "count" : 249,
            "type" : "SCALAR"
        }
    ],
    "bufferViews" : [
        {
            "buffer" : 0,
            "byteLength" : 786396,
            "byteOffset" : 0
        },
        {
            "buffer" : 0,
            "byteLength" : 786396,
            "byteOffset" : 786396
        },
        {
            "buffer" : 0,
            "byteLength" : 1048528,
            "byteOffset" : 1572792
        },
        {
            "buffer" : 0,
            "byteLength" : 524264,
            "byteOffset" : 2621320
        },
        {
            "buffer" : 0,
            "byteLength" : 195468,
            "byteOffset" : 3145584
        },
        {
            "buffer" : 0,
            "byteLength" : 786372,
            "byteOffset" : 3341052
        },
        {
            "buffer" : 0,
            "byteLength" : 786372,
            "byteOffset" : 4127424
        },
        {
            "buffer" : 0,
            "byteLength" : 1048496,
            "byteOffset" : 4913796
        },
        {
            "buffer" : 0,
            "byteLength" : 524248,
            "byteOffset" : 5962292
        },
        {
            "buffer" : 0,
            "byteLength" : 196734,
            "byteOffset" : 6486540
        },
        {
            "buffer" : 0,
            "byteLength" : 786396,
            "byteOffset" : 6683276
        },
        {
            "buffer" : 0,
            "byteLength" : 786396,
            "byteOffset" : 7469672
        },
        {
            "buffer" : 0,
            "byteLength" : 1048528,
            "byteOffset" : 8256068
        },
        {
            "buffer" : 0,
            "byteLength" : 524264,
            "byteOffset" : 9304596
        },
        {
            "buffer" : 0,
            "byteLength" : 197718,
            "byteOffset" : 9828860
        },
        {
            "buffer" : 0,
            "byteLength" : 410124,
            "byteOffset" : 10026580
        },
        {
            "buffer" : 0,
            "byteLength" : 410124,
            "byteOffset" : 10436704
        },
        {
            "buffer" : 0,
            "byteLength" : 546832,
            "byteOffset" : 10846828
        },
        {
            "buffer" : 0,
            "byteLength" : 273416,
            "byteOffset" : 11393660
        },
        {
            "buffer" : 0,
            "byteLength" : 270054,
            "byteOffset" : 11667076
        },
        {
            "buffer" : 0,
            "byteLength" : 1536,
            "byteOffset" : 11937132
        },
        {
            "buffer" : 0,
            "byteLength" : 1536,
            "byteOffset" : 11938668
        },
        {
            "buffer" : 0,
            "byteLength" : 2048,
            "byteOffset" : 11940204
        },
        {
            "buffer" : 0,
            "byteLength" : 1024,
            "byteOffset" : 11942252
        },
        {
            "buffer" : 0,
            "byteLength" : 498,
            "byteOffset" : 11943276
        }
    ],
    "buffers" : [
        {
            "byteLength" : 11943776,
            "uri" : "gun.bin"
        }
    ]
}
