{
    "asset" : {
        "generator" : "Khronos glTF Blender I/O v0.9.36",
        "version" : "2.0"
    },
    "scene" : 0,
    "scenes" : [
        {
            "extras" : {
                "glTF2ExportSettings" : {
                    "export_animations" : 0,
                    "export_colors" : 0,
                    "export_extras" : 1,
                    "export_format" : "GLTF_SEPARATE",
                    "export_image_format" : "PNG",
                    "export_morph" : 0,
                    "export_selected" : 1,
                    "export_skins" : 0,
                    "export_tangents" : 1
                }
            },
            "name" : "Scene",
            "nodes" : [
                0,
                1
            ]
        }
    ],
    "nodes" : [
        {
            "extras" : {
                "MaxHandle" : 9
            },
            "mesh" : 0,
            "name" : "Bush_Front.000"
        },
        {
            "mesh" : 1,
            "name" : "Island"
        }
    ],
    "materials" : [
        {
            "doubleSided" : true,
            "name" : "Material #1.001",
            "pbrMetallicRoughness" : {
                "baseColorFactor" : [
                    0.01306411623954773,
                    0.8000000715255737,
                    0,
                    1
                ],
                "metallicFactor" : 0,
                "roughnessFactor" : 1
            }
        },
        {
            "doubleSided" : true,
            "name" : "Material #9.001",
            "pbrMetallicRoughness" : {
                "baseColorFactor" : [
                    0.07718509435653687,
                    0.31666165590286255,
                    0,
                    1
                ],
                "metallicFactor" : 0,
                "roughnessFactor" : 0.8999999761581421
            }
        },
        {
            "doubleSided" : true,
            "name" : "Material.007",
            "pbrMetallicRoughness" : {}
        },
        {
            "doubleSided" : true,
            "name" : "Material #2.002",
            "pbrMetallicRoughness" : {
                "baseColorFactor" : [
                    0.2846545875072479,
                    0.02657034620642662,
                    0,
                    1
                ],
                "metallicFactor" : 0,
                "roughnessFactor" : 0.8999999761581421
            }
        },
        {
            "doubleSided" : true,
            "name" : "Material #1.002",
            "pbrMetallicRoughness" : {
                "baseColorFactor" : [
                    0.05873178690671921,
                    0.25052115321159363,
                    0,
                    1
                ],
                "metallicFactor" : 0,
                "roughnessFactor" : 0.8999999761581421
            }
        },
        {
            "doubleSided" : true,
            "name" : "Material.012",
            "pbrMetallicRoughness" : {
                "baseColorTexture" : {
                    "index" : 0,
                    "texCoord" : 0
                },
                "metallicFactor" : 0,
                "roughnessFactor" : 0
            }
        },
        {
            "doubleSided" : true,
            "name" : "Material.009",
            "pbrMetallicRoughness" : {
                "baseColorTexture" : {
                    "index" : 1,
                    "texCoord" : 0
                },
                "metallicFactor" : 0,
                "roughnessFactor" : 0
            }
        },
        {
            "doubleSided" : true,
            "name" : "Material.010",
            "pbrMetallicRoughness" : {
                "baseColorTexture" : {
                    "index" : 2,
                    "texCoord" : 0
                },
                "metallicFactor" : 0,
                "roughnessFactor" : 0
            }
        },
        {
            "doubleSided" : true,
            "name" : "Material.011",
            "pbrMetallicRoughness" : {
                "baseColorTexture" : {
                    "index" : 3,
                    "texCoord" : 0
                },
                "metallicFactor" : 0,
                "roughnessFactor" : 0
            }
        }
    ],
    "meshes" : [
        {
            "name" : "Untitled.036",
            "primitives" : [
                {
                    "attributes" : {
                        "POSITION" : 0,
                        "NORMAL" : 1,
                        "TANGENT" : 2,
                        "TEXCOORD_0" : 3,
                        "TEXCOORD_1" : 4
                    },
                    "indices" : 5,
                    "material" : 0
                },
                {
                    "attributes" : {
                        "POSITION" : 6,
                        "NORMAL" : 7,
                        "TANGENT" : 8,
                        "TEXCOORD_0" : 9,
                        "TEXCOORD_1" : 10
                    },
                    "indices" : 11,
                    "material" : 1
                },
                {
                    "attributes" : {
                        "POSITION" : 12,
                        "NORMAL" : 13,
                        "TANGENT" : 14,
                        "TEXCOORD_0" : 15,
                        "TEXCOORD_1" : 16
                    },
                    "indices" : 17,
                    "material" : 2
                },
                {
                    "attributes" : {
                        "POSITION" : 18,
                        "NORMAL" : 19,
                        "TANGENT" : 20,
                        "TEXCOORD_0" : 21,
                        "TEXCOORD_1" : 22
                    },
                    "indices" : 23,
                    "material" : 3
                },
                {
                    "attributes" : {
                        "POSITION" : 24,
                        "NORMAL" : 25,
                        "TANGENT" : 26,
                        "TEXCOORD_0" : 27,
                        "TEXCOORD_1" : 28
                    },
                    "indices" : 29,
                    "material" : 4
                }
            ]
        },
        {
            "name" : "Wall1.014",
            "primitives" : [
                {
                    "attributes" : {
                        "POSITION" : 30,
                        "NORMAL" : 31,
                        "TANGENT" : 32,
                        "TEXCOORD_0" : 33
                    },
                    "indices" : 34,
                    "material" : 5
                },
                {
                    "attributes" : {
                        "POSITION" : 35,
                        "NORMAL" : 36,
                        "TANGENT" : 37,
                        "TEXCOORD_0" : 38
                    },
                    "indices" : 39,
                    "material" : 6
                },
                {
                    "attributes" : {
                        "POSITION" : 40,
                        "NORMAL" : 41,
                        "TANGENT" : 42,
                        "TEXCOORD_0" : 43
                    },
                    "indices" : 34,
                    "material" : 7
                },
                {
                    "attributes" : {
                        "POSITION" : 44,
                        "NORMAL" : 45,
                        "TANGENT" : 46,
                        "TEXCOORD_0" : 47
                    },
                    "indices" : 34,
                    "material" : 8
                }
            ]
        }
    ],
    "textures" : [
        {
            "source" : 0
        },
        {
            "source" : 0
        },
        {
            "source" : 0
        },
        {
            "source" : 0
        }
    ],
    "images" : [
        {
            "mimeType" : "image/png",
            "name" : "37_texture colored bricks rustic-seamless_style2",
            "uri" : "37_texture colored bricks rustic-seamless_style2.png"
        }
    ],
    "accessors" : [
        {
            "bufferView" : 0,
            "componentType" : 5126,
            "count" : 684,
            "max" : [
                8.595131874084473,
                3.6029281616210938,
                38.47928237915039
            ],
            "min" : [
                -8.2181396484375,
                -2.0024027824401855,
                24.372880935668945
            ],
            "type" : "VEC3"
        },
        {
            "bufferView" : 1,
            "componentType" : 5126,
            "count" : 684,
            "type" : "VEC3"
        },
        {
            "bufferView" : 2,
            "componentType" : 5126,
            "count" : 684,
            "type" : "VEC4"
        },
        {
            "bufferView" : 3,
            "componentType" : 5126,
            "count" : 684,
            "type" : "VEC2"
        },
        {
            "bufferView" : 4,
            "componentType" : 5126,
            "count" : 684,
            "type" : "VEC2"
        },
        {
            "bufferView" : 5,
            "componentType" : 5123,
            "count" : 684,
            "type" : "SCALAR"
        },
        {
            "bufferView" : 6,
            "componentType" : 5126,
            "count" : 206,
            "max" : [
                3.8562400341033936,
                4.407286643981934,
                38.48578643798828
            ],
            "min" : [
                -7.7614521980285645,
                -0.3497154116630554,
                24.516185760498047
            ],
            "type" : "VEC3"
        },
        {
            "bufferView" : 7,
            "componentType" : 5126,
            "count" : 206,
            "type" : "VEC3"
        },
        {
            "bufferView" : 8,
            "componentType" : 5126,
            "count" : 206,
            "type" : "VEC4"
        },
        {
            "bufferView" : 9,
            "componentType" : 5126,
            "count" : 206,
            "type" : "VEC2"
        },
        {
            "bufferView" : 10,
            "componentType" : 5126,
            "count" : 206,
            "type" : "VEC2"
        },
        {
            "bufferView" : 11,
            "componentType" : 5123,
            "count" : 390,
            "type" : "SCALAR"
        },
        {
            "bufferView" : 12,
            "componentType" : 5126,
            "count" : 12,
            "max" : [
                8.40185260772705,
                0.06666912138462067,
                38.485267639160156
            ],
            "min" : [
                -8.401850700378418,
                0.03333364799618721,
                23.514705657958984
            ],
            "type" : "VEC3"
        },
        {
            "bufferView" : 13,
            "componentType" : 5126,
            "count" : 12,
            "type" : "VEC3"
        },
        {
            "bufferView" : 14,
            "componentType" : 5126,
            "count" : 12,
            "type" : "VEC4"
        },
        {
            "bufferView" : 15,
            "componentType" : 5126,
            "count" : 12,
            "type" : "VEC2"
        },
        {
            "bufferView" : 16,
            "componentType" : 5126,
            "count" : 12,
            "type" : "VEC2"
        },
        {
            "bufferView" : 17,
            "componentType" : 5123,
            "count" : 12,
            "type" : "SCALAR"
        },
        {
            "bufferView" : 18,
            "componentType" : 5126,
            "count" : 72,
            "max" : [
                1.1840108633041382,
                5.928383827209473,
                33.306392669677734
            ],
            "min" : [
                -1.650587558746338,
                0.024790164083242416,
                30.897754669189453
            ],
            "type" : "VEC3"
        },
        {
            "bufferView" : 19,
            "componentType" : 5126,
            "count" : 72,
            "type" : "VEC3"
        },
        {
            "bufferView" : 20,
            "componentType" : 5126,
            "count" : 72,
            "type" : "VEC4"
        },
        {
            "bufferView" : 21,
            "componentType" : 5126,
            "count" : 72,
            "type" : "VEC2"
        },
        {
            "bufferView" : 22,
            "componentType" : 5126,
            "count" : 72,
            "type" : "VEC2"
        },
        {
            "bufferView" : 23,
            "componentType" : 5123,
            "count" : 72,
            "type" : "SCALAR"
        },
        {
            "bufferView" : 24,
            "componentType" : 5126,
            "count" : 282,
            "max" : [
                5.945187568664551,
                9.93608570098877,
                36.37586212158203
            ],
            "min" : [
                -4.713622093200684,
                3.537391424179077,
                26.151165008544922
            ],
            "type" : "VEC3"
        },
        {
            "bufferView" : 25,
            "componentType" : 5126,
            "count" : 282,
            "type" : "VEC3"
        },
        {
            "bufferView" : 26,
            "componentType" : 5126,
            "count" : 282,
            "type" : "VEC4"
        },
        {
            "bufferView" : 27,
            "componentType" : 5126,
            "count" : 282,
            "type" : "VEC2"
        },
        {
            "bufferView" : 28,
            "componentType" : 5126,
            "count" : 282,
            "type" : "VEC2"
        },
        {
            "bufferView" : 29,
            "componentType" : 5123,
            "count" : 282,
            "type" : "SCALAR"
        },
        {
            "bufferView" : 30,
            "componentType" : 5126,
            "count" : 24,
            "max" : [
                9,
                1,
                39
            ],
            "min" : [
                8,
                0,
                23
            ],
            "type" : "VEC3"
        },
        {
            "bufferView" : 31,
            "componentType" : 5126,
            "count" : 24,
            "type" : "VEC3"
        },
        {
            "bufferView" : 32,
            "componentType" : 5126,
            "count" : 24,
            "type" : "VEC4"
        },
        {
            "bufferView" : 33,
            "componentType" : 5126,
            "count" : 24,
            "type" : "VEC2"
        },
        {
            "bufferView" : 34,
            "componentType" : 5123,
            "count" : 36,
            "type" : "SCALAR"
        },
        {
            "bufferView" : 35,
            "componentType" : 5126,
            "count" : 24,
            "max" : [
                8.000000953674316,
                1,
                24.000003814697266
            ],
            "min" : [
                -7.999998092651367,
                0,
                23
            ],
            "type" : "VEC3"
        },
        {
            "bufferView" : 36,
            "componentType" : 5126,
            "count" : 24,
            "type" : "VEC3"
        },
        {
            "bufferView" : 37,
            "componentType" : 5126,
            "count" : 24,
            "type" : "VEC4"
        },
        {
            "bufferView" : 38,
            "componentType" : 5126,
            "count" : 24,
            "type" : "VEC2"
        },
        {
            "bufferView" : 39,
            "componentType" : 5123,
            "count" : 36,
            "type" : "SCALAR"
        },
        {
            "bufferView" : 40,
            "componentType" : 5126,
            "count" : 24,
            "max" : [
                8,
                1,
                39
            ],
            "min" : [
                -7.999998092651367,
                0,
                38
            ],
            "type" : "VEC3"
        },
        {
            "bufferView" : 41,
            "componentType" : 5126,
            "count" : 24,
            "type" : "VEC3"
        },
        {
            "bufferView" : 42,
            "componentType" : 5126,
            "count" : 24,
            "type" : "VEC4"
        },
        {
            "bufferView" : 43,
            "componentType" : 5126,
            "count" : 24,
            "type" : "VEC2"
        },
        {
            "bufferView" : 44,
            "componentType" : 5126,
            "count" : 24,
            "max" : [
                -7.999998092651367,
                1,
                39.00000762939453
            ],
            "min" : [
                -8.999998092651367,
                0,
                23.000003814697266
            ],
            "type" : "VEC3"
        },
        {
            "bufferView" : 45,
            "componentType" : 5126,
            "count" : 24,
            "type" : "VEC3"
        },
        {
            "bufferView" : 46,
            "componentType" : 5126,
            "count" : 24,
            "type" : "VEC4"
        },
        {
            "bufferView" : 47,
            "componentType" : 5126,
            "count" : 24,
            "type" : "VEC2"
        }
    ],
    "bufferViews" : [
        {
            "buffer" : 0,
            "byteLength" : 8208,
            "byteOffset" : 0
        },
        {
            "buffer" : 0,
            "byteLength" : 8208,
            "byteOffset" : 8208
        },
        {
            "buffer" : 0,
            "byteLength" : 10944,
            "byteOffset" : 16416
        },
        {
            "buffer" : 0,
            "byteLength" : 5472,
            "byteOffset" : 27360
        },
        {
            "buffer" : 0,
            "byteLength" : 5472,
            "byteOffset" : 32832
        },
        {
            "buffer" : 0,
            "byteLength" : 1368,
            "byteOffset" : 38304
        },
        {
            "buffer" : 0,
            "byteLength" : 2472,
            "byteOffset" : 39672
        },
        {
            "buffer" : 0,
            "byteLength" : 2472,
            "byteOffset" : 42144
        },
        {
            "buffer" : 0,
            "byteLength" : 3296,
            "byteOffset" : 44616
        },
        {
            "buffer" : 0,
            "byteLength" : 1648,
            "byteOffset" : 47912
        },
        {
            "buffer" : 0,
            "byteLength" : 1648,
            "byteOffset" : 49560
        },
        {
            "buffer" : 0,
            "byteLength" : 780,
            "byteOffset" : 51208
        },
        {
            "buffer" : 0,
            "byteLength" : 144,
            "byteOffset" : 51988
        },
        {
            "buffer" : 0,
            "byteLength" : 144,
            "byteOffset" : 52132
        },
        {
            "buffer" : 0,
            "byteLength" : 192,
            "byteOffset" : 52276
        },
        {
            "buffer" : 0,
            "byteLength" : 96,
            "byteOffset" : 52468
        },
        {
            "buffer" : 0,
            "byteLength" : 96,
            "byteOffset" : 52564
        },
        {
            "buffer" : 0,
            "byteLength" : 24,
            "byteOffset" : 52660
        },
        {
            "buffer" : 0,
            "byteLength" : 864,
            "byteOffset" : 52684
        },
        {
            "buffer" : 0,
            "byteLength" : 864,
            "byteOffset" : 53548
        },
        {
            "buffer" : 0,
            "byteLength" : 1152,
            "byteOffset" : 54412
        },
        {
            "buffer" : 0,
            "byteLength" : 576,
            "byteOffset" : 55564
        },
        {
            "buffer" : 0,
            "byteLength" : 576,
            "byteOffset" : 56140
        },
        {
            "buffer" : 0,
            "byteLength" : 144,
            "byteOffset" : 56716
        },
        {
            "buffer" : 0,
            "byteLength" : 3384,
            "byteOffset" : 56860
        },
        {
            "buffer" : 0,
            "byteLength" : 3384,
            "byteOffset" : 60244
        },
        {
            "buffer" : 0,
            "byteLength" : 4512,
            "byteOffset" : 63628
        },
        {
            "buffer" : 0,
            "byteLength" : 2256,
            "byteOffset" : 68140
        },
        {
            "buffer" : 0,
            "byteLength" : 2256,
            "byteOffset" : 70396
        },
        {
            "buffer" : 0,
            "byteLength" : 564,
            "byteOffset" : 72652
        },
        {
            "buffer" : 0,
            "byteLength" : 288,
            "byteOffset" : 73216
        },
        {
            "buffer" : 0,
            "byteLength" : 288,
            "byteOffset" : 73504
        },
        {
            "buffer" : 0,
            "byteLength" : 384,
            "byteOffset" : 73792
        },
        {
            "buffer" : 0,
            "byteLength" : 192,
            "byteOffset" : 74176
        },
        {
            "buffer" : 0,
            "byteLength" : 72,
            "byteOffset" : 74368
        },
        {
            "buffer" : 0,
            "byteLength" : 288,
            "byteOffset" : 74440
        },
        {
            "buffer" : 0,
            "byteLength" : 288,
            "byteOffset" : 74728
        },
        {
            "buffer" : 0,
            "byteLength" : 384,
            "byteOffset" : 75016
        },
        {
            "buffer" : 0,
            "byteLength" : 192,
            "byteOffset" : 75400
        },
        {
            "buffer" : 0,
            "byteLength" : 72,
            "byteOffset" : 75592
        },
        {
            "buffer" : 0,
            "byteLength" : 288,
            "byteOffset" : 75664
        },
        {
            "buffer" : 0,
            "byteLength" : 288,
            "byteOffset" : 75952
        },
        {
            "buffer" : 0,
            "byteLength" : 384,
            "byteOffset" : 76240
        },
        {
            "buffer" : 0,
            "byteLength" : 192,
            "byteOffset" : 76624
        },
        {
            "buffer" : 0,
            "byteLength" : 288,
            "byteOffset" : 76816
        },
        {
            "buffer" : 0,
            "byteLength" : 288,
            "byteOffset" : 77104
        },
        {
            "buffer" : 0,
            "byteLength" : 384,
            "byteOffset" : 77392
        },
        {
            "buffer" : 0,
            "byteLength" : 192,
            "byteOffset" : 77776
        }
    ],
    "buffers" : [
        {
            "byteLength" : 77968,
            "uri" : "island.bin"
        }
    ]
}
