{
    "asset" : {
        "generator" : "Khronos glTF Blender I/O v1.0.5",
        "version" : "2.0"
    },
    "scene" : 0,
    "scenes" : [
        {
            "extras" : {
                "glTF2ExportSettings" : {
                    "export_animations" : 0,
                    "export_colors" : 0,
                    "export_extras" : 1,
                    "export_format" : "GLTF_SEPARATE",
                    "export_image_format" : "PNG",
                    "export_morph" : 0,
                    "export_selected" : 1,
                    "export_skins" : 0,
                    "export_tangents" : 1
                }
            },
            "name" : "Scene",
            "nodes" : [
                0
            ]
        }
    ],
    "nodes" : [
        {
            "extras" : {
                "MaxHandle" : 12
            },
            "mesh" : 0,
            "name" : "TreesLeft",
            "rotation" : [
                0,
                0.6087614297866821,
                0,
                0.7933533191680908
            ],
            "translation" : [
                -60.75770950317383,
                0,
                57.26060485839844
            ]
        }
    ],
    "materials" : [
        {
            "doubleSided" : true,
            "name" : "Material #2.011",
            "pbrMetallicRoughness" : {
                "baseColorFactor" : [
                    0.16100800037384033,
                    0.024055270478129387,
                    0,
                    1
                ],
                "metallicFactor" : 0,
                "roughnessFactor" : 1
            }
        },
        {
            "doubleSided" : true,
            "name" : "Material #9",
            "pbrMetallicRoughness" : {
                "baseColorFactor" : [
                    0.08152410387992859,
                    0.8000000715255737,
                    0,
                    1
                ],
                "metallicFactor" : 0,
                "roughnessFactor" : 0.8999999761581421
            }
        },
        {
            "doubleSided" : true,
            "name" : "Material #2.003",
            "pbrMetallicRoughness" : {
                "baseColorFactor" : [
                    0.3132558763027191,
                    0.04272741451859474,
                    0,
                    1
                ],
                "metallicFactor" : 0,
                "roughnessFactor" : 1
            }
        },
        {
            "doubleSided" : true,
            "name" : "Material #1.003",
            "pbrMetallicRoughness" : {
                "baseColorFactor" : [
                    0.0392327755689621,
                    0.35078656673431396,
                    0,
                    1
                ],
                "metallicFactor" : 0,
                "roughnessFactor" : 0.8999999761581421
            }
        },
        {
            "doubleSided" : true,
            "name" : "Material #2.012",
            "pbrMetallicRoughness" : {
                "baseColorFactor" : [
                    0.39974552392959595,
                    0.05307887867093086,
                    0,
                    1
                ],
                "metallicFactor" : 0,
                "roughnessFactor" : 1
            }
        },
        {
            "doubleSided" : true,
            "name" : "Material #1.011",
            "pbrMetallicRoughness" : {
                "baseColorFactor" : [
                    0.27124205231666565,
                    0.8000000715255737,
                    0,
                    1
                ],
                "metallicFactor" : 0,
                "roughnessFactor" : 0.8999999761581421
            }
        },
        {
            "doubleSided" : true,
            "name" : "Material #2.013",
            "pbrMetallicRoughness" : {
                "baseColorFactor" : [
                    0.4448044002056122,
                    0.16580307483673096,
                    0.025395352393388748,
                    1
                ],
                "metallicFactor" : 0,
                "roughnessFactor" : 1
            }
        },
        {
            "doubleSided" : true,
            "name" : "Material #1.012",
            "pbrMetallicRoughness" : {
                "baseColorFactor" : [
                    0.023044683039188385,
                    0.18805670738220215,
                    0,
                    1
                ],
                "metallicFactor" : 0,
                "roughnessFactor" : 0.8999999761581421
            }
        },
        {
            "doubleSided" : true,
            "name" : "Material #1",
            "pbrMetallicRoughness" : {
                "baseColorFactor" : [
                    0.37058860063552856,
                    0.43281909823417664,
                    0,
                    1
                ],
                "metallicFactor" : 0,
                "roughnessFactor" : 0.8999999761581421
            }
        }
    ],
    "meshes" : [
        {
            "name" : "Untitled.001",
            "primitives" : [
                {
                    "attributes" : {
                        "POSITION" : 0,
                        "NORMAL" : 1,
                        "TANGENT" : 2,
                        "TEXCOORD_0" : 3
                    },
                    "indices" : 4,
                    "material" : 0
                },
                {
                    "attributes" : {
                        "POSITION" : 5,
                        "NORMAL" : 6,
                        "TANGENT" : 7,
                        "TEXCOORD_0" : 8
                    },
                    "indices" : 9,
                    "material" : 1
                },
                {
                    "attributes" : {
                        "POSITION" : 10,
                        "NORMAL" : 11,
                        "TANGENT" : 12,
                        "TEXCOORD_0" : 13
                    },
                    "indices" : 14,
                    "material" : 2
                },
                {
                    "attributes" : {
                        "POSITION" : 15,
                        "NORMAL" : 16,
                        "TANGENT" : 17,
                        "TEXCOORD_0" : 18
                    },
                    "indices" : 19,
                    "material" : 3
                },
                {
                    "attributes" : {
                        "POSITION" : 20,
                        "NORMAL" : 21,
                        "TANGENT" : 22,
                        "TEXCOORD_0" : 23
                    },
                    "indices" : 24,
                    "material" : 4
                },
                {
                    "attributes" : {
                        "POSITION" : 25,
                        "NORMAL" : 26,
                        "TANGENT" : 27,
                        "TEXCOORD_0" : 28
                    },
                    "indices" : 29,
                    "material" : 5
                },
                {
                    "attributes" : {
                        "POSITION" : 30,
                        "NORMAL" : 31,
                        "TANGENT" : 32,
                        "TEXCOORD_0" : 33
                    },
                    "indices" : 34,
                    "material" : 6
                },
                {
                    "attributes" : {
                        "POSITION" : 35,
                        "NORMAL" : 36,
                        "TANGENT" : 37,
                        "TEXCOORD_0" : 38
                    },
                    "indices" : 39,
                    "material" : 7
                },
                {
                    "attributes" : {
                        "POSITION" : 40,
                        "NORMAL" : 41,
                        "TANGENT" : 42,
                        "TEXCOORD_0" : 43
                    },
                    "indices" : 44,
                    "material" : 8
                }
            ]
        }
    ],
    "accessors" : [
        {
            "bufferView" : 0,
            "componentType" : 5126,
            "count" : 54,
            "max" : [
                34.514808654785156,
                15.534164428710938,
                3.108815908432007
            ],
            "min" : [
                31.315567016601562,
                -0.11415082216262817,
                -4.5436177253723145
            ],
            "type" : "VEC3"
        },
        {
            "bufferView" : 1,
            "componentType" : 5126,
            "count" : 54,
            "type" : "VEC3"
        },
        {
            "bufferView" : 2,
            "componentType" : 5126,
            "count" : 54,
            "type" : "VEC4"
        },
        {
            "bufferView" : 3,
            "componentType" : 5126,
            "count" : 54,
            "type" : "VEC2"
        },
        {
            "bufferView" : 4,
            "componentType" : 5123,
            "count" : 54,
            "type" : "SCALAR"
        },
        {
            "bufferView" : 5,
            "componentType" : 5126,
            "count" : 114,
            "max" : [
                39.80414962768555,
                22.280847549438477,
                7.041070461273193
            ],
            "min" : [
                25.156169891357422,
                11.44254207611084,
                -7.983458042144775
            ],
            "type" : "VEC3"
        },
        {
            "bufferView" : 6,
            "componentType" : 5126,
            "count" : 114,
            "type" : "VEC3"
        },
        {
            "bufferView" : 7,
            "componentType" : 5126,
            "count" : 114,
            "type" : "VEC4"
        },
        {
            "bufferView" : 8,
            "componentType" : 5126,
            "count" : 114,
            "type" : "VEC2"
        },
        {
            "bufferView" : 9,
            "componentType" : 5123,
            "count" : 240,
            "type" : "SCALAR"
        },
        {
            "bufferView" : 10,
            "componentType" : 5126,
            "count" : 36,
            "max" : [
                25.696582794189453,
                12.719565391540527,
                -35.77246856689453
            ],
            "min" : [
                22.285463333129883,
                0.06827805191278458,
                -40.20159912109375
            ],
            "type" : "VEC3"
        },
        {
            "bufferView" : 11,
            "componentType" : 5126,
            "count" : 36,
            "type" : "VEC3"
        },
        {
            "bufferView" : 12,
            "componentType" : 5126,
            "count" : 36,
            "type" : "VEC4"
        },
        {
            "bufferView" : 13,
            "componentType" : 5126,
            "count" : 36,
            "type" : "VEC2"
        },
        {
            "bufferView" : 14,
            "componentType" : 5123,
            "count" : 36,
            "type" : "SCALAR"
        },
        {
            "bufferView" : 15,
            "componentType" : 5126,
            "count" : 264,
            "max" : [
                38.7451057434082,
                27.06659698486328,
                -27.30083656311035
            ],
            "min" : [
                10.076177597045898,
                9.636584281921387,
                -54.80152130126953
            ],
            "type" : "VEC3"
        },
        {
            "bufferView" : 16,
            "componentType" : 5126,
            "count" : 264,
            "type" : "VEC3"
        },
        {
            "bufferView" : 17,
            "componentType" : 5126,
            "count" : 264,
            "type" : "VEC4"
        },
        {
            "bufferView" : 18,
            "componentType" : 5126,
            "count" : 264,
            "type" : "VEC2"
        },
        {
            "bufferView" : 19,
            "componentType" : 5123,
            "count" : 264,
            "type" : "SCALAR"
        },
        {
            "bufferView" : 20,
            "componentType" : 5126,
            "count" : 114,
            "max" : [
                35.23845291137695,
                22.042203903198242,
                -15.386279106140137
            ],
            "min" : [
                23.80070686340332,
                -0.17310672998428345,
                -26.139469146728516
            ],
            "type" : "VEC3"
        },
        {
            "bufferView" : 21,
            "componentType" : 5126,
            "count" : 114,
            "type" : "VEC3"
        },
        {
            "bufferView" : 22,
            "componentType" : 5126,
            "count" : 114,
            "type" : "VEC4"
        },
        {
            "bufferView" : 23,
            "componentType" : 5126,
            "count" : 114,
            "type" : "VEC2"
        },
        {
            "bufferView" : 24,
            "componentType" : 5123,
            "count" : 114,
            "type" : "SCALAR"
        },
        {
            "bufferView" : 25,
            "componentType" : 5126,
            "count" : 366,
            "max" : [
                52.5630989074707,
                36.579750061035156,
                -4.187847137451172
            ],
            "min" : [
                13.322637557983398,
                13.022923469543457,
                -42.13605499267578
            ],
            "type" : "VEC3"
        },
        {
            "bufferView" : 26,
            "componentType" : 5126,
            "count" : 366,
            "type" : "VEC3"
        },
        {
            "bufferView" : 27,
            "componentType" : 5126,
            "count" : 366,
            "type" : "VEC4"
        },
        {
            "bufferView" : 28,
            "componentType" : 5126,
            "count" : 366,
            "type" : "VEC2"
        },
        {
            "bufferView" : 29,
            "componentType" : 5123,
            "count" : 366,
            "type" : "SCALAR"
        },
        {
            "bufferView" : 30,
            "componentType" : 5126,
            "count" : 45,
            "max" : [
                23.563690185546875,
                14.365029335021973,
                0.6921528577804565
            ],
            "min" : [
                14.922094345092773,
                -0.1077515259385109,
                -7.6103925704956055
            ],
            "type" : "VEC3"
        },
        {
            "bufferView" : 31,
            "componentType" : 5126,
            "count" : 45,
            "type" : "VEC3"
        },
        {
            "bufferView" : 32,
            "componentType" : 5126,
            "count" : 45,
            "type" : "VEC4"
        },
        {
            "bufferView" : 33,
            "componentType" : 5126,
            "count" : 45,
            "type" : "VEC2"
        },
        {
            "bufferView" : 34,
            "componentType" : 5123,
            "count" : 45,
            "type" : "SCALAR"
        },
        {
            "bufferView" : 35,
            "componentType" : 5126,
            "count" : 63,
            "max" : [
                23.842830657958984,
                18.9771671295166,
                2.7745323181152344
            ],
            "min" : [
                14.922094345092773,
                -0.1077515259385109,
                -7.6103925704956055
            ],
            "type" : "VEC3"
        },
        {
            "bufferView" : 36,
            "componentType" : 5126,
            "count" : 63,
            "type" : "VEC3"
        },
        {
            "bufferView" : 37,
            "componentType" : 5126,
            "count" : 63,
            "type" : "VEC4"
        },
        {
            "bufferView" : 38,
            "componentType" : 5126,
            "count" : 63,
            "type" : "VEC2"
        },
        {
            "bufferView" : 39,
            "componentType" : 5123,
            "count" : 63,
            "type" : "SCALAR"
        },
        {
            "bufferView" : 40,
            "componentType" : 5126,
            "count" : 72,
            "max" : [
                20.609283447265625,
                25.526823043823242,
                -0.39179134368896484
            ],
            "min" : [
                13.681416511535645,
                13.404728889465332,
                -10.398492813110352
            ],
            "type" : "VEC3"
        },
        {
            "bufferView" : 41,
            "componentType" : 5126,
            "count" : 72,
            "type" : "VEC3"
        },
        {
            "bufferView" : 42,
            "componentType" : 5126,
            "count" : 72,
            "type" : "VEC4"
        },
        {
            "bufferView" : 43,
            "componentType" : 5126,
            "count" : 72,
            "type" : "VEC2"
        },
        {
            "bufferView" : 44,
            "componentType" : 5123,
            "count" : 72,
            "type" : "SCALAR"
        }
    ],
    "bufferViews" : [
        {
            "buffer" : 0,
            "byteLength" : 648,
            "byteOffset" : 0
        },
        {
            "buffer" : 0,
            "byteLength" : 648,
            "byteOffset" : 648
        },
        {
            "buffer" : 0,
            "byteLength" : 864,
            "byteOffset" : 1296
        },
        {
            "buffer" : 0,
            "byteLength" : 432,
            "byteOffset" : 2160
        },
        {
            "buffer" : 0,
            "byteLength" : 108,
            "byteOffset" : 2592
        },
        {
            "buffer" : 0,
            "byteLength" : 1368,
            "byteOffset" : 2700
        },
        {
            "buffer" : 0,
            "byteLength" : 1368,
            "byteOffset" : 4068
        },
        {
            "buffer" : 0,
            "byteLength" : 1824,
            "byteOffset" : 5436
        },
        {
            "buffer" : 0,
            "byteLength" : 912,
            "byteOffset" : 7260
        },
        {
            "buffer" : 0,
            "byteLength" : 480,
            "byteOffset" : 8172
        },
        {
            "buffer" : 0,
            "byteLength" : 432,
            "byteOffset" : 8652
        },
        {
            "buffer" : 0,
            "byteLength" : 432,
            "byteOffset" : 9084
        },
        {
            "buffer" : 0,
            "byteLength" : 576,
            "byteOffset" : 9516
        },
        {
            "buffer" : 0,
            "byteLength" : 288,
            "byteOffset" : 10092
        },
        {
            "buffer" : 0,
            "byteLength" : 72,
            "byteOffset" : 10380
        },
        {
            "buffer" : 0,
            "byteLength" : 3168,
            "byteOffset" : 10452
        },
        {
            "buffer" : 0,
            "byteLength" : 3168,
            "byteOffset" : 13620
        },
        {
            "buffer" : 0,
            "byteLength" : 4224,
            "byteOffset" : 16788
        },
        {
            "buffer" : 0,
            "byteLength" : 2112,
            "byteOffset" : 21012
        },
        {
            "buffer" : 0,
            "byteLength" : 528,
            "byteOffset" : 23124
        },
        {
            "buffer" : 0,
            "byteLength" : 1368,
            "byteOffset" : 23652
        },
        {
            "buffer" : 0,
            "byteLength" : 1368,
            "byteOffset" : 25020
        },
        {
            "buffer" : 0,
            "byteLength" : 1824,
            "byteOffset" : 26388
        },
        {
            "buffer" : 0,
            "byteLength" : 912,
            "byteOffset" : 28212
        },
        {
            "buffer" : 0,
            "byteLength" : 228,
            "byteOffset" : 29124
        },
        {
            "buffer" : 0,
            "byteLength" : 4392,
            "byteOffset" : 29352
        },
        {
            "buffer" : 0,
            "byteLength" : 4392,
            "byteOffset" : 33744
        },
        {
            "buffer" : 0,
            "byteLength" : 5856,
            "byteOffset" : 38136
        },
        {
            "buffer" : 0,
            "byteLength" : 2928,
            "byteOffset" : 43992
        },
        {
            "buffer" : 0,
            "byteLength" : 732,
            "byteOffset" : 46920
        },
        {
            "buffer" : 0,
            "byteLength" : 540,
            "byteOffset" : 47652
        },
        {
            "buffer" : 0,
            "byteLength" : 540,
            "byteOffset" : 48192
        },
        {
            "buffer" : 0,
            "byteLength" : 720,
            "byteOffset" : 48732
        },
        {
            "buffer" : 0,
            "byteLength" : 360,
            "byteOffset" : 49452
        },
        {
            "buffer" : 0,
            "byteLength" : 90,
            "byteOffset" : 49812
        },
        {
            "buffer" : 0,
            "byteLength" : 756,
            "byteOffset" : 49904
        },
        {
            "buffer" : 0,
            "byteLength" : 756,
            "byteOffset" : 50660
        },
        {
            "buffer" : 0,
            "byteLength" : 1008,
            "byteOffset" : 51416
        },
        {
            "buffer" : 0,
            "byteLength" : 504,
            "byteOffset" : 52424
        },
        {
            "buffer" : 0,
            "byteLength" : 126,
            "byteOffset" : 52928
        },
        {
            "buffer" : 0,
            "byteLength" : 864,
            "byteOffset" : 53056
        },
        {
            "buffer" : 0,
            "byteLength" : 864,
            "byteOffset" : 53920
        },
        {
            "buffer" : 0,
            "byteLength" : 1152,
            "byteOffset" : 54784
        },
        {
            "buffer" : 0,
            "byteLength" : 576,
            "byteOffset" : 55936
        },
        {
            "buffer" : 0,
            "byteLength" : 144,
            "byteOffset" : 56512
        }
    ],
    "buffers" : [
        {
            "byteLength" : 56656,
            "uri" : "treesLeft.bin"
        }
    ]
}
