mtllib csystemY.mtl
o CoordinateSystem_Y_CoordinateSystem_CoordinateSystemMesh.003
v 0.006710 0.009232 0.001567
v 0.004632 0.001926 0.001639
v 0.008335 0.009142 0.001183
v 0.005849 0.009142 -0.001996
v 0.004970 0.002497 -0.002141
v 0.001539 0.002179 -0.001461
v 0.008163 0.009122 -0.002146
v -0.000015 0.000179 -0.001582
v -0.002902 -0.010195 -0.002130
v -0.005357 -0.009317 -0.002002
v 0.001271 0.001022 0.002331
v -0.002880 -0.010136 0.001396
v -0.008289 0.009297 0.001089
v -0.008142 0.009221 -0.001946
v 0.000570 0.002561 -0.001189
v -0.006122 0.009086 0.001596
v 0.001341 0.002118 0.002182
v -0.005360 -0.009326 0.001382
v 0.005637 0.009022 0.001309
v -0.006086 0.009113 -0.002199
v 0.000764 0.001346 -0.001678
v -0.000067 0.000084 0.001872
vt 0.862194 0.610108
vt 0.796825 0.390999
vt 0.898839 0.612265
vt 0.063461 0.609964
vt 0.092600 0.388729
vt 0.181071 0.395810
vt 0.988409 0.009163
vt 0.898715 0.259574
vt 0.905104 0.008376
vt 0.225794 0.329314
vt 0.309796 0.002598
vt 0.370763 0.025931
vt 0.709000 0.358426
vt 0.585745 0.004503
vt 0.565877 0.621785
vt 0.586619 0.728799
vt 0.534653 0.724586
vt 0.203193 0.983293
vt 0.121249 0.625854
vt 0.204206 0.623001
vt 0.095656 0.651329
vt 0.014157 0.928454
vt 0.002834 0.621510
vt 0.455530 0.724736
vt 0.522620 0.627012
vt 0.520372 0.723837
vt 0.412005 0.882356
vt 0.320970 0.636979
vt 0.408500 0.625021
vt 0.990663 0.271889
vt 0.904123 0.717987
vt 0.834406 0.611231
vt 0.709813 0.396221
vt 0.535005 0.623510
vt 0.103845 0.931893
vt 0.017518 0.990667
vt 0.204736 0.371391
vt 0.399066 0.611726
vt 0.213166 0.400997
vt 0.498340 0.610954
vt 0.672405 0.326405
vt 0.213353 0.968748
vt 0.306158 0.632176
vt 0.300556 0.977532
vt 0.006120 0.611298
vt 0.527739 0.030018
vt 0.596301 0.629751
vt 0.110347 0.992587
vt 0.460977 0.621283
vt 0.313507 0.893972
vt 0.993668 0.716820
vt 0.102213 0.623051
vt 0.099305 0.992568
vt 0.450299 0.614332
vt 0.450299 0.617842
vt 0.213801 0.627792
vn 0.2172 -0.0521 0.9747
vn 0.2232 -0.0538 0.9733
vn 0.2265 -0.0547 0.9725
vn -0.1984 0.0476 -0.9790
vn 0.9000 -0.4338 -0.0439
vn -0.0306 0.0611 -0.9977
vn 0.2421 -0.1701 0.9552
vn 0.0069 0.9996 -0.0269
vn -0.7435 -0.6684 -0.0216
vn -0.7442 -0.6674 -0.0271
vn -0.7432 -0.6688 -0.0193
vn 0.6837 0.7272 -0.0608
vn -0.3369 -0.9415 -0.0028
vn -0.8509 0.5241 -0.0362
vn -0.8506 0.5244 -0.0374
vn -0.8510 0.5239 -0.0360
vn 0.8491 -0.5283 0.0018
vn 0.8496 -0.5275 -0.0019
vn 0.8498 -0.5271 -0.0036
vn -0.0169 0.1354 0.9906
vn -0.1963 0.9803 0.0227
vn 0.0951 0.9954 0.0080
vn 0.5011 0.3900 -0.7725
vn -0.0099 -0.0759 -0.9971
vn -0.2379 -0.1301 0.9625
vn -0.2379 -0.1304 0.9625
vn -0.2382 -0.1306 0.9624
vn -0.8716 0.4903 0.0005
vn -0.8716 0.4902 0.0004
vn 0.2147 -0.0514 0.9753
vn -0.0644 0.0303 -0.9975
vn 0.8899 -0.4560 0.0107
vn -0.1544 0.0949 -0.9834
vn -0.0293 -0.0726 0.9969
vn 0.0527 0.9986 -0.0090
vn -0.7445 -0.6669 -0.0296
vn 0.7006 0.7135 0.0117
vn -0.3105 -0.9504 0.0178
vn -0.8506 0.5245 -0.0374
vn 0.8488 -0.5287 0.0036
vn -0.1206 0.3536 -0.9276
vn -0.2735 0.2673 0.9240
vn -0.4419 0.2030 0.8738
vn -0.1065 -0.0106 -0.9943
vn -0.2136 0.4272 -0.8786
vn 0.3757 0.9260 0.0360
vn 0.0497 0.9985 -0.0226
vn 0.0452 0.1317 0.9903
vn -0.1284 -0.1547 -0.9796
vn -0.2379 -0.1305 0.9625
usemtl Y
s 1
f 1/1/1 2/2/2 3/3/3
f 4/4/4 5/5/4 6/6/4
f 3/7/5 5/8/5 7/9/5
f 8/10/6 9/11/6 10/12/6
f 11/13/7 12/14/7 2/2/7
f 1/15/8 7/16/8 4/17/8
f 8/18/9 13/19/10 14/20/11
f 15/21/12 16/22/12 17/23/12
f 9/24/13 18/25/13 10/26/13
f 6/27/14 19/28/15 4/29/16
f 2/30/17 9/31/18 5/8/19
f 11/13/20 19/32/20 17/33/20
f 1/15/21 4/17/21 19/34/21
f 20/35/22 13/36/22 16/22/22
f 21/37/23 20/38/23 15/39/23
f 8/10/24 20/38/24 21/37/24
f 16/40/25 22/41/26 11/13/27
f 18/42/28 8/43/29 10/44/28
f 1/1/1 11/13/30 2/2/2
f 4/4/31 7/45/31 5/5/31
f 3/7/32 2/30/32 5/8/32
f 8/10/33 5/5/33 9/11/33
f 11/13/34 18/46/34 12/14/34
f 1/15/35 3/47/35 7/16/35
f 8/18/9 22/48/36 13/19/10
f 15/21/37 20/35/37 16/22/37
f 9/24/38 12/49/38 18/25/38
f 6/27/14 17/50/39 19/28/15
f 2/30/17 12/51/40 9/31/18
f 15/39/41 6/6/41 21/37/41
f 11/13/42 1/1/42 19/32/42
f 18/46/43 11/13/43 22/41/43
f 5/5/44 8/10/44 21/37/44
f 5/5/45 21/37/45 6/6/45
f 17/23/46 6/52/46 15/21/46
f 20/35/47 14/53/47 13/36/47
f 11/13/48 17/33/48 16/40/48
f 8/10/49 14/54/49 20/38/49
f 16/40/25 13/55/50 22/41/26
f 18/42/28 22/56/29 8/43/29
