mtllib csystem.mtl
o CoordinateSystem_CoordinateSystemMesh
v 0.001753 0.997711 -0.001831
v 0.002300 0.002855 -0.001997
v -0.001492 -0.001042 -0.002568
v -0.002184 0.997617 -0.001878
v -0.002276 0.002180 0.002221
v -0.002109 0.997729 0.002170
v 0.001833 0.997647 0.002099
v -0.002034 -0.002127 0.996831
v -0.001912 0.001839 0.997109
v 0.997344 -0.001811 -0.001858
v 0.997131 0.002243 -0.001924
v 0.001996 0.001912 0.997125
v -0.001449 0.002629 0.002736
v 0.997385 0.002107 0.002200
v 0.002735 -0.001453 0.002627
v 0.997425 -0.001790 0.002089
v 0.997724 0.001912 -0.001349
v 0.002748 0.002655 0.001386
v -0.001419 -0.001825 0.997432
v 0.001853 0.003386 0.002301
v 0.002114 -0.002034 0.997088
v 0.002517 0.001471 0.002990
v 0.002928 0.002017 0.002323
v 0.001767 0.002428 0.003040
v 0.003002 0.002383 -0.001853
v 0.002256 -0.002272 0.002103
v -0.002011 -0.002126 -0.001795
v 1.007787 -0.002639 -0.000457
v 1.012153 -0.011038 -0.008224
v 1.012212 -0.002639 -0.000454
v 1.007886 0.010985 0.011254
v 1.012278 0.000634 0.002368
v 1.012130 0.011015 0.011214
v 1.012269 0.000646 -0.003375
v 1.007946 -0.011043 -0.012554
v 1.008684 0.000668 -0.003669
v 1.007777 -0.010945 -0.008204
v 1.012213 0.011032 -0.008284
v 1.012218 0.003819 -0.000518
v 1.012120 -0.010994 -0.012488
v 1.007615 0.000764 0.002145
v 1.007842 -0.010906 0.007001
v 1.007870 -0.010918 0.012389
v 1.012114 0.010989 -0.012434
v 1.007643 0.000628 -0.003181
v 1.007797 0.010985 -0.008169
v 1.007869 0.011019 -0.012394
v 1.012202 0.010956 0.006990
v 1.007786 0.011004 0.007111
v 1.007781 0.003819 -0.000529
v 1.012165 -0.010958 0.007105
v 1.012124 -0.010886 0.012415
v 1.008104 0.000525 0.002546
v 0.006710 1.001567 -0.019602
v 0.004632 1.001639 -0.012296
v 0.008335 1.001183 -0.019512
v 0.005849 0.998004 -0.019512
v 0.004970 0.997859 -0.012867
v 0.001539 0.998539 -0.012549
v 0.008163 0.997854 -0.019492
v -0.000015 0.998418 -0.010549
v -0.002902 0.997870 -0.000175
v -0.005357 0.997998 -0.001053
v 0.001271 1.002331 -0.011392
v -0.002880 1.001396 -0.000234
v -0.008289 1.001089 -0.019667
v -0.008142 0.998054 -0.019591
v 0.000570 0.998811 -0.012931
v -0.006122 1.001596 -0.019456
v 0.001341 1.002182 -0.012488
v -0.005360 1.001382 -0.001044
v 0.005637 1.001309 -0.019392
v -0.006086 0.997801 -0.019483
v 0.000764 0.998322 -0.011716
v -0.000067 1.001872 -0.010454
v 0.009496 -0.008550 1.007980
v -0.009533 -0.008577 1.011933
v -0.009793 -0.008340 1.007932
v -0.004891 -0.006254 1.007739
v 0.009507 0.006896 1.012350
v -0.004463 -0.006044 1.011370
v -0.009504 -0.006096 1.012145
v 0.004438 0.006230 1.007734
v -0.009724 -0.006897 1.007524
v 0.009509 -0.006451 1.008052
v 0.004380 0.006190 1.012220
v -0.009380 0.006449 1.007982
v 0.009784 -0.007374 1.007661
v -0.005169 -0.006434 1.012412
v -0.009780 -0.007527 1.012398
v 0.009577 0.008266 1.007666
v 0.009449 0.008540 1.012039
v -0.009464 0.008555 1.008036
v -0.009661 0.008264 1.012287
v 0.009561 -0.006492 1.011970
v 0.009803 -0.007514 1.012318
v 0.009448 -0.008515 1.012088
v 0.004303 0.007589 1.012529
v 0.009175 0.006205 1.007864
v -0.009772 0.007548 1.007675
v -0.009446 0.006506 1.012054
vt 0.000192 0.412798
vt 0.496895 0.412687
vt 0.498802 0.414075
vt 0.995691 0.000154
vt 0.995390 0.412441
vt 0.993779 0.000165
vt 0.358924 0.414539
vt 0.356910 0.822451
vt 0.357241 0.414490
vt 0.499582 0.414236
vt 0.499541 0.412689
vt 0.499186 0.000146
vt 0.497469 0.000151
vt 0.354348 0.414513
vt 0.352484 0.822490
vt 0.352591 0.414484
vt 0.363121 0.414461
vt 0.361300 0.415973
vt 0.361390 0.414477
vt 0.356544 0.414488
vt 0.354801 0.823970
vt 0.354805 0.414498
vt 0.365026 0.415886
vt 0.363502 0.414415
vt 0.365137 0.414474
vt 0.000143 0.414207
vt 0.999859 0.000201
vt 0.998133 0.412167
vt 0.998132 0.000133
vt 0.360849 0.415992
vt 0.359349 0.414450
vt 0.361087 0.414550
vt 0.999793 0.412675
vt 0.997934 0.823004
vt 0.998095 0.412732
vt 0.351905 0.414464
vt 0.350244 0.824738
vt 0.350214 0.414469
vt 0.358604 0.822483
vt 0.358936 0.822272
vt 0.356611 0.823973
vt 0.349753 0.824995
vt 0.349902 0.824568
vt 0.497239 0.412130
vt 0.002736 0.706904
vt 0.348264 0.414409
vt 0.349487 0.415452
vt 0.356240 0.824070
vt 0.357147 0.822561
vt 0.349665 0.998943
vt 0.348561 0.999960
vt 0.348287 0.999897
vt 0.361105 0.415908
vt 0.352097 0.822571
vt 0.352075 0.825020
vt 0.351709 0.824735
vt 0.997645 0.413977
vt 0.997320 0.414222
vt 0.365263 0.415949
vt 0.999718 0.000000
vt 0.997729 0.412150
vt 0.499336 0.414144
vt 0.354070 0.822414
vt 0.363064 0.416010
vt 0.363379 0.416016
vt 0.999720 0.412087
vt 0.359235 0.415845
vt 0.999605 0.823154
vt 0.998171 0.823273
vt 0.997645 0.823408
vt 0.000029 0.707046
vt 0.999976 0.823412
vt 0.014791 0.935381
vt 0.098527 0.670119
vt 0.097930 0.940142
vt 0.309969 0.601521
vt 0.217669 0.929136
vt 0.225603 0.601944
vt 0.734755 0.947211
vt 0.815787 0.599702
vt 0.806358 0.947434
vt 0.023994 0.595272
vt 0.008625 0.670547
vt 0.264461 0.214323
vt 0.499481 0.095599
vt 0.345809 0.278554
vt 0.014234 0.095429
vt 0.010030 0.003434
vt 0.734932 0.354794
vt 0.993472 0.470380
vt 0.998038 0.588668
vt 0.126808 0.928078
vt 0.202912 0.601468
vt 0.205320 0.930116
vt 0.737409 0.221014
vt 0.509836 0.104980
vt 0.506112 0.015244
vt 0.270787 0.355150
vt 0.499035 0.471925
vt 0.500906 0.690924
vt 0.429248 0.611575
vt 0.500852 0.601935
vt 0.996341 0.095985
vt 0.814751 0.282898
vt 0.832451 0.845080
vt 0.917413 0.607364
vt 0.922799 0.847218
vt 0.910362 0.909189
vt 0.840351 0.994328
vt 0.832503 0.916665
vt 0.521220 0.961432
vt 0.601093 0.599812
vt 0.608584 0.966927
vt 0.626688 0.946640
vt 0.709773 0.687677
vt 0.709861 0.951099
vt 0.329479 0.673716
vt 0.407424 0.595272
vt 0.420286 0.673830
vt 0.010569 0.478943
vt 0.194953 0.293625
vt 0.336904 0.917424
vt 0.420044 0.921717
vt 0.299931 0.926021
vt 0.320859 0.929147
vt 0.118592 0.601841
vt 0.107991 0.930878
vt 0.762133 0.369631
vt 0.511881 0.479926
vt 0.508237 0.570523
vt 0.731712 0.598653
vt 0.480901 0.800206
vt 0.429194 0.748989
vt 0.480901 0.702188
vt 0.502945 0.004963
vt 0.664112 0.297773
vt 0.502982 0.562420
vt 0.433853 0.697383
vt 0.998472 0.003067
vt 0.834970 0.601160
vt 0.910362 1.000000
vt 0.516346 0.599745
vt 0.620446 0.687592
vt 0.330039 0.601569
vt 0.012600 0.591107
vt 0.825613 0.953288
vt 0.862194 0.610108
vt 0.796825 0.390999
vt 0.898839 0.612265
vt 0.063461 0.609964
vt 0.092600 0.388729
vt 0.181071 0.395810
vt 0.988409 0.009163
vt 0.898715 0.259574
vt 0.905104 0.008376
vt 0.225794 0.329314
vt 0.309796 0.002598
vt 0.370763 0.025931
vt 0.709000 0.358426
vt 0.585745 0.004503
vt 0.565877 0.621785
vt 0.586619 0.728799
vt 0.534653 0.724586
vt 0.203193 0.983293
vt 0.121249 0.625854
vt 0.204206 0.623001
vt 0.095656 0.651329
vt 0.014157 0.928454
vt 0.002834 0.621510
vt 0.455530 0.724736
vt 0.522620 0.627012
vt 0.520372 0.723837
vt 0.412005 0.882356
vt 0.320970 0.636979
vt 0.408500 0.625021
vt 0.990663 0.271889
vt 0.904123 0.717987
vt 0.834406 0.611231
vt 0.709813 0.396221
vt 0.535005 0.623510
vt 0.103845 0.931893
vt 0.017518 0.990667
vt 0.204736 0.371391
vt 0.399066 0.611726
vt 0.213166 0.400997
vt 0.498340 0.610954
vt 0.672405 0.326405
vt 0.213353 0.968748
vt 0.306158 0.632176
vt 0.300556 0.977532
vt 0.006120 0.611298
vt 0.527739 0.030018
vt 0.596301 0.629751
vt 0.110347 0.992587
vt 0.460977 0.621283
vt 0.313507 0.893972
vt 0.993668 0.716820
vt 0.102213 0.623051
vt 0.099305 0.992568
vt 0.450299 0.614332
vt 0.450299 0.617842
vt 0.213801 0.627792
vt 0.891886 0.004749
vt 0.994211 0.493955
vt 0.892248 0.495316
vt 0.561646 0.510663
vt 0.452856 0.964887
vt 0.465845 0.515672
vt 0.681340 0.563910
vt 0.568842 0.974692
vt 0.571361 0.563212
vt 0.709630 0.873170
vt 0.798863 0.512457
vt 0.805589 0.880102
vt 0.004430 0.864268
vt 0.112309 0.512167
vt 0.118236 0.864488
vt 0.027049 0.501138
vt 0.045036 0.013199
vt 0.059767 0.127390
vt 0.829262 0.129965
vt 0.503964 0.364244
vt 0.862485 0.006391
vt 0.386558 0.367299
vt 0.433710 0.497816
vt 0.892181 0.506421
vt 0.995286 0.992456
vt 0.893509 0.993540
vt 0.679083 0.526918
vt 0.687976 0.879025
vt 0.697359 0.511763
vt 0.190356 0.616057
vt 0.171720 0.511843
vt 0.190804 0.511650
vt 0.214062 0.614668
vt 0.214062 0.512731
vt 0.002931 0.500796
vt 0.883461 0.498925
vt 0.049899 0.499461
vt 0.859674 0.501766
vt 0.479757 0.490656
vt 0.444636 0.497829
vt 0.466184 0.363983
vt 0.557356 0.992238
vt 0.456115 0.999083
vt 0.827779 0.007998
vt 0.561824 0.941951
vt 0.143288 0.617608
vt 0.122548 0.513025
vt 0.159378 0.511705
vt 0.492851 0.006631
vt 0.454059 0.006815
vt 0.994672 0.005352
vt 0.682698 0.973642
vt 0.010185 0.510411
vt 0.419799 0.009345
vt 0.992874 0.506511
vt 0.678028 0.508190
vt 0.574680 0.513803
vt 0.836688 0.499310
vt 0.171623 0.615884
vt 0.884810 0.007320
vt 0.010518 0.004705
vt 0.444118 0.510288
vt 0.385537 0.489253
vt 0.168287 0.616266
vt 0.121904 0.614950
vt 0.443369 0.009529
vt 0.395417 0.009643
vn 0.1487 0.0002 -0.9889
vn -0.9998 0.0002 0.0186
vn 0.9998 0.0006 -0.0206
vn -0.9995 0.0307 0.0004
vn 0.0007 -0.0161 -0.9999
vn -0.0187 0.9998 0.0008
vn -0.0235 0.9994 -0.0272
vn 0.0005 -0.0285 0.9996
vn 0.9949 -0.0989 -0.0200
vn 0.0120 0.0007 -0.9999
vn 0.0005 0.9995 0.0329
vn -0.0056 0.0869 0.9962
vn 0.0180 0.0002 0.9998
vn 0.9996 0.0298 0.0005
vn 0.7568 0.5986 0.2625
vn 0.5798 0.4180 0.6994
vn 0.1805 -0.0315 -0.9831
vn 0.0005 -1.0000 0.0054
vn 0.8520 -0.0014 0.5236
vn 0.5620 0.8267 -0.0256
vn -0.0080 -0.8898 0.4563
vn -0.6912 -0.0294 0.7221
vn -0.4770 0.8789 0.0005
vn 0.8630 -0.5052 0.0002
vn 0.7148 0.0002 0.6993
vn -0.8302 -0.0002 -0.5574
vn 0.7030 0.0254 -0.7108
vn 0.4876 0.8730 -0.0012
vn -0.0000 0.8266 0.5628
vn -0.0000 0.2045 -0.9789
vn 0.0001 -0.5811 -0.8138
vn 0.0226 -0.9997 0.0002
vn -0.9979 -0.0002 -0.0655
vn 0.9913 0.0010 -0.1313
vn -0.9981 -0.0612 -0.0000
vn 0.0622 0.9981 0.0005
vn 0.0210 0.9997 0.0158
vn 0.0001 0.0874 0.9962
vn 0.9955 0.0077 0.0949
vn 0.0001 0.9965 -0.0838
vn 0.0966 -0.0065 0.9953
vn 0.1304 0.0007 0.9915
vn 0.9972 0.0744 0.0007
vn 0.5784 0.4649 0.6703
vn 0.0003 -0.9993 -0.0377
vn -0.0365 0.6122 0.7898
vn 0.7871 0.6168 0.0001
vn -0.5282 0.0001 0.8491
vn 0.0003 -0.5395 0.8420
vn -0.0342 -0.9994 -0.0000
vn -0.0091 -0.6814 0.7319
vn -0.0026 -0.6796 0.7336
vn -0.0005 -0.6791 0.7341
vn 0.0117 -0.6485 0.7611
vn 0.0689 0.6002 -0.7968
vn -0.0212 -0.9995 0.0217
vn 0.9999 0.0167 -0.0010
vn 0.9999 0.0090 0.0076
vn 0.9998 0.0198 -0.0014
vn 0.9999 -0.0067 -0.0078
vn -0.9998 -0.0173 0.0052
vn 0.0575 -0.6572 -0.7515
vn -0.9998 0.0068 -0.0169
vn 0.9999 0.0169 -0.0023
vn 0.9999 0.0112 -0.0085
vn -0.0069 1.0000 0.0046
vn -0.9994 -0.0227 0.0256
vn -0.0008 0.7255 -0.6882
vn -0.0086 0.7278 -0.6858
vn -0.0110 0.7284 -0.6850
vn 0.0075 -0.9999 0.0136
vn -0.9989 -0.0474 -0.0041
vn 0.0150 0.6571 0.7536
vn 0.0080 -0.6720 -0.7405
vn 0.0023 -0.6703 -0.7420
vn 0.0004 -0.6698 -0.7425
vn -0.0104 0.9999 0.0078
vn 0.9998 -0.0183 -0.0019
vn 0.9999 -0.0132 -0.0083
vn 0.9998 -0.0208 -0.0007
vn 0.0078 0.7321 0.6811
vn 0.0005 0.7300 0.6834
vn -0.0017 0.7294 0.6841
vn -0.6850 -0.4745 0.5528
vn -0.3105 -0.6268 -0.7147
vn -0.2857 0.6282 0.7237
vn -0.9997 0.0049 0.0242
vn -0.0113 -0.6820 0.7313
vn 0.0494 -0.6384 0.7681
vn 0.0053 0.6164 -0.7875
vn 0.0118 -0.9999 -0.0104
vn 0.9997 -0.0059 -0.0237
vn 0.9998 -0.0184 -0.0012
vn 0.9999 -0.0123 0.0056
vn -0.9992 -0.0304 -0.0263
vn -0.0117 -0.6450 -0.7641
vn -0.9994 0.0253 0.0216
vn 0.9999 -0.0003 0.0170
vn 0.0104 0.9999 -0.0137
vn -0.9992 0.0053 -0.0388
vn 0.0016 0.7248 -0.6890
vn -0.0118 -0.9999 -0.0021
vn -0.9988 0.0486 -0.0065
vn -0.0097 0.6522 0.7580
vn 0.0099 -0.6725 -0.7400
vn 0.0068 0.9999 -0.0105
vn 0.9999 -0.0065 0.0079
vn 0.0101 0.7327 0.6805
vn -0.3642 0.5773 -0.7308
vn -0.9992 0.0301 -0.0277
vn 0.2172 0.9747 0.0521
vn 0.2232 0.9733 0.0538
vn 0.2264 0.9725 0.0547
vn -0.1984 -0.9790 -0.0476
vn 0.9000 -0.0438 0.4338
vn -0.0303 -0.9977 -0.0611
vn 0.2421 0.9552 0.1701
vn 0.0069 -0.0269 -0.9996
vn -0.7435 -0.0216 0.6684
vn -0.7442 -0.0271 0.6674
vn -0.7432 -0.0192 0.6688
vn 0.6837 -0.0606 -0.7272
vn -0.3368 -0.0029 0.9416
vn -0.8509 -0.0362 -0.5241
vn -0.8506 -0.0373 -0.5244
vn -0.8510 -0.0358 -0.5240
vn 0.8491 0.0018 0.5283
vn 0.8496 -0.0019 0.5275
vn 0.8498 -0.0036 0.5271
vn -0.0169 0.9906 -0.1355
vn -0.1963 0.0227 -0.9803
vn 0.0950 0.0079 -0.9954
vn 0.5011 -0.7725 -0.3901
vn -0.0098 -0.9971 0.0756
vn -0.2379 0.9625 0.1304
vn -0.2382 0.9624 0.1306
vn -0.8716 0.0005 -0.4903
vn -0.8716 0.0004 -0.4903
vn 0.2143 0.9754 0.0512
vn -0.0644 -0.9975 -0.0303
vn 0.8899 0.0107 0.4559
vn -0.1544 -0.9834 -0.0949
vn -0.0294 0.9969 0.0725
vn 0.0527 -0.0090 -0.9986
vn -0.7445 -0.0293 0.6670
vn 0.7005 0.0118 -0.7135
vn -0.3105 0.0177 0.9504
vn -0.8506 -0.0376 -0.5245
vn 0.8488 0.0036 0.5287
vn -0.1205 -0.9277 -0.3534
vn -0.2735 0.9240 -0.2673
vn -0.4418 0.8739 -0.2029
vn -0.1065 -0.9943 0.0106
vn -0.2136 -0.8785 -0.4273
vn 0.3756 0.0360 -0.9261
vn 0.0497 -0.0227 -0.9985
vn 0.0453 0.9903 -0.1315
vn -0.1283 -0.9796 0.1547
vn -0.2378 0.9625 0.1304
vn -0.8716 0.0003 -0.4902
vn -0.0107 -0.9982 -0.0585
vn 0.6805 -0.7318 -0.0380
vn -0.6760 0.7308 -0.0946
vn 0.0149 0.9981 -0.0594
vn -0.0160 -0.9998 -0.0091
vn 0.0125 0.2314 -0.9728
vn -0.0079 0.0211 0.9997
vn -0.0184 0.0134 -0.9997
vn -0.0135 0.9976 0.0677
vn -0.9814 0.1915 0.0135
vn 0.0144 0.9331 0.3594
vn 0.9728 0.2318 0.0028
vn 0.9412 -0.3375 0.0139
vn 0.0004 -0.2619 -0.9651
vn -0.0003 -0.2693 -0.9631
vn 0.0001 -0.2648 -0.9643
vn 0.0127 -0.0658 0.9978
vn 0.0254 0.3964 -0.9177
vn -0.0098 -0.2208 0.9753
vn 0.0587 0.1876 0.9805
vn 0.9988 0.0403 0.0269
vn -0.1876 0.2064 0.9603
vn 0.9798 -0.1955 -0.0424
vn -0.9910 -0.1268 0.0437
vn -0.0236 -0.1343 0.9907
vn 0.6613 -0.7472 0.0662
vn 0.0032 -1.0000 0.0086
vn -0.6627 0.7489 -0.0018
vn 0.0315 0.9995 0.0099
vn -0.0230 -0.9996 0.0137
vn 0.0009 -0.0354 -0.9994
vn -0.0307 0.0384 0.9988
vn 0.0494 -0.0373 -0.9981
vn 0.0139 0.9980 -0.0621
vn -0.9674 -0.2488 0.0480
vn -0.9989 0.0458 -0.0056
vn 0.0296 0.3286 0.9440
vn 0.9574 0.2887 -0.0096
vn 0.9706 -0.2405 -0.0114
vn -0.0061 -0.4066 0.9136
vn -0.0006 -0.2722 -0.9623
vn 0.6622 -0.7282 0.1764
vn 0.1122 -0.1167 -0.9868
vn 0.0049 -0.2157 0.9765
vn -0.9535 0.3005 -0.0235
vn -0.9407 -0.3391 -0.0106
vn -0.0131 0.3418 -0.9397
vn 0.0054 0.4350 0.9004
vn -0.0216 -0.2761 -0.9609
vn -0.0166 -0.2168 0.9761
usemtl System
s 1
f 1/1/1 2/2/1 3/3/1
f 4/4/2 5/5/2 6/6/2
f 7/7/3 2/8/3 1/9/3
f 5/5/4 8/10/4 9/11/4
f 10/12/5 3/3/5 11/13/5
f 12/14/6 13/15/6 9/16/6
f 6/17/7 1/18/7 4/19/7
f 14/20/8 15/21/8 16/22/8
f 17/23/9 16/24/9 10/25/9
f 3/3/10 4/26/10 1/1/10
f 11/27/11 18/28/11 14/29/11
f 19/30/12 12/31/12 9/32/12
f 6/33/13 20/34/13 7/35/13
f 21/36/14 22/37/14 12/38/14
f 18/39/15 20/40/15 23/41/15
f 22/37/16 23/42/16 24/43/16
f 3/3/17 2/2/17 25/44/17
f 26/45/18 10/46/18 16/47/18
f 22/48/19 15/21/19 23/41/19
f 18/39/20 25/49/20 2/8/20
f 21/50/21 19/51/21 8/52/21
f 19/30/22 9/32/22 8/53/22
f 5/54/23 9/16/23 13/15/23
f 21/36/24 26/55/24 15/56/24
f 7/7/25 20/40/25 18/39/25
f 4/4/26 3/57/26 27/58/26
f 17/23/27 10/25/27 11/59/27
f 14/29/28 17/60/28 11/27/28
f 23/61/29 14/29/29 18/28/29
f 3/3/30 25/44/30 11/13/30
f 10/12/31 27/62/31 3/3/31
f 8/52/32 26/45/32 21/50/32
f 4/4/33 27/58/33 5/5/33
f 7/7/34 18/39/34 2/8/34
f 5/5/35 27/58/35 8/10/35
f 12/14/36 24/63/36 13/15/36
f 6/17/37 7/64/37 1/18/37
f 14/20/38 23/41/38 15/21/38
f 17/23/39 14/65/39 16/24/39
f 11/27/40 25/66/40 18/28/40
f 19/30/41 21/67/41 12/31/41
f 6/33/42 13/68/42 20/34/42
f 21/36/43 15/56/43 22/37/43
f 20/34/44 24/69/44 23/70/44
f 26/45/45 27/71/45 10/46/45
f 24/69/46 20/34/46 13/68/46
f 12/38/47 22/37/47 24/43/47
f 5/72/48 13/68/48 6/33/48
f 16/22/49 15/21/49 26/55/49
f 8/52/50 27/71/50 26/45/50
usemtl X
f 28/73/51 29/74/52 30/75/53
f 31/76/54 32/77/54 33/78/54
f 34/79/55 35/80/55 36/81/55
f 35/82/56 29/74/56 37/83/56
f 34/84/57 38/85/58 39/86/59
f 34/84/60 29/87/60 40/88/60
f 41/89/61 42/90/61 43/91/61
f 36/92/62 44/93/62 34/94/62
f 45/95/63 46/96/63 47/97/63
f 32/98/64 34/84/57 39/86/59
f 48/99/65 32/98/64 39/86/59
f 33/100/66 49/101/66 31/102/66
f 45/95/67 37/103/67 28/104/67
f 48/105/68 50/106/69 49/107/70
f 43/108/71 51/109/71 52/110/71
f 41/89/72 45/95/72 28/104/72
f 53/111/73 52/112/73 32/113/73
f 30/114/74 42/115/75 28/116/76
f 38/117/77 47/118/77 46/119/77
f 32/98/78 51/120/79 30/121/80
f 39/122/81 46/119/82 50/123/83
f 53/124/84 31/76/84 41/125/84
f 47/126/85 36/92/85 45/127/85
f 43/91/86 53/128/86 41/89/86
f 49/129/87 41/89/87 31/130/87
f 28/73/51 37/83/88 29/74/52
f 31/76/89 53/124/89 32/77/89
f 34/79/90 40/131/90 35/80/90
f 35/132/91 40/133/91 29/134/91
f 34/84/92 44/135/92 38/85/92
f 34/84/93 30/121/80 29/87/94
f 41/89/95 28/104/95 42/90/95
f 36/92/96 47/126/96 44/93/96
f 45/95/97 50/136/97 46/96/97
f 32/98/78 30/121/80 34/84/93
f 48/99/98 33/137/98 32/98/98
f 33/100/99 48/138/99 49/101/99
f 45/95/100 35/139/100 37/103/100
f 48/105/68 39/140/101 50/106/69
f 43/108/102 42/141/102 51/109/102
f 41/89/103 50/136/103 45/95/103
f 53/111/104 43/142/104 52/112/104
f 30/114/74 51/143/105 42/115/75
f 38/117/106 44/144/106 47/118/106
f 32/98/107 52/145/107 51/120/107
f 39/122/81 38/117/108 46/119/82
f 35/80/109 45/146/109 36/81/109
f 49/129/110 50/136/110 41/89/110
usemtl Y
f 54/147/111 55/148/112 56/149/113
f 57/150/114 58/151/114 59/152/114
f 56/153/115 58/154/115 60/155/115
f 61/156/116 62/157/116 63/158/116
f 64/159/117 65/160/117 55/148/117
f 54/161/118 60/162/118 57/163/118
f 61/164/119 66/165/120 67/166/121
f 68/167/122 69/168/122 70/169/122
f 62/170/123 71/171/123 63/172/123
f 59/173/124 72/174/125 57/175/126
f 55/176/127 62/177/128 58/154/129
f 64/159/130 72/178/130 70/179/130
f 54/161/131 57/163/131 72/180/131
f 73/181/132 66/182/132 69/168/132
f 74/183/133 73/184/133 68/185/133
f 61/156/134 73/184/134 74/183/134
f 69/186/135 75/187/135 64/159/136
f 71/188/137 61/189/138 63/190/137
f 54/147/111 64/159/139 55/148/112
f 57/150/140 60/191/140 58/151/140
f 56/153/141 55/176/141 58/154/141
f 61/156/142 58/151/142 62/157/142
f 64/159/143 71/192/143 65/160/143
f 54/161/144 56/193/144 60/162/144
f 61/164/119 75/194/145 66/165/120
f 68/167/146 73/181/146 69/168/146
f 62/170/147 65/195/147 71/171/147
f 59/173/124 70/196/148 72/174/125
f 55/176/127 65/197/149 62/177/128
f 68/185/150 59/152/150 74/183/150
f 64/159/151 54/147/151 72/178/151
f 71/192/152 64/159/152 75/187/152
f 58/151/153 61/156/153 74/183/153
f 58/151/154 74/183/154 59/152/154
f 70/169/155 59/198/155 68/167/155
f 73/181/156 67/199/156 66/182/156
f 64/159/157 70/179/157 69/186/157
f 61/156/158 67/200/158 73/184/158
f 69/186/135 66/201/159 75/187/135
f 71/188/137 75/202/160 61/189/138
usemtl Z
f 76/203/161 77/204/161 78/205/161
f 79/206/162 80/207/162 81/208/162
f 82/209/163 83/210/163 84/211/163
f 81/212/164 85/213/164 79/214/164
f 86/215/165 87/216/165 83/217/165
f 88/218/166 84/219/166 79/220/166
f 89/221/167 86/222/167 90/223/167
f 79/220/168 83/224/168 91/225/168
f 92/226/169 93/227/169 94/228/169
f 84/211/170 90/229/170 82/209/170
f 89/230/171 95/231/171 81/212/171
f 88/232/172 95/233/172 96/234/172
f 76/235/173 96/234/173 97/236/173
f 88/218/174 76/237/175 84/219/176
f 90/223/177 97/238/177 89/221/177
f 88/218/178 79/220/178 85/239/178
f 89/221/179 97/238/179 96/240/179
f 80/241/180 92/242/180 98/243/180
f 91/244/181 92/245/181 80/207/181
f 90/223/182 86/222/182 82/246/182
f 80/207/183 99/247/183 91/244/183
f 100/248/184 101/249/184 94/250/184
f 101/251/185 98/243/185 94/252/185
f 79/206/186 99/247/186 80/207/186
f 97/253/187 77/204/187 76/203/187
f 82/209/188 86/254/188 83/210/188
f 81/212/189 95/231/189 85/213/189
f 86/215/190 101/255/190 87/216/190
f 91/225/191 83/224/191 100/256/191
f 89/221/192 80/241/192 86/222/192
f 79/220/193 84/219/193 83/224/193
f 92/226/194 91/257/194 93/227/194
f 77/258/195 90/229/195 78/259/195
f 84/211/196 78/259/196 90/229/196
f 96/240/197 95/260/197 89/221/197
f 88/232/198 85/261/198 95/233/198
f 76/235/199 88/232/199 96/234/199
f 90/223/200 77/262/200 97/238/200
f 84/219/176 76/237/175 78/263/201
f 80/207/202 89/264/202 81/208/202
f 91/225/203 99/265/203 79/220/203
f 98/243/204 86/222/204 80/241/204
f 94/250/205 93/266/205 100/248/205
f 100/248/206 87/267/206 101/249/206
f 100/256/207 93/268/207 91/225/207
f 94/252/208 98/243/208 92/242/208
f 87/269/209 100/256/209 83/224/209
f 101/251/210 86/222/210 98/243/210
