mtllib csystemX.mtl
o CoordinateSystem_X_CoordinateSystem_CoordinateSystemMesh.002
v 0.000109 -0.002639 -0.002188
v 0.007876 -0.011038 0.002178
v 0.000106 -0.002639 0.002237
v -0.011602 0.010985 -0.002089
v -0.002716 0.000634 0.002303
v -0.011562 0.011015 0.002155
v 0.003027 0.000646 0.002294
v 0.012206 -0.011043 -0.002029
v 0.003321 0.000668 -0.001291
v 0.007856 -0.010945 -0.002198
v 0.007936 0.011032 0.002238
v 0.000170 0.003819 0.002243
v 0.012140 -0.010994 0.002145
v -0.002493 0.000764 -0.002360
v -0.007349 -0.010906 -0.002133
v -0.012737 -0.010918 -0.002105
v 0.012086 0.010989 0.002139
v 0.002833 0.000628 -0.002332
v 0.007821 0.010985 -0.002178
v 0.012046 0.011019 -0.002106
v -0.007338 0.010956 0.002227
v -0.007459 0.011004 -0.002189
v 0.000181 0.003819 -0.002194
v -0.007453 -0.010958 0.002190
v -0.012763 -0.010886 0.002149
v -0.002894 0.000525 -0.001871
vt 0.014791 0.935381
vt 0.098527 0.670119
vt 0.097930 0.940142
vt 0.309969 0.601521
vt 0.217669 0.929136
vt 0.225603 0.601944
vt 0.734755 0.947211
vt 0.815787 0.599702
vt 0.806358 0.947434
vt 0.023994 0.595272
vt 0.008625 0.670547
vt 0.264461 0.214323
vt 0.499481 0.095599
vt 0.345809 0.278554
vt 0.014234 0.095429
vt 0.010030 0.003434
vt 0.734932 0.354794
vt 0.993472 0.470380
vt 0.998038 0.588668
vt 0.126808 0.928078
vt 0.202912 0.601468
vt 0.205320 0.930116
vt 0.737409 0.221014
vt 0.509836 0.104980
vt 0.506112 0.015244
vt 0.270787 0.355150
vt 0.499035 0.471925
vt 0.500906 0.690924
vt 0.429248 0.611575
vt 0.500852 0.601935
vt 0.996341 0.095985
vt 0.814751 0.282898
vt 0.832451 0.845080
vt 0.917413 0.607364
vt 0.922799 0.847218
vt 0.910362 0.909189
vt 0.840351 0.994328
vt 0.832503 0.916665
vt 0.521220 0.961432
vt 0.601093 0.599812
vt 0.608584 0.966927
vt 0.626688 0.946640
vt 0.709773 0.687677
vt 0.709861 0.951099
vt 0.329479 0.673716
vt 0.407424 0.595272
vt 0.420286 0.673830
vt 0.010569 0.478943
vt 0.194953 0.293625
vt 0.336904 0.917424
vt 0.420044 0.921717
vt 0.299931 0.926021
vt 0.320859 0.929147
vt 0.118592 0.601841
vt 0.107991 0.930878
vt 0.762133 0.369631
vt 0.511881 0.479926
vt 0.508237 0.570523
vt 0.731712 0.598653
vt 0.480901 0.800206
vt 0.429194 0.748989
vt 0.480901 0.702188
vt 0.502945 0.004963
vt 0.664112 0.297773
vt 0.502982 0.562420
vt 0.433853 0.697383
vt 0.998472 0.003067
vt 0.834970 0.601160
vt 0.910362 1.000000
vt 0.516346 0.599745
vt 0.620446 0.687592
vt 0.330039 0.601569
vt 0.012600 0.591107
vt 0.825613 0.953288
vn -0.7319 -0.6814 -0.0091
vn -0.7336 -0.6796 -0.0026
vn -0.7341 -0.6791 -0.0005
vn -0.7612 -0.6484 0.0118
vn 0.7968 0.6003 0.0687
vn -0.0217 -0.9995 -0.0211
vn 0.0010 0.0167 0.9999
vn -0.0078 0.0091 0.9999
vn 0.0014 0.0198 0.9998
vn 0.0078 -0.0067 0.9999
vn -0.0052 -0.0173 -0.9998
vn 0.7514 -0.6573 0.0576
vn 0.0170 0.0067 -0.9998
vn 0.0023 0.0169 0.9999
vn 0.0085 0.0111 0.9999
vn -0.0048 1.0000 -0.0070
vn -0.0256 -0.0227 -0.9994
vn 0.6882 0.7255 -0.0008
vn 0.6858 0.7278 -0.0086
vn 0.6850 0.7284 -0.0109
vn -0.0136 -0.9999 0.0074
vn 0.0040 -0.0474 -0.9989
vn -0.7537 0.6571 0.0150
vn 0.7405 -0.6720 0.0080
vn 0.7421 -0.6703 0.0023
vn 0.7425 -0.6698 0.0005
vn -0.0079 0.9999 -0.0104
vn 0.0019 -0.0183 0.9998
vn 0.0082 -0.0131 0.9999
vn 0.0007 -0.0208 0.9998
vn -0.6811 0.7321 0.0078
vn -0.6834 0.7300 0.0005
vn -0.6841 0.7294 -0.0017
vn -0.5528 -0.4747 -0.6849
vn 0.7145 -0.6268 -0.3109
vn -0.7238 0.6280 -0.2857
vn -0.0242 0.0050 -0.9997
vn -0.7312 -0.6820 -0.0112
vn -0.7681 -0.6384 0.0494
vn 0.7874 0.6164 0.0052
vn 0.0104 -0.9999 0.0119
vn 0.0238 -0.0058 0.9997
vn 0.0012 -0.0184 0.9998
vn -0.0057 -0.0123 0.9999
vn 0.0263 -0.0304 -0.9992
vn 0.7641 -0.6450 -0.0118
vn -0.0216 0.0253 -0.9994
vn -0.0170 -0.0003 0.9999
vn 0.0138 0.9998 0.0105
vn 0.0389 0.0053 -0.9992
vn 0.6891 0.7247 0.0012
vn 0.0022 -0.9999 -0.0120
vn 0.0065 0.0486 -0.9988
vn -0.7580 0.6522 -0.0095
vn 0.7400 -0.6725 0.0097
vn 0.0105 0.9999 0.0070
vn -0.0078 -0.0066 0.9999
vn -0.6805 0.7327 0.0104
vn 0.7309 0.5772 -0.3643
vn 0.0277 0.0301 -0.9992
usemtl X
s 1
f 1/1/1 2/2/2 3/3/3
f 4/4/4 5/5/4 6/6/4
f 7/7/5 8/8/5 9/9/5
f 8/10/6 2/2/6 10/11/6
f 7/12/7 11/13/8 12/14/9
f 7/12/10 2/15/10 13/16/10
f 14/17/11 15/18/11 16/19/11
f 9/20/12 17/21/12 7/22/12
f 18/23/13 19/24/13 20/25/13
f 5/26/14 7/12/7 12/14/9
f 21/27/15 5/26/14 12/14/9
f 6/28/16 22/29/16 4/30/16
f 18/23/17 10/31/17 1/32/17
f 21/33/18 23/34/19 22/35/20
f 16/36/21 24/37/21 25/38/21
f 14/17/22 18/23/22 1/32/22
f 26/39/23 25/40/23 5/41/23
f 3/42/24 15/43/25 1/44/26
f 11/45/27 20/46/27 19/47/27
f 5/26/28 24/48/29 3/49/30
f 12/50/31 19/47/32 23/51/33
f 26/52/34 4/4/34 14/53/34
f 20/54/35 9/20/35 18/55/35
f 16/19/36 26/56/36 14/17/36
f 22/57/37 14/17/37 4/58/37
f 1/1/1 10/11/38 2/2/2
f 4/4/39 26/52/39 5/5/39
f 7/7/40 13/59/40 8/8/40
f 8/60/41 13/61/41 2/62/41
f 7/12/42 17/63/42 11/13/42
f 7/12/43 3/49/30 2/15/44
f 14/17/45 1/32/45 15/18/45
f 9/20/46 20/54/46 17/21/46
f 18/23/47 23/64/47 19/24/47
f 5/26/28 3/49/30 7/12/43
f 21/27/48 6/65/48 5/26/48
f 6/28/49 21/66/49 22/29/49
f 18/23/50 8/67/50 10/31/50
f 21/33/18 12/68/51 23/34/19
f 16/36/52 15/69/52 24/37/52
f 14/17/53 23/64/53 18/23/53
f 26/39/54 16/70/54 25/40/54
f 3/42/24 24/71/55 15/43/25
f 11/45/56 17/72/56 20/46/56
f 5/26/57 25/73/57 24/48/57
f 12/50/31 11/45/58 19/47/32
f 8/8/59 18/74/59 9/9/59
f 22/57/60 23/64/60 14/17/60
