mtllib csystemZ.mtl
o CoordinateSystem_Z_CoordinateSystem_CoordinateSystemMesh
v 0.009496 -0.008550 -0.002155
v -0.009533 -0.008577 0.001798
v -0.009793 -0.008340 -0.002203
v -0.004891 -0.006254 -0.002396
v 0.009507 0.006896 0.002215
v -0.004463 -0.006044 0.001235
v -0.009504 -0.006096 0.002010
v 0.004438 0.006230 -0.002401
v -0.009724 -0.006897 -0.002611
v 0.009509 -0.006451 -0.002083
v 0.004380 0.006190 0.002085
v -0.009380 0.006449 -0.002153
v 0.009784 -0.007374 -0.002474
v -0.005169 -0.006434 0.002277
v -0.009780 -0.007527 0.002263
v 0.009577 0.008266 -0.002469
v 0.009449 0.008540 0.001904
v -0.009464 0.008555 -0.002099
v -0.009661 0.008264 0.002152
v 0.009561 -0.006492 0.001835
v 0.009803 -0.007514 0.002183
v 0.009448 -0.008515 0.001953
v 0.004303 0.007589 0.002394
v 0.009175 0.006205 -0.002271
v -0.009772 0.007548 -0.002460
v -0.009446 0.006506 0.001919
vt 0.891886 0.004749
vt 0.994211 0.493955
vt 0.892248 0.495316
vt 0.561646 0.510663
vt 0.452856 0.964887
vt 0.465845 0.515672
vt 0.681340 0.563910
vt 0.568842 0.974692
vt 0.571361 0.563212
vt 0.709630 0.873170
vt 0.798863 0.512457
vt 0.805589 0.880102
vt 0.004430 0.864268
vt 0.112309 0.512167
vt 0.118236 0.864488
vt 0.027049 0.501138
vt 0.045036 0.013199
vt 0.059767 0.127390
vt 0.829262 0.129965
vt 0.503964 0.364244
vt 0.862485 0.006391
vt 0.386558 0.367299
vt 0.433710 0.497816
vt 0.892181 0.506421
vt 0.995286 0.992456
vt 0.893509 0.993540
vt 0.679083 0.526918
vt 0.687976 0.879025
vt 0.697359 0.511763
vt 0.190356 0.616057
vt 0.171720 0.511843
vt 0.190804 0.511650
vt 0.214062 0.614668
vt 0.214062 0.512731
vt 0.002931 0.500796
vt 0.883461 0.498925
vt 0.049899 0.499461
vt 0.859674 0.501766
vt 0.479757 0.490656
vt 0.444636 0.497829
vt 0.466184 0.363983
vt 0.557356 0.992238
vt 0.456115 0.999083
vt 0.827779 0.007998
vt 0.561824 0.941951
vt 0.143288 0.617608
vt 0.122548 0.513025
vt 0.159378 0.511705
vt 0.492851 0.006631
vt 0.454059 0.006815
vt 0.994672 0.005352
vt 0.682698 0.973642
vt 0.010185 0.510411
vt 0.419799 0.009345
vt 0.992874 0.506511
vt 0.678028 0.508190
vt 0.574680 0.513803
vt 0.836688 0.499310
vt 0.171623 0.615884
vt 0.884810 0.007320
vt 0.010518 0.004705
vt 0.444118 0.510288
vt 0.385537 0.489253
vt 0.168287 0.616266
vt 0.121904 0.614950
vt 0.443369 0.009529
vt 0.395417 0.009643
vn -0.0107 -0.9982 -0.0584
vn 0.6805 -0.7317 -0.0382
vn -0.6760 0.7308 -0.0945
vn 0.0149 0.9981 -0.0595
vn -0.0160 -0.9998 -0.0091
vn 0.0125 0.2313 -0.9728
vn -0.0081 0.0213 0.9997
vn -0.0186 0.0135 -0.9997
vn -0.0135 0.9976 0.0677
vn -0.9814 0.1913 0.0135
vn 0.0144 0.9332 0.3591
vn 0.9727 0.2319 0.0028
vn 0.9412 -0.3375 0.0139
vn 0.0004 -0.2619 -0.9651
vn -0.0003 -0.2693 -0.9631
vn 0.0001 -0.2648 -0.9643
vn 0.0127 -0.0659 0.9977
vn 0.0254 0.3963 -0.9178
vn -0.0098 -0.2207 0.9753
vn 0.0587 0.1876 0.9805
vn 0.9988 0.0403 0.0270
vn -0.1875 0.2062 0.9604
vn 0.9798 -0.1955 -0.0424
vn -0.9910 -0.1270 0.0436
vn -0.0237 -0.1342 0.9907
vn 0.6613 -0.7472 0.0662
vn 0.0032 -1.0000 0.0086
vn -0.6627 0.7489 -0.0019
vn 0.0315 0.9995 0.0100
vn -0.0230 -0.9996 0.0136
vn 0.0008 -0.0355 -0.9994
vn -0.0310 0.0386 0.9988
vn 0.0493 -0.0373 -0.9981
vn 0.0139 0.9980 -0.0621
vn -0.9674 -0.2487 0.0478
vn -0.9989 0.0459 -0.0056
vn 0.0296 0.3284 0.9441
vn 0.9573 0.2888 -0.0096
vn 0.9706 -0.2404 -0.0115
vn -0.0061 -0.4066 0.9136
vn -0.0006 -0.2720 -0.9623
vn 0.6622 -0.7282 0.1764
vn 0.1121 -0.1167 -0.9868
vn 0.0049 -0.2157 0.9764
vn -0.9535 0.3006 -0.0235
vn -0.9407 -0.3391 -0.0106
vn -0.0131 0.3417 -0.9397
vn 0.0054 0.4348 0.9005
vn -0.0216 -0.2761 -0.9609
vn -0.0167 -0.2165 0.9761
usemtl Z
s 1
f 1/1/1 2/2/1 3/3/1
f 4/4/2 5/5/2 6/6/2
f 7/7/3 8/8/3 9/9/3
f 6/10/4 10/11/4 4/12/4
f 11/13/5 12/14/5 8/15/5
f 13/16/6 9/17/6 4/18/6
f 14/19/7 11/20/7 15/21/7
f 4/18/8 8/22/8 16/23/8
f 17/24/9 18/25/9 19/26/9
f 9/9/10 15/27/10 7/7/10
f 14/28/11 20/29/11 6/10/11
f 13/30/12 20/31/12 21/32/12
f 1/33/13 21/32/13 22/34/13
f 13/16/14 1/35/15 9/17/16
f 15/21/17 22/36/17 14/19/17
f 13/16/18 4/18/18 10/37/18
f 14/19/19 22/36/19 21/38/19
f 5/39/20 17/40/20 23/41/20
f 16/42/21 17/43/21 5/5/21
f 15/21/22 11/20/22 7/44/22
f 5/5/23 24/45/23 16/42/23
f 25/46/24 26/47/24 19/48/24
f 26/49/25 23/41/25 19/50/25
f 4/4/26 24/45/26 5/5/26
f 22/51/27 2/2/27 1/1/27
f 7/7/28 11/52/28 8/8/28
f 6/10/29 20/29/29 10/11/29
f 11/13/30 26/53/30 12/14/30
f 16/23/31 8/22/31 25/54/31
f 14/19/32 5/39/32 11/20/32
f 4/18/33 9/17/33 8/22/33
f 17/24/34 16/55/34 18/25/34
f 2/56/35 15/27/35 3/57/35
f 9/9/36 3/57/36 15/27/36
f 21/38/37 20/58/37 14/19/37
f 13/30/38 10/59/38 20/31/38
f 1/33/39 13/30/39 21/32/39
f 15/21/40 2/60/40 22/36/40
f 9/17/16 1/35/15 3/61/41
f 5/5/42 14/62/42 6/6/42
f 16/23/43 24/63/43 4/18/43
f 23/41/44 11/20/44 5/39/44
f 19/48/45 18/64/45 25/46/45
f 25/46/46 12/65/46 26/47/46
f 25/54/47 18/66/47 16/23/47
f 19/50/48 23/41/48 17/40/48
f 12/67/49 25/54/49 8/22/49
f 26/49/50 11/20/50 23/41/50
