mtllib kwcube6.mtl
o Cube
v 0.500000 0.500000 -0.500000
v 0.500000 -0.500000 -0.500000
v 0.500000 0.500000 0.500000
v 0.500000 -0.500000 0.500000
v -0.500000 0.500000 -0.500000
v -0.500000 -0.500000 -0.500000
v -0.500000 0.500000 0.500000
v -0.500000 -0.500000 0.500000
vt 1.000000 0.000000
vt 0.000000 1.000000
vt 0.000000 0.000000
vt 1.000000 1.000000
vt 1.000000 0.000000
vt 0.000000 1.000000
vt 0.000000 0.000000
vt 1.000000 1.000000
vt 1.000000 0.000000
vt 0.000000 1.000000
vt 0.000000 0.000000
vt 1.000000 1.000000
vt 1.000000 0.000000
vt 0.000000 1.000000
vt 0.000000 0.000000
vt 1.000000 1.000000
vt 0.000000 1.000000
vt 0.000000 0.000000
vt 1.000000 0.000000
vt 1.000000 1.000000
vn 0.0000 0.0000 1.0000
vn 0.0000 0.0000 -1.0000
vn -1.0000 0.0000 0.0000
vn 1.0000 0.0000 0.0000
vn 0.0000 1.0000 0.0000
vn 0.0000 -1.0000 0.0000
usemtl Front
s off
f 3/1/1 8/2/1 4/3/1
f 3/1/1 7/4/1 8/2/1
usemtl Back
f 5/5/2 2/6/2 6/7/2
f 5/5/2 1/8/2 2/6/2
usemtl Left
f 7/9/3 6/10/3 8/11/3
f 7/9/3 5/12/3 6/10/3
usemtl Right
f 1/13/4 4/14/4 2/15/4
f 1/13/4 3/16/4 4/14/4
usemtl Top
f 5/5/5 3/17/5 1/18/5
f 5/5/5 7/4/5 3/17/5
usemtl Bottom
f 2/19/6 8/2/6 6/7/6
f 2/19/6 4/20/6 8/2/6
