mtllib star.mtl
o Star
v -0.119925 0.173628 0.001026
v 0.119993 0.173576 0.001026
v 0.000108 0.552719 0.001100
v 0.308814 -0.447261 0.001059
v -0.194099 -0.066280 0.001176
v -0.308975 -0.447281 0.001059
v -0.000044 -0.214647 0.001183
v 0.194033 -0.066371 0.001034
v 0.500030 0.170818 0.001063
v -0.499970 0.171049 0.001082
v 0.000128 0.000044 -0.123852
v -0.000007 -0.000129 0.126148
vt 0.949236 0.214776
vt 0.763338 0.510840
vt 0.532399 0.501628
vt 0.604844 0.282563
vt 0.373495 0.000194
vt 0.346330 0.356889
vt 0.017242 0.478742
vt 0.345255 0.631406
vt 0.373070 0.988831
vt 0.602636 0.726737
vt 0.949236 0.825948
vt 0.351704 0.350716
vt 0.540700 0.486208
vt 0.017052 0.486225
vt 0.351656 0.621837
vt 0.378815 0.972564
vt 0.612820 0.705512
vt 0.964250 0.787154
vt 0.774671 0.486366
vt 0.964250 0.185653
vt 0.612918 0.267243
vt 0.379075 0.000000
vn 0.0041 0.5826 0.8128
vn 0.3614 -0.4663 0.8074
vn 0.5748 0.1733 0.7997
vn -0.3542 -0.4707 0.8081
vn 0.3542 -0.4708 0.8080
vn -0.5742 0.1729 0.8003
vn -0.3615 -0.4656 0.8078
vn -0.0038 0.5826 0.8127
vn -0.5722 0.1810 0.7999
vn 0.5723 0.1808 0.7999
vn 0.5717 0.1809 -0.8002
vn -0.5711 0.1810 -0.8007
vn -0.0041 0.5821 -0.8131
vn -0.3611 -0.4657 -0.8079
vn -0.5743 0.1734 -0.8001
vn 0.3548 -0.4707 -0.8078
vn -0.3546 -0.4704 -0.8081
vn 0.5745 0.1731 -0.8000
vn 0.3610 -0.4656 -0.8080
vn 0.0043 0.5821 -0.8131
usemtl StarMaterial
s off
f 9/1/1 2/2/1 12/3/1
f 8/4/2 9/1/2 12/3/2
f 4/5/3 8/4/3 12/3/3
f 7/6/4 4/5/4 12/3/4
f 6/7/5 7/6/5 12/3/5
f 5/8/6 6/7/6 12/3/6
f 10/9/7 5/8/7 12/3/7
f 1/10/8 10/9/8 12/3/8
f 3/11/9 1/10/9 12/3/9
f 2/2/10 3/11/10 12/3/10
f 2/12/11 11/13/11 3/14/11
f 3/14/12 11/13/12 1/15/12
f 1/15/13 11/13/13 10/16/13
f 10/16/14 11/13/14 5/17/14
f 5/17/15 11/13/15 6/18/15
f 6/18/16 11/13/16 7/19/16
f 7/19/17 11/13/17 4/20/17
f 4/20/18 11/13/18 8/21/18
f 8/21/19 11/13/19 9/22/19
f 9/22/20 11/13/20 2/12/20
