

mtllib SciFi_Sign_Bar.mtl
o SM_Sign_Neon_01
v -1.000000 0.467195 0.100000
v -0.932382 0.434390 0.100000
v -0.966191 0.500000 0.100000
v 1.000000 -0.467195 0.100000
v 1.000000 0.467195 0.100000
v 0.932382 0.434390 0.100000
v 0.932382 -0.434390 0.100000
v 0.966191 0.500000 0.100000
v 0.966191 -0.500000 0.100000
v -0.966191 -0.500000 0.100000
v -0.932382 -0.434390 0.100000
v -1.000000 -0.467195 0.100000
v -0.677968 -0.434390 0.100000
v -0.696403 -0.468545 0.100000
v -0.675558 -0.500000 0.100000
v -0.839361 -0.500000 0.100000
v -0.820150 -0.469108 0.100000
v -0.840357 -0.434390 0.100000
v 0.050878 0.337624 0.100000
v 0.001822 0.343297 0.100000
v -0.026624 0.305878 0.100000
v 0.230952 -0.350078 0.100000
v 0.277233 -0.355134 0.100000
v 0.309524 -0.321047 0.100000
v 0.416051 0.341805 0.100000
v 0.372284 0.364046 0.100000
v 0.331976 0.338899 0.100000
v 0.331976 -0.333641 0.100000
v 0.373375 -0.354346 0.100000
v 0.416051 -0.333641 0.100000
v 0.645917 -0.117207 0.100000
v 0.597493 -0.126724 0.100000
v 0.582553 -0.170903 0.100000
v 0.742823 -0.367420 0.100000
v 0.788408 -0.358160 0.100000
v 0.808076 -0.315979 0.100000
v 0.006503 0.186829 0.100000
v -0.026541 0.222467 0.100000
v -0.073352 0.212512 0.100000
v -0.270231 -0.318713 0.100000
v -0.238856 -0.352108 0.100000
v -0.191419 -0.347120 0.100000
v 0.110332 -0.178250 0.100000
v 0.133252 -0.135783 0.100000
v 0.107336 -0.096673 0.100000
v -0.074984 -0.096673 0.100000
v -0.096321 -0.136841 0.100000
v -0.074984 -0.178250 0.100000
v -0.446045 0.346761 0.100000
v -0.489253 0.276781 0.100000
v -0.444241 0.231931 0.100000
v -0.370996 0.271981 0.100000
v -0.447750 -0.003905 0.100000
v -0.490274 0.066467 0.100000
v -0.627060 0.064964 0.100000
v -0.652940 0.033112 0.100000
v -0.627060 -0.006410 0.100000
v -0.428014 0.171341 0.100000
v -0.343940 0.170957 0.100000
v -0.624036 0.351168 0.100000
v -0.652298 0.317831 0.100000
v -0.624036 0.280444 0.100000
v -0.444828 0.110903 0.100000
v -0.371977 0.070185 0.100000
v -0.393380 0.049257 0.100000
v -0.393383 0.049257 0.100000
v -0.447750 -0.003905 0.100000
v -0.384333 -0.067399 0.100000
v -0.311088 -0.027350 0.100000
v -0.388069 -0.339251 0.100000
v -0.430593 -0.268879 0.100000
v -0.627060 -0.270380 0.100000
v -0.652941 -0.302233 0.100000
v -0.627060 -0.341755 0.100000
v -0.368334 -0.140907 0.100000
v -0.284260 -0.141292 0.100000
v -0.378985 -0.212329 0.100000
v -0.306135 -0.253046 0.100000
v -0.674425 0.341805 0.100000
v -0.718192 0.364046 0.100000
v -0.758499 0.338899 0.100000
v -0.758499 -0.333641 0.100000
v -0.717102 -0.354346 0.100000
v -0.674425 -0.333641 0.100000
v 0.698749 0.309495 0.100000
v 0.567574 0.331286 0.100000
v 0.567574 0.260617 0.100000
v 0.656226 0.239123 0.100000
v 0.802559 0.111152 0.100000
v 0.780684 0.223291 0.100000
v 0.707833 0.182573 0.100000
v 0.718485 0.111152 0.100000
v 0.567574 -0.108885 0.100000
v 0.567574 -0.038230 0.100000
v 0.459758 -0.038763 0.100000
v 0.433878 -0.070615 0.100000
v 0.459758 -0.110137 0.100000
v 0.707833 0.039731 0.100000
v 0.780684 -0.000987 0.100000
v 0.656226 -0.016820 0.100000
v 0.698749 -0.087192 0.100000
v 0.459758 0.332538 0.100000
v 0.433878 0.293017 0.100000
v 0.459758 0.261164 0.100000
v -1.000000 0.467195 0.000000
v -0.966191 0.500000 0.000000
v -0.932382 0.434390 0.000000
v 1.000000 -0.467195 -0.000000
v 0.932382 -0.434390 -0.000000
v 0.932382 0.434390 0.000000
v 1.000000 0.467195 0.000000
v 0.966191 0.500000 0.000000
v 0.966191 -0.500000 -0.000000
v -0.966191 -0.500000 -0.000000
v -1.000000 -0.467195 -0.000000
v -0.932382 -0.434390 -0.000000
v -0.677968 -0.434390 -0.000000
v -0.675558 -0.500000 -0.000000
v -0.696403 -0.468545 -0.000000
v -0.840357 -0.434390 -0.000000
v -0.820150 -0.469108 -0.000000
v -0.839361 -0.500000 -0.000000
v 0.050878 0.337624 0.000000
v 0.309524 -0.321047 -0.000000
v 0.277233 -0.355134 -0.000000
v 0.230952 -0.350078 -0.000000
v -0.026624 0.305878 0.000000
v 0.001822 0.343297 0.000000
v 0.416051 0.341805 0.000000
v 0.416051 -0.333641 -0.000000
v 0.373375 -0.354346 -0.000000
v 0.331976 -0.333641 -0.000000
v 0.331976 0.338899 0.000000
v 0.372284 0.364046 0.000000
v 0.645917 -0.117207 -0.000000
v 0.808076 -0.315979 -0.000000
v 0.788408 -0.358160 -0.000000
v 0.742823 -0.367420 -0.000000
v 0.582553 -0.170903 -0.000000
v 0.597493 -0.126724 -0.000000
v 0.006503 0.186829 0.000000
v -0.191419 -0.347120 -0.000000
v -0.238856 -0.352108 -0.000000
v -0.270231 -0.318713 -0.000000
v -0.073352 0.212513 0.000000
v -0.026541 0.222467 0.000000
v 0.110332 -0.178250 -0.000000
v -0.074984 -0.178250 -0.000000
v -0.096321 -0.136841 -0.000000
v -0.074984 -0.096673 -0.000000
v 0.107336 -0.096673 -0.000000
v 0.133252 -0.135783 -0.000000
v -0.446045 0.346761 0.000000
v -0.370996 0.271981 0.000000
v -0.444241 0.231931 0.000000
v -0.489253 0.276781 0.000000
v -0.447750 -0.003905 -0.000000
v -0.627060 -0.006410 -0.000000
v -0.652940 0.033112 0.000000
v -0.627060 0.064964 0.000000
v -0.490274 0.066467 0.000000
v -0.343940 0.170957 0.000000
v -0.428014 0.171341 0.000000
v -0.624036 0.351168 0.000000
v -0.624036 0.280444 0.000000
v -0.652298 0.317831 0.000000
v -0.371977 0.070185 0.000000
v -0.444828 0.110903 0.000000
v -0.393380 0.049257 0.000000
v -0.393383 0.049257 0.000000
v -0.311088 -0.027350 -0.000000
v -0.384333 -0.067399 -0.000000
v -0.447750 -0.003905 -0.000000
v -0.388069 -0.339251 -0.000000
v -0.627060 -0.341755 -0.000000
v -0.652941 -0.302233 -0.000000
v -0.627060 -0.270380 -0.000000
v -0.430593 -0.268879 -0.000000
v -0.284260 -0.141292 -0.000000
v -0.368334 -0.140907 -0.000000
v -0.306135 -0.253046 -0.000000
v -0.378985 -0.212329 -0.000000
v -0.674425 0.341805 0.000000
v -0.674425 -0.333641 -0.000000
v -0.717102 -0.354346 -0.000000
v -0.758499 -0.333641 -0.000000
v -0.758499 0.338899 0.000000
v -0.718192 0.364046 0.000000
v 0.698749 0.309495 0.000000
v 0.656226 0.239123 0.000000
v 0.567574 0.260617 0.000000
v 0.567574 0.331286 0.000000
v 0.802559 0.111152 0.000000
v 0.718485 0.111152 0.000000
v 0.707833 0.182573 0.000000
v 0.780684 0.223291 0.000000
v 0.567574 -0.108885 -0.000000
v 0.459758 -0.110137 -0.000000
v 0.433878 -0.070615 -0.000000
v 0.459758 -0.038763 -0.000000
v 0.567574 -0.038230 -0.000000
v 0.780684 -0.000987 -0.000000
v 0.707833 0.039731 0.000000
v 0.698749 -0.087192 -0.000000
v 0.656226 -0.016820 -0.000000
v 0.459758 0.261164 0.000000
v 0.433878 0.293017 0.000000
v 0.459758 0.332538 0.000000
vt 0.008072 0.025327
vt 0.007947 0.025416
vt 0.008010 0.025371
vt 0.007947 0.025416
vt 0.008088 0.025343
vt 0.007965 0.025434
vt 0.007947 0.025416
vt 0.008088 0.025343
vt 0.007965 0.025434
vt 0.007947 0.025416
vt 0.008072 0.025327
vt 0.008005 0.025374
vt 0.007965 0.025434
vt 0.008088 0.025343
vt 0.008026 0.025389
vt 0.007961 0.025430
vt 0.008088 0.025343
vt 0.007965 0.025434
vt 0.007963 0.025432
vt 0.008087 0.025342
vt 0.007947 0.039238
vt 0.008009 0.039195
vt 0.008072 0.039150
vt 0.007947 0.039238
vt 0.008009 0.039195
vt 0.008072 0.039150
vt 0.007947 0.039238
vt 0.008009 0.039195
vt 0.008072 0.039150
vt 0.007947 0.039238
vt 0.008009 0.039195
vt 0.008072 0.039150
vt 0.007947 0.039238
vt 0.008009 0.039195
vt 0.008072 0.039150
vt 0.008082 0.011054
vt 0.007956 0.011141
vt 0.008080 0.011052
vt 0.007947 0.011132
vt 0.008009 0.011089
vt 0.008072 0.011044
vt 0.007954 0.011140
vt 0.008079 0.011050
vt 0.007957 0.011142
vt 0.008085 0.011057
vt 0.007961 0.011147
vt 0.008077 0.011049
vt 0.007953 0.011138
vt 0.008077 0.011048
vt 0.007951 0.011136
vt 0.008076 0.011047
vt 0.008082 0.011054
vt 0.007956 0.011141
vt 0.008080 0.011052
vt 0.007947 0.011132
vt 0.008009 0.011089
vt 0.008072 0.011044
vt 0.008079 0.011050
vt 0.007953 0.011138
vt 0.008077 0.011049
vt 0.007951 0.011136
vt 0.008076 0.011047
vt 0.007947 0.011132
vt 0.008009 0.011089
vt 0.008072 0.011044
vt 0.008074 0.039152
vt 0.007951 0.039242
vt 0.008076 0.039153
vt 0.008079 0.039156
vt 0.007953 0.039244
vt 0.007954 0.039246
vt 0.008077 0.039155
vt 0.007947 0.039238
vt 0.008009 0.039195
vt 0.008072 0.039150
vt 0.007953 0.039244
vt 0.008077 0.039155
vt 0.007951 0.039242
vt 0.008076 0.039153
vt 0.008074 0.039152
vt 0.008072 0.039150
vt 0.008009 0.039195
vt 0.007947 0.039238
vt 0.008072 0.025327
vt 0.008010 0.025371
vt 0.007947 0.025416
vt 0.008088 0.025343
vt 0.007947 0.025416
vt 0.007965 0.025434
vt 0.008088 0.025343
vt 0.007947 0.025416
vt 0.007965 0.025434
vt 0.007947 0.025416
vt 0.008072 0.025327
vt 0.008005 0.025374
vt 0.007965 0.025434
vt 0.008026 0.025389
vt 0.008088 0.025343
vt 0.007961 0.025430
vt 0.008088 0.025343
vt 0.007965 0.025434
vt 0.008087 0.025342
vt 0.008020 0.025390
vt 0.007963 0.025432
vt 0.007947 0.039238
vt 0.007961 0.039253
vt 0.008085 0.039163
vt 0.007947 0.039238
vt 0.007961 0.039253
vt 0.008072 0.039150
vt 0.007947 0.039238
vt 0.007961 0.039253
vt 0.008072 0.039150
vt 0.007947 0.039238
vt 0.007961 0.039253
vt 0.008072 0.039150
vt 0.007947 0.039238
vt 0.007961 0.039253
vt 0.008072 0.039150
vt 0.008082 0.011054
vt 0.007956 0.011141
vt 0.007957 0.011142
vt 0.008072 0.011044
vt 0.007947 0.011132
vt 0.007951 0.011136
vt 0.008080 0.011052
vt 0.007954 0.011140
vt 0.007961 0.011147
vt 0.008085 0.011057
vt 0.008077 0.011049
vt 0.008079 0.011050
vt 0.008077 0.011048
vt 0.007953 0.011138
vt 0.008076 0.011047
vt 0.008082 0.011054
vt 0.007956 0.011141
vt 0.007957 0.011142
vt 0.008072 0.011044
vt 0.007947 0.011132
vt 0.007951 0.011136
vt 0.008079 0.011050
vt 0.008080 0.011052
vt 0.007953 0.011138
vt 0.007954 0.011140
vt 0.008077 0.011049
vt 0.007947 0.011132
vt 0.007961 0.011147
vt 0.008072 0.011044
vt 0.007951 0.039242
vt 0.008074 0.039152
vt 0.008076 0.039153
vt 0.008079 0.039156
vt 0.007953 0.039244
vt 0.008077 0.039155
vt 0.008072 0.039150
vt 0.008009 0.039195
vt 0.007947 0.039238
vt 0.007953 0.039244
vt 0.007954 0.039246
vt 0.008077 0.039155
vt 0.007951 0.039242
vt 0.008074 0.039152
vt 0.008076 0.039153
vt 0.007947 0.039238
vt 0.008072 0.039150
vt 0.008072 0.025327
vt 0.008072 0.025327
vt 0.008022 0.025386
vt 0.008085 0.025340
vt 0.008085 0.025340
vt 0.008022 0.025386
vt 0.008020 0.025390
vt 0.008022 0.039209
vt 0.008085 0.039163
vt 0.008022 0.039209
vt 0.007961 0.039253
vt 0.008009 0.039195
vt 0.008072 0.039150
vt 0.008022 0.039209
vt 0.008085 0.039163
vt 0.008085 0.039163
vt 0.008022 0.039209
vt 0.007961 0.039253
vt 0.008009 0.039195
vt 0.008022 0.039209
vt 0.008085 0.039163
vt 0.008085 0.039163
vt 0.008022 0.039209
vt 0.007961 0.039253
vt 0.008009 0.039195
vt 0.008022 0.039209
vt 0.008085 0.039163
vt 0.008085 0.039163
vt 0.008022 0.039209
vt 0.007961 0.039253
vt 0.008009 0.039195
vt 0.008022 0.039209
vt 0.008085 0.039163
vt 0.008085 0.039163
vt 0.008022 0.039209
vt 0.007961 0.039253
vt 0.008009 0.039195
vt 0.008009 0.011089
vt 0.008022 0.011103
vt 0.008022 0.011103
vt 0.007957 0.011142
vt 0.008009 0.011089
vt 0.008076 0.011047
vt 0.007954 0.011140
vt 0.008022 0.011103
vt 0.008085 0.011057
vt 0.008085 0.011057
vt 0.008022 0.011103
vt 0.007961 0.011147
vt 0.008009 0.011089
vt 0.007949 0.039240
vt 0.007949 0.039240
vt 0.007948 0.039240
vt 0.007948 0.039240
vt 0.008009 0.039195
vn -0.0000 -0.0000 1.0000
vn -0.0000 0.0000 -1.0000
vn -0.6964 0.7177 0.0000
vn 1.0000 0.0000 0.0000
vn -1.0000 -0.0000 0.0000
vn 0.0000 -1.0000 0.0000
vn 0.0000 1.0000 0.0000
vn 0.6964 -0.7177 0.0000
vn 0.6964 0.7177 0.0000
vn -0.6964 -0.7177 0.0000
vn -0.8800 0.4750 0.0000
vn -0.8336 -0.5524 0.0000
vn 0.8492 -0.5281 0.0000
vn 0.8643 0.5030 0.0000
vn 0.1149 0.9934 0.0000
vn -0.7961 0.6052 0.0000
vn -0.9308 -0.3655 0.0000
vn -0.1086 -0.9941 0.0000
vn 0.7260 -0.6877 0.0000
vn 0.9308 0.3655 0.0000
vn 0.4530 0.8915 0.0000
vn -0.5293 0.8484 0.0000
vn -0.4473 -0.8944 0.0000
vn 0.4365 -0.8997 0.0000
vn -0.1929 0.9812 0.0000
vn -0.9473 0.3204 0.0000
vn -0.7750 -0.6320 0.0000
vn 0.1991 -0.9800 0.0000
vn 0.9063 -0.4226 0.0000
vn 0.7749 0.6321 0.0000
vn 0.7333 0.6799 0.0000
vn -0.2080 0.9781 0.0000
vn -0.9377 0.3475 0.0000
vn -0.7288 -0.6847 0.0000
vn 0.1046 -0.9945 0.0000
vn 0.9377 -0.3476 -0.0000
vn 0.8800 -0.4750 -0.0000
vn 0.8336 0.5524 0.0000
vn -0.8831 0.4691 0.0000
vn -0.8889 -0.4580 0.0000
vn -0.8656 -0.5007 0.0000
vn -0.7058 -0.7084 0.0000
vn 0.7058 0.7084 0.0000
vn 0.8656 0.5007 0.0000
vn -0.0110 0.9999 0.0000
vn -0.7761 0.6306 0.0000
vn -0.8366 -0.5478 -0.0000
vn 0.0140 -0.9999 -0.0000
vn -1.0000 0.0048 0.0000
vn 1.0000 -0.0048 -0.0000
vn -0.7628 0.6466 0.0000
vn -0.7977 -0.6030 -0.0000
vn -0.0272 -0.9996 -0.0000
vn 0.0248 0.9997 0.0000
vn -0.8608 0.5090 0.0000
vn 0.9263 -0.3768 -0.0000
vn 0.9254 -0.3791 -0.0000
vn -0.6991 0.7150 0.0000
vn 0.6991 -0.7150 -0.0000
vn -0.7075 -0.7067 -0.0000
vn 0.6814 0.7320 0.0000
vn -0.0076 1.0000 0.0000
vn 0.0105 -0.9999 0.0000
vn -0.9771 -0.2127 -0.0000
vn -0.9993 -0.0367 -0.0000
vn 0.9734 0.2292 0.0000
vn 0.9998 0.0217 0.0000
vn -0.9891 0.1475 0.0000
vn 0.9814 -0.1921 0.0000
vn -0.7386 0.6741 0.0000
vn 0.7248 -0.6889 0.0000
vn 0.0962 0.9954 -0.0000
vn 0.1639 0.9865 0.0000
vn -0.1113 -0.9938 -0.0000
vn -0.2356 -0.9718 -0.0000
vn 0.9815 0.1915 0.0000
vn -0.9891 -0.1475 -0.0000
vn 0.7248 0.6889 0.0000
vn -0.7387 -0.6741 -0.0000
vn -0.0049 1.0000 0.0000
vn -0.1108 0.9938 0.0000
vn 0.0958 -0.9954 -0.0000
vn 0.0116 -0.9999 -0.0000
vn 0.9815 -0.1915 0.0000
vn -0.7387 0.6741 0.0000
vn -0.2348 0.9721 0.0000
vn 0.1632 -0.9866 -0.0000
vn 0.0116 0.9999 0.0000
vn -0.8366 0.5478 0.0000
vn -0.7761 -0.6306 0.0000
vn -0.0051 -1.0000 0.0000
vn 0.8643 0.5031 0.0000
usemtl Default_OBJ.011
s 1
f 1/1/1 2/2/1 3/3/1
f 5/4/1 7/5/1 4/6/1
f 6/7/1 3/8/1 2/9/1
f 4/6/1 7/5/1 9/10/1
f 6/11/1 5/4/1 8/12/1
f 10/13/1 11/14/1 12/15/1
f 15/16/1 9/10/1 7/5/1
f 2/2/1 12/17/1 11/18/1
f 16/19/1 18/20/1 11/14/1
f 22/21/1 23/22/1 24/23/1
f 28/24/1 29/25/1 30/26/1
f 34/27/1 35/28/1 36/29/1
f 40/30/1 41/31/1 42/32/1
f 46/33/1 47/34/1 48/35/1
f 49/36/1 51/37/1 52/38/1
f 55/39/1 56/40/1 57/41/1
f 52/38/1 58/42/1 59/43/1
f 50/44/1 60/45/1 62/46/1
f 58/42/1 64/47/1 59/43/1
f 63/48/1 65/49/1 64/47/1
f 65/49/1 54/50/1 53/51/1
f 66/52/1 68/53/1 69/54/1
f 72/55/1 73/56/1 74/57/1
f 68/53/1 76/58/1 69/54/1
f 76/58/1 77/59/1 78/60/1
f 78/60/1 71/61/1 70/62/1
f 82/63/1 83/64/1 84/65/1
f 86/66/1 88/67/1 85/68/1
f 89/69/1 91/70/1 92/71/1
f 90/72/1 88/67/1 91/70/1
f 95/73/1 96/74/1 97/75/1
f 89/69/1 98/76/1 99/77/1
f 99/77/1 100/78/1 101/79/1
f 100/78/1 93/80/1 101/79/1
f 102/81/1 103/82/1 104/83/1
f 105/84/2 106/85/2 107/86/2
f 109/87/2 111/88/2 108/89/2
f 106/90/2 110/91/2 107/92/2
f 108/89/2 113/93/2 109/87/2
f 110/94/2 112/95/2 111/88/2
f 114/96/2 115/97/2 116/98/2
f 109/87/2 113/93/2 118/99/2
f 115/100/2 107/86/2 116/101/2
f 120/102/2 121/103/2 122/104/2
f 126/105/2 127/106/2 123/107/2
f 132/108/2 133/109/2 130/110/2
f 138/111/2 139/112/2 136/113/2
f 144/114/2 145/115/2 142/116/2
f 150/117/2 151/118/2 148/119/2
f 153/120/2 155/121/2 156/122/2
f 158/123/2 160/124/2 161/125/2
f 154/126/2 163/127/2 155/121/2
f 165/128/2 164/129/2 156/122/2
f 167/130/2 163/127/2 162/131/2
f 169/132/2 168/133/2 167/130/2
f 169/132/2 157/134/2 161/125/2
f 170/135/2 172/136/2 173/137/2
f 175/138/2 177/139/2 178/140/2
f 179/141/2 172/136/2 171/142/2
f 179/141/2 182/143/2 180/144/2
f 181/145/2 178/140/2 182/143/2
f 186/146/2 187/147/2 184/148/2
f 190/149/2 192/150/2 189/151/2
f 193/152/2 195/153/2 196/154/2
f 196/154/2 190/149/2 189/151/2
f 198/155/2 199/156/2 200/157/2
f 193/152/2 203/158/2 194/159/2
f 202/160/2 205/161/2 203/158/2
f 197/162/2 205/161/2 204/163/2
f 206/164/2 208/165/2 192/150/2
f 106/85/3 1/1/3 3/3/3
f 111/88/4 4/6/4 108/89/4
f 109/87/5 6/11/5 110/94/5
f 110/91/6 2/9/6 107/92/6
f 106/90/7 8/166/7 112/167/7
f 108/89/8 9/10/8 113/93/8
f 112/95/9 5/4/9 111/88/9
f 115/97/10 10/13/10 12/15/10
f 119/168/11 13/169/11 117/170/11
f 118/99/12 14/171/12 119/168/12
f 113/93/6 15/16/6 118/99/6
f 117/170/7 7/5/7 109/87/7
f 107/86/4 11/18/4 116/101/4
f 105/84/5 12/17/5 1/1/5
f 122/104/6 10/13/6 114/96/6
f 121/103/13 16/19/13 122/104/13
f 120/102/14 17/172/14 121/103/14
f 116/98/7 18/20/7 120/102/7
f 128/173/15 19/174/15 123/107/15
f 127/106/16 20/175/16 128/173/16
f 126/105/17 21/176/17 127/106/17
f 125/177/18 22/21/18 126/105/18
f 124/178/19 23/22/19 125/177/19
f 123/107/20 24/23/20 124/178/20
f 134/179/21 25/180/21 129/181/21
f 133/109/22 26/182/22 134/179/22
f 132/108/5 27/183/5 133/109/5
f 131/184/23 28/24/23 132/108/23
f 130/110/24 29/25/24 131/184/24
f 129/181/4 30/26/4 130/110/4
f 140/185/25 31/186/25 135/187/25
f 139/112/26 32/188/26 140/185/26
f 138/111/27 33/189/27 139/112/27
f 137/190/28 34/27/28 138/111/28
f 136/113/29 35/28/29 137/190/29
f 135/187/30 36/29/30 136/113/30
f 146/191/31 37/192/31 141/193/31
f 145/115/32 38/194/32 146/191/32
f 144/114/33 39/195/33 145/115/33
f 143/196/34 40/30/34 144/114/34
f 142/116/35 41/31/35 143/196/35
f 141/193/36 42/32/36 142/116/36
f 152/197/37 43/198/37 147/199/37
f 151/118/38 44/200/38 152/197/38
f 150/117/7 45/201/7 151/118/7
f 149/202/39 46/33/39 150/117/39
f 148/119/40 47/34/40 149/202/40
f 147/199/6 48/35/6 148/119/6
f 155/121/41 50/44/42 156/122/42
f 153/120/43 52/38/44 154/126/44
f 160/124/45 54/50/45 161/125/45
f 159/203/46 55/39/46 160/124/46
f 159/203/47 57/41/47 56/40/47
f 158/123/48 53/51/48 57/41/48
f 163/127/49 51/37/41 155/121/41
f 154/126/44 59/43/50 162/131/50
f 166/204/51 60/45/51 164/129/51
f 165/128/52 61/205/52 166/204/52
f 156/122/53 62/46/53 165/128/53
f 164/129/54 49/36/54 153/120/54
f 168/133/55 58/42/49 163/127/49
f 162/131/50 64/47/56 167/130/57
f 161/125/58 63/48/55 168/133/55
f 167/130/57 65/49/59 169/132/59
f 169/132/59 53/51/59 157/134/59
f 173/137/58 66/52/58 170/135/58
f 173/137/60 68/53/60 67/206/60
f 170/135/61 69/54/61 171/142/61
f 177/139/62 71/61/62 178/140/62
f 176/207/46 72/55/46 177/139/46
f 176/207/47 74/57/47 73/56/47
f 174/208/63 74/57/63 175/138/63
f 172/136/64 75/209/65 68/53/64
f 171/142/66 76/58/67 179/141/67
f 180/144/65 77/59/68 75/209/65
f 179/141/67 78/60/69 181/145/69
f 178/140/70 77/59/70 182/143/70
f 181/145/71 70/62/71 174/208/71
f 188/210/21 79/211/21 183/212/21
f 187/147/22 80/213/22 188/210/22
f 186/146/5 81/214/5 187/147/5
f 185/215/23 82/63/23 186/146/23
f 184/148/24 83/64/24 185/215/24
f 183/212/4 84/65/4 184/148/4
f 192/150/72 85/68/73 189/151/73
f 191/216/74 88/67/75 87/217/74
f 196/154/76 89/69/4 193/152/4
f 195/153/77 92/71/5 91/70/77
f 189/151/78 90/72/78 196/154/78
f 190/149/79 91/70/79 88/67/79
f 200/157/80 94/218/81 201/219/81
f 200/157/46 96/74/46 95/73/46
f 198/155/47 96/74/47 199/156/47
f 197/162/82 97/75/83 198/155/83
f 203/158/68 92/71/5 194/159/5
f 193/152/4 99/77/84 202/160/84
f 203/158/85 100/78/85 98/76/85
f 202/160/71 101/79/71 204/163/71
f 205/161/86 94/218/81 100/78/86
f 197/162/82 101/79/87 93/80/82
f 192/150/72 102/81/88 86/66/72
f 207/220/89 102/81/89 208/165/89
f 207/220/90 104/83/90 103/82/90
f 206/164/91 87/217/74 104/83/91
f 5/4/1 6/11/1 7/5/1
f 6/7/1 8/166/1 3/8/1
f 7/5/1 13/169/1 15/16/1
f 13/169/1 14/171/1 15/16/1
f 2/2/1 1/1/1 12/17/1
f 11/14/1 10/13/1 16/19/1
f 16/19/1 17/172/1 18/20/1
f 24/23/1 19/174/1 22/21/1
f 19/174/1 20/175/1 21/176/1
f 22/21/1 19/174/1 21/176/1
f 30/26/1 25/180/1 27/183/1
f 25/180/1 26/182/1 27/183/1
f 27/183/1 28/24/1 30/26/1
f 36/29/1 31/186/1 33/189/1
f 31/186/1 32/188/1 33/189/1
f 33/189/1 34/27/1 36/29/1
f 42/32/1 37/192/1 39/195/1
f 37/192/1 38/194/1 39/195/1
f 39/195/1 40/30/1 42/32/1
f 48/35/1 43/198/1 45/201/1
f 43/198/1 44/200/1 45/201/1
f 45/201/1 46/33/1 48/35/1
f 49/36/1 50/44/1 51/37/1
f 57/41/1 53/51/1 54/50/1
f 54/50/1 55/39/1 57/41/1
f 52/38/1 51/37/1 58/42/1
f 49/36/1 60/45/1 50/44/1
f 60/45/1 61/205/1 62/46/1
f 58/42/1 63/48/1 64/47/1
f 63/48/1 54/50/1 65/49/1
f 66/52/1 67/206/1 68/53/1
f 74/57/1 70/62/1 71/61/1
f 71/61/1 72/55/1 74/57/1
f 68/53/1 75/209/1 76/58/1
f 76/58/1 75/209/1 77/59/1
f 78/60/1 77/59/1 71/61/1
f 84/65/1 79/211/1 81/214/1
f 79/211/1 80/213/1 81/214/1
f 81/214/1 82/63/1 84/65/1
f 86/66/1 87/217/1 88/67/1
f 89/69/1 90/72/1 91/70/1
f 90/72/1 85/68/1 88/67/1
f 97/75/1 93/80/1 95/73/1
f 93/80/1 94/218/1 95/73/1
f 89/69/1 92/71/1 98/76/1
f 99/77/1 98/76/1 100/78/1
f 100/78/1 94/218/1 93/80/1
f 104/83/1 87/217/1 86/66/1
f 86/66/1 102/81/1 104/83/1
f 109/87/2 110/94/2 111/88/2
f 106/90/2 112/167/2 110/91/2
f 119/168/2 117/170/2 118/99/2
f 117/170/2 109/87/2 118/99/2
f 115/100/2 105/84/2 107/86/2
f 122/104/2 114/96/2 116/98/2
f 116/98/2 120/102/2 122/104/2
f 128/173/2 123/107/2 127/106/2
f 123/107/2 124/178/2 126/105/2
f 124/178/2 125/177/2 126/105/2
f 134/179/2 129/181/2 133/109/2
f 129/181/2 130/110/2 133/109/2
f 130/110/2 131/184/2 132/108/2
f 140/185/2 135/187/2 139/112/2
f 135/187/2 136/113/2 139/112/2
f 136/113/2 137/190/2 138/111/2
f 146/191/2 141/193/2 145/115/2
f 141/193/2 142/116/2 145/115/2
f 142/116/2 143/196/2 144/114/2
f 152/197/2 147/199/2 151/118/2
f 147/199/2 148/119/2 151/118/2
f 148/119/2 149/202/2 150/117/2
f 153/120/2 154/126/2 155/121/2
f 161/125/2 157/134/2 158/123/2
f 158/123/2 159/203/2 160/124/2
f 154/126/2 162/131/2 163/127/2
f 166/204/2 164/129/2 165/128/2
f 164/129/2 153/120/2 156/122/2
f 167/130/2 168/133/2 163/127/2
f 169/132/2 161/125/2 168/133/2
f 170/135/2 171/142/2 172/136/2
f 178/140/2 174/208/2 175/138/2
f 175/138/2 176/207/2 177/139/2
f 179/141/2 180/144/2 172/136/2
f 179/141/2 181/145/2 182/143/2
f 181/145/2 174/208/2 178/140/2
f 188/210/2 183/212/2 187/147/2
f 183/212/2 184/148/2 187/147/2
f 184/148/2 185/215/2 186/146/2
f 190/149/2 191/216/2 192/150/2
f 193/152/2 194/159/2 195/153/2
f 196/154/2 195/153/2 190/149/2
f 201/219/2 197/162/2 200/157/2
f 197/162/2 198/155/2 200/157/2
f 193/152/2 202/160/2 203/158/2
f 202/160/2 204/163/2 205/161/2
f 197/162/2 201/219/2 205/161/2
f 192/150/2 191/216/2 206/164/2
f 206/164/2 207/220/2 208/165/2
f 106/85/3 105/84/3 1/1/3
f 111/88/4 5/4/4 4/6/4
f 109/87/5 7/5/5 6/11/5
f 110/91/6 6/7/6 2/9/6
f 106/90/7 3/8/7 8/166/7
f 108/89/8 4/6/8 9/10/8
f 112/95/9 8/12/9 5/4/9
f 115/97/10 114/96/10 10/13/10
f 119/168/11 14/171/11 13/169/11
f 118/99/12 15/16/12 14/171/12
f 113/93/6 9/10/6 15/16/6
f 117/170/7 13/169/7 7/5/7
f 107/86/4 2/2/4 11/18/4
f 105/84/5 115/100/5 12/17/5
f 122/104/6 16/19/6 10/13/6
f 121/103/13 17/172/13 16/19/13
f 120/102/14 18/20/92 17/172/14
f 116/98/7 11/14/7 18/20/7
f 128/173/15 20/175/15 19/174/15
f 127/106/16 21/176/16 20/175/16
f 126/105/17 22/21/17 21/176/17
f 125/177/18 23/22/18 22/21/18
f 124/178/19 24/23/19 23/22/19
f 123/107/20 19/174/20 24/23/20
f 134/179/21 26/182/21 25/180/21
f 133/109/22 27/183/22 26/182/22
f 132/108/5 28/24/5 27/183/5
f 131/184/23 29/25/23 28/24/23
f 130/110/24 30/26/24 29/25/24
f 129/181/4 25/180/4 30/26/4
f 140/185/25 32/188/25 31/186/25
f 139/112/26 33/189/26 32/188/26
f 138/111/27 34/27/27 33/189/27
f 137/190/28 35/28/28 34/27/28
f 136/113/29 36/29/29 35/28/29
f 135/187/30 31/186/30 36/29/30
f 146/191/31 38/194/31 37/192/31
f 145/115/32 39/195/32 38/194/32
f 144/114/33 40/30/33 39/195/33
f 143/196/34 41/31/34 40/30/34
f 142/116/35 42/32/35 41/31/35
f 141/193/36 37/192/36 42/32/36
f 152/197/37 44/200/37 43/198/37
f 151/118/38 45/201/38 44/200/38
f 150/117/7 46/33/7 45/201/7
f 149/202/39 47/34/39 46/33/39
f 148/119/40 48/35/40 47/34/40
f 147/199/6 43/198/6 48/35/6
f 155/121/41 51/37/41 50/44/42
f 153/120/43 49/36/43 52/38/44
f 160/124/45 55/39/45 54/50/45
f 159/203/46 56/40/46 55/39/46
f 159/203/47 158/123/47 57/41/47
f 158/123/48 157/134/48 53/51/48
f 163/127/49 58/42/49 51/37/41
f 154/126/44 52/38/44 59/43/50
f 166/204/51 61/205/51 60/45/51
f 165/128/52 62/46/52 61/205/52
f 156/122/53 50/44/53 62/46/53
f 164/129/54 60/45/54 49/36/54
f 168/133/55 63/48/55 58/42/49
f 162/131/50 59/43/50 64/47/56
f 161/125/58 54/50/58 63/48/55
f 167/130/57 64/47/56 65/49/59
f 169/132/59 65/49/59 53/51/59
f 173/137/58 67/206/58 66/52/58
f 173/137/60 172/136/60 68/53/60
f 170/135/61 66/52/61 69/54/61
f 177/139/62 72/55/62 71/61/62
f 176/207/46 73/56/46 72/55/46
f 176/207/47 175/138/47 74/57/47
f 174/208/63 70/62/63 74/57/63
f 172/136/64 180/144/65 75/209/65
f 171/142/66 69/54/66 76/58/67
f 180/144/65 182/143/68 77/59/68
f 179/141/67 76/58/67 78/60/69
f 178/140/70 71/61/70 77/59/70
f 181/145/71 78/60/71 70/62/71
f 188/210/21 80/213/21 79/211/21
f 187/147/22 81/214/22 80/213/22
f 186/146/5 82/63/5 81/214/5
f 185/215/23 83/64/23 82/63/23
f 184/148/24 84/65/24 83/64/24
f 183/212/4 79/211/4 84/65/4
f 192/150/72 86/66/72 85/68/73
f 191/216/74 190/149/75 88/67/75
f 196/154/76 90/72/76 89/69/4
f 195/153/77 194/159/5 92/71/5
f 189/151/78 85/68/78 90/72/78
f 190/149/79 195/153/79 91/70/79
f 200/157/80 95/73/80 94/218/81
f 200/157/46 199/156/46 96/74/46
f 198/155/47 97/75/47 96/74/47
f 197/162/82 93/80/82 97/75/83
f 203/158/68 98/76/68 92/71/5
f 193/152/4 89/69/4 99/77/84
f 203/158/85 205/161/85 100/78/85
f 202/160/71 99/77/71 101/79/71
f 205/161/86 201/219/81 94/218/81
f 197/162/82 204/163/87 101/79/87
f 192/150/72 208/165/88 102/81/88
f 207/220/89 103/82/89 102/81/89
f 207/220/90 206/164/90 104/83/90
f 206/164/91 191/216/74 87/217/74
