

mtllib SciFi_Building_Underpass.mtl
o SM_Bld_Underpass_01
v 0.859613 0.922015 -0.821943
v -0.859613 0.922015 -0.821943
v -0.859613 0.922015 -0.884353
v 0.859613 0.922015 -0.884353
v 0.916148 0.859649 -0.884353
v 0.916148 0.859649 -0.821943
v -0.916148 0.859649 -0.821943
v -0.916148 0.859649 -0.884353
v 0.876444 0.951433 -0.795479
v -0.876444 0.951433 -0.795479
v -0.876444 0.951432 -0.910818
v 0.876444 0.951432 -0.910817
v 0.954642 0.871014 -0.910817
v 0.954642 0.871014 -0.795479
v -0.954642 0.871014 -0.795479
v -0.954642 0.871014 -0.910818
v 1.000000 1.000000 1.000000
v 0.876444 1.000000 1.000000
v 0.876444 0.951432 1.000000
v -0.876444 1.000000 1.000000
v -1.000000 1.000000 1.000000
v -0.876444 0.951432 1.000000
v -0.876444 0.951432 -0.999999
v 0.876444 0.951432 -0.999999
v 0.954642 0.871014 1.000000
v 1.000000 0.871014 1.000000
v 0.954642 0.871014 -0.999999
v 1.000000 1.000000 -0.999999
v 1.000000 0.871014 -0.999999
v -1.000000 0.871014 1.000000
v -0.954642 0.871014 1.000000
v -1.000000 1.000000 -0.999999
v -1.000000 0.871014 -0.999999
v -0.954642 0.871014 -0.999999
v 0.859613 0.922015 0.886372
v -0.859613 0.922015 0.886372
v -0.859613 0.922015 0.823961
v 0.859613 0.922015 0.823961
v 0.916148 0.859649 0.823961
v 0.916148 0.859649 0.886372
v -0.916148 0.859649 0.886372
v -0.916148 0.859649 0.823961
v 0.876444 0.951432 0.912835
v -0.876444 0.951432 0.912835
v -0.876444 0.951432 0.797497
v 0.876444 0.951432 0.797497
v 0.954642 0.871014 0.797497
v 0.954642 0.871014 0.912835
v -0.954642 0.871014 0.912835
v -0.954642 0.871014 0.797497
v 0.859613 0.922015 0.294711
v -0.859613 0.922015 0.294711
v -0.859613 0.922015 0.232302
v 0.859613 0.922015 0.232302
v 0.916148 0.859649 0.232301
v 0.916148 0.859649 0.294711
v -0.916148 0.859649 0.294711
v -0.916148 0.859649 0.232301
v 0.876444 0.951432 0.321176
v -0.876444 0.951432 0.321176
v -0.876444 0.951432 0.205837
v 0.876444 0.951432 0.205838
v 0.954642 0.871014 0.205838
v 0.954642 0.871014 0.321176
v -0.954642 0.871014 0.321176
v -0.954642 0.871014 0.205837
v 0.859613 0.922015 -0.320888
v -0.859613 0.922015 -0.320888
v -0.859613 0.922015 -0.383298
v 0.859613 0.922015 -0.383298
v 0.916148 0.859649 -0.383298
v 0.916148 0.859649 -0.320888
v -0.916148 0.859649 -0.320888
v -0.916148 0.859649 -0.383298
v 0.876444 0.951432 -0.294424
v -0.876444 0.951432 -0.294424
v -0.876444 0.951432 -0.409762
v 0.876444 0.951432 -0.409762
v 0.954642 0.871014 -0.409762
v 0.954642 0.871014 -0.294424
v -0.954642 0.871014 -0.294424
v -0.954642 0.871014 -0.409762
v -0.000000 1.000000 -0.016254
vt 0.233261 0.307766
vt 0.233261 0.307766
vt 0.233261 0.307766
vt 0.233261 0.307766
vt 0.233261 0.307766
vt 0.233261 0.307766
vt 0.233261 0.307766
vt 0.233261 0.307766
vt 0.233261 0.307766
vt 0.233261 0.307766
vt 0.233261 0.307766
vt 0.233261 0.307766
vt 0.233261 0.307766
vt 0.233261 0.307766
vt 0.245081 0.277381
vt 0.245081 0.277381
vt 0.245081 0.277381
vt 0.245081 0.277381
vt 0.245081 0.277381
vt 0.245081 0.277381
vt 0.245081 0.277381
vt 0.245081 0.277381
vt 0.245081 0.277381
vt 0.245081 0.277381
vt 0.245081 0.277381
vt 0.245081 0.277381
vt 0.245081 0.277381
vt 0.245081 0.277381
vt 0.245081 0.277381
vt 0.245081 0.277381
vt 0.245081 0.277381
vt 0.245081 0.277381
vt 0.233261 0.307766
vt 0.233261 0.307766
vt 0.233261 0.307766
vt 0.233261 0.307766
vt 0.233261 0.307766
vt 0.233261 0.307766
vt 0.233261 0.307766
vt 0.233261 0.307766
vt 0.233261 0.307766
vt 0.233261 0.307766
vt 0.233261 0.307766
vt 0.233261 0.307766
vt 0.233261 0.307766
vt 0.233261 0.307766
vt 0.233261 0.307766
vt 0.233261 0.307766
vt 0.233261 0.307766
vt 0.233261 0.307766
vt 0.233261 0.307766
vt 0.233261 0.307766
vt 0.233261 0.307766
vt 0.233261 0.307766
vt 0.233261 0.307766
vt 0.233261 0.307766
vt 0.233261 0.307766
vt 0.233261 0.307766
vt 0.233261 0.307766
vt 0.233261 0.307766
vt 0.233261 0.307766
vt 0.233261 0.307766
vt 0.233261 0.307766
vt 0.233261 0.307766
vt 0.233261 0.307766
vt 0.233261 0.307766
vt 0.233261 0.307766
vt 0.233261 0.307766
vt 0.233261 0.307766
vt 0.233261 0.307766
vt 0.233261 0.307766
vt 0.233261 0.307766
vt 0.233261 0.307766
vt 0.233261 0.307766
vt 0.244617 0.277331
vt 0.244617 0.277331
vt 0.244617 0.277331
vt 0.234697 0.253081
vt 0.234697 0.253081
vt 0.234697 0.253081
vt 0.234697 0.253081
vt 0.234697 0.253081
vt 0.234697 0.253081
vt 0.234697 0.253081
vt 0.233261 0.307766
vt 0.233261 0.307766
vt 0.233261 0.307766
vt 0.233261 0.307766
vt 0.233261 0.307766
vt 0.233261 0.307766
vt 0.233261 0.307766
vt 0.233261 0.307766
vt 0.244617 0.277331
vn 0.0000 -1.0000 0.0000
vn -0.7409 -0.6716 0.0000
vn 0.7409 -0.6716 0.0000
vn 0.0410 -0.6307 0.7749
vn -0.0172 -0.6449 0.7641
vn -0.0383 -0.6315 0.7745
vn 0.0410 -0.6307 -0.7749
vn -0.0172 -0.6449 -0.7641
vn 0.0145 -0.6456 -0.7636
vn -0.0383 -0.6315 -0.7745
vn -0.5205 -0.2776 -0.8075
vn -0.5205 -0.2776 0.8075
vn -0.4667 -0.2621 0.8447
vn 0.5205 -0.2776 0.8075
vn 0.0145 -0.6456 0.7636
vn 0.5205 -0.2776 -0.8075
vn 0.4668 -0.2621 -0.8447
vn 0.0000 -0.0000 1.0000
vn -0.7169 -0.6971 0.0000
vn -0.0000 -0.0000 -1.0000
vn 1.0000 -0.0000 0.0000
vn -1.0000 0.0000 0.0000
vn 0.7169 -0.6971 0.0000
vn -0.0410 -0.6307 -0.7749
vn 0.0172 -0.6449 -0.7641
vn 0.0383 -0.6315 -0.7745
vn -0.0145 -0.6456 -0.7636
vn 0.0145 -0.6455 0.7636
vn 0.4667 -0.2621 -0.8447
vn -0.5205 -0.2775 -0.8075
vn 0.0000 1.0000 0.0000
vn -0.4667 -0.2621 -0.8447
vn 0.4667 -0.2621 0.8447
usemtl Default_OBJ.015
s 1
f 2/1/1 4/2/1 1/3/1
f 4/2/2 6/4/2 1/3/2
f 3/5/3 7/6/3 8/7/3
f 10/8/4 1/3/5 9/9/6
f 11/10/7 4/2/8 3/5/9
f 12/11/10 5/12/11 4/2/8
f 9/9/6 6/4/12 14/13/13
f 10/8/4 7/6/14 2/1/15
f 11/10/7 8/7/16 16/14/17
f 17/15/18 18/16/18 19/17/18
f 20/18/18 21/19/18 22/20/18
f 20/18/18 19/17/18 18/16/18
f 22/20/1 24/21/1 19/17/1
f 17/15/18 25/22/18 26/23/18
f 24/21/19 25/22/19 19/17/19
f 28/24/20 27/25/20 24/21/20
f 17/15/21 29/26/21 28/24/21
f 21/19/18 31/27/18 22/20/18
f 32/28/22 30/29/22 21/19/22
f 32/28/20 34/30/20 33/31/20
f 23/32/23 31/27/23 34/30/23
f 36/33/1 38/34/1 35/35/1
f 38/34/2 40/36/2 35/35/2
f 37/37/3 41/38/3 42/39/3
f 44/40/4 35/35/5 43/41/6
f 46/42/24 37/37/25 45/43/26
f 46/42/24 39/44/11 38/34/27
f 43/41/6 40/36/12 48/45/13
f 44/40/4 41/38/14 36/33/28
f 45/43/26 42/39/16 50/46/29
f 52/47/1 54/48/1 51/49/1
f 54/48/2 56/50/2 51/49/2
f 53/51/3 57/52/3 58/53/3
f 60/54/4 51/49/5 59/55/6
f 61/56/7 54/48/8 53/51/9
f 62/57/10 55/58/30 54/48/8
f 59/55/6 56/50/12 64/59/13
f 60/54/4 57/52/14 52/47/15
f 61/56/7 58/53/16 66/60/29
f 68/61/1 70/62/1 67/63/1
f 70/62/2 72/64/2 67/63/2
f 69/65/3 73/66/3 74/67/3
f 76/68/4 67/63/5 75/69/6
f 77/70/7 70/62/8 69/65/9
f 78/71/10 71/72/11 70/62/8
f 75/69/6 72/64/12 80/73/13
f 76/68/4 73/66/14 68/61/15
f 77/70/7 74/67/16 82/74/29
f 28/75/20 23/76/20 32/77/20
f 18/78/31 17/79/31 83/80/31
f 21/81/31 20/82/31 83/80/31
f 20/82/31 18/78/31 83/80/31
f 17/79/31 28/83/31 83/80/31
f 32/84/31 21/81/31 83/80/31
f 28/83/31 32/84/31 83/80/31
f 2/1/1 3/5/1 4/2/1
f 4/2/2 5/12/2 6/4/2
f 3/5/3 2/1/3 7/6/3
f 10/8/4 2/1/15 1/3/5
f 11/10/7 12/11/10 4/2/8
f 12/11/10 13/85/32 5/12/11
f 9/9/6 1/3/5 6/4/12
f 10/8/4 15/86/33 7/6/14
f 11/10/7 3/5/9 8/7/16
f 20/18/18 22/20/18 19/17/18
f 22/20/1 23/32/1 24/21/1
f 17/15/18 19/17/18 25/22/18
f 24/21/19 27/25/19 25/22/19
f 28/24/20 29/26/20 27/25/20
f 17/15/21 26/23/21 29/26/21
f 21/19/18 30/29/18 31/27/18
f 32/28/22 33/31/22 30/29/22
f 32/28/20 23/32/20 34/30/20
f 23/32/23 22/20/23 31/27/23
f 36/33/1 37/37/1 38/34/1
f 38/34/2 39/44/2 40/36/2
f 37/37/3 36/33/3 41/38/3
f 44/40/4 36/33/28 35/35/5
f 46/42/24 38/34/27 37/37/25
f 46/42/24 47/87/32 39/44/11
f 43/41/6 35/35/5 40/36/12
f 44/40/4 49/88/33 41/38/14
f 45/43/26 37/37/25 42/39/16
f 52/47/1 53/51/1 54/48/1
f 54/48/2 55/58/2 56/50/2
f 53/51/3 52/47/3 57/52/3
f 60/54/4 52/47/15 51/49/5
f 61/56/7 62/57/10 54/48/8
f 62/57/10 63/89/32 55/58/30
f 59/55/6 51/49/5 56/50/12
f 60/54/4 65/90/33 57/52/14
f 61/56/7 53/51/9 58/53/16
f 68/61/1 69/65/1 70/62/1
f 70/62/2 71/72/2 72/64/2
f 69/65/3 68/61/3 73/66/3
f 76/68/4 68/61/15 67/63/5
f 77/70/7 78/71/10 70/62/8
f 78/71/10 79/91/32 71/72/11
f 75/69/6 67/63/5 72/64/12
f 76/68/4 81/92/33 73/66/14
f 77/70/7 69/65/9 74/67/16
f 28/75/20 24/93/20 23/76/20
o SM_Bld_Underpass_01.001
v 0.916148 0.859649 -0.884353
v 0.916148 0.859649 -0.821943
v 0.911316 0.061238 -0.884353
v 0.911316 0.061238 -0.821943
v 0.954642 0.871014 -0.910817
v 0.954642 0.871014 -0.795479
v 0.954642 0.061238 -0.910817
v 0.954642 0.061238 -0.795479
v 1.000000 0.000000 1.000000
v 0.954642 0.000000 1.000000
v 0.954642 -0.000000 -0.999999
v 1.000000 -0.000000 -0.999999
v 0.954642 0.871014 1.000000
v 1.000000 0.871014 1.000000
v 0.954642 0.871014 -0.999999
v 1.000000 0.871014 -0.999999
v 0.954642 0.108603 1.000001
v 1.000000 0.108603 1.000000
v 0.954642 0.108603 -0.999999
v 1.000000 0.108603 -0.999999
v 0.896747 0.072337 1.000000
v 0.896747 0.072336 -0.999999
v 0.896747 -0.000000 -0.999999
v 0.896747 0.000000 1.000000
v 0.916148 0.859649 0.823961
v 0.916148 0.859649 0.886372
v 0.911316 0.061238 0.823960
v 0.911316 0.061238 0.886371
v 0.954642 0.871014 0.797497
v 0.954642 0.871014 0.912835
v 0.954642 0.061238 0.797496
v 0.954642 0.061238 0.912835
v 0.916148 0.859649 0.232301
v 0.916148 0.859649 0.294711
v 0.911316 0.061238 0.232300
v 0.911316 0.061238 0.294711
v 0.954642 0.871014 0.205838
v 0.954642 0.871014 0.321176
v 0.954642 0.061238 0.205838
v 0.954642 0.061238 0.321176
v 0.916148 0.859649 -0.383298
v 0.916148 0.859649 -0.320888
v 0.911316 0.061238 -0.383298
v 0.911316 0.061238 -0.320889
v 0.954642 0.871014 -0.409762
v 0.954642 0.871014 -0.294424
v 0.954642 0.061238 -0.409762
v 0.954642 0.061238 -0.294424
vt 0.233261 0.307766
vt 0.233261 0.307766
vt 0.233261 0.307766
vt 0.233261 0.307766
vt 0.233261 0.307766
vt 0.233261 0.307766
vt 0.245081 0.277381
vt 0.245081 0.277381
vt 0.245081 0.277381
vt 0.245081 0.277381
vt 0.245081 0.277381
vt 0.245081 0.277381
vt 0.245081 0.277381
vt 0.245081 0.277381
vt 0.245081 0.277381
vt 0.245081 0.277381
vt 0.245081 0.277381
vt 0.245081 0.277381
vt 0.245081 0.277381
vt 0.245081 0.277381
vt 0.245081 0.277381
vt 0.245081 0.277381
vt 0.233261 0.307766
vt 0.233261 0.307766
vt 0.233261 0.307766
vt 0.233261 0.307766
vt 0.233261 0.307766
vt 0.233261 0.307766
vt 0.233261 0.307766
vt 0.233261 0.307766
vt 0.233261 0.307766
vt 0.233261 0.307766
vt 0.233261 0.307766
vt 0.233261 0.307766
vt 0.233261 0.307766
vt 0.233261 0.307766
vt 0.233261 0.307766
vt 0.233261 0.307766
vt 0.233261 0.307766
vt 0.233261 0.307766
vt 0.233261 0.307766
vt 0.233261 0.307766
vt 0.233261 0.307766
vt 0.233261 0.307766
vt 0.233261 0.307766
vt 0.233261 0.307766
vt 0.233261 0.307766
vt 0.233261 0.307766
vn -1.0000 0.0061 -0.0000
vn -0.5230 0.0030 -0.8523
vn -0.4235 0.0076 -0.9059
vn -0.6872 0.0519 -0.7246
vn -0.5230 0.0030 0.8523
vn -0.4235 0.0076 0.9059
vn -0.5213 0.0032 0.8534
vn 0.0000 -1.0000 0.0000
vn 0.0000 -0.0000 1.0000
vn -1.0000 -0.0000 0.0000
vn 0.0000 0.0000 -1.0000
vn 1.0000 0.0000 0.0000
vn -0.5309 0.8475 -0.0000
vn -0.5230 0.0030 -0.8524
vn -0.6872 0.0520 -0.7246
vn -0.5213 0.0032 -0.8534
vn -0.6872 0.0519 0.7246
vn -0.5212 0.0032 -0.8534
usemtl Default_OBJ.015
s 1
f 84/94/34 87/95/34 85/96/34
f 90/97/35 84/94/36 88/98/37
f 91/99/38 85/96/39 87/95/40
f 93/100/41 95/101/41 92/102/41
f 96/103/42 101/104/42 97/105/42
f 96/103/43 102/106/43 100/107/43
f 99/108/44 102/106/44 98/109/44
f 97/105/45 103/110/45 99/108/45
f 100/107/42 92/102/42 101/104/42
f 101/104/45 95/101/45 103/110/45
f 103/110/44 94/111/44 102/106/44
f 105/112/43 107/113/43 104/114/43
f 102/106/46 104/114/46 100/107/46
f 94/111/44 105/112/44 102/106/44
f 93/100/41 106/115/41 94/111/41
f 93/100/42 104/114/42 107/113/42
f 108/116/34 111/117/34 109/118/34
f 114/119/35 108/116/36 112/120/37
f 115/121/38 109/118/39 111/117/40
f 116/122/34 119/123/34 117/124/34
f 122/125/47 116/122/36 120/126/48
f 123/127/38 117/124/39 119/123/40
f 124/128/34 127/129/34 125/130/34
f 130/131/35 124/128/36 128/132/37
f 131/133/38 125/130/39 127/129/40
f 84/94/34 86/134/34 87/95/34
f 90/97/35 86/134/49 84/94/36
f 91/99/38 89/135/50 85/96/39
f 93/100/41 94/111/41 95/101/41
f 96/103/42 100/107/42 101/104/42
f 96/103/43 98/109/43 102/106/43
f 99/108/44 103/110/44 102/106/44
f 97/105/45 101/104/45 103/110/45
f 100/107/42 93/100/42 92/102/42
f 101/104/45 92/102/45 95/101/45
f 103/110/44 95/101/44 94/111/44
f 105/112/43 106/115/43 107/113/43
f 102/106/46 105/112/46 104/114/46
f 94/111/44 106/115/44 105/112/44
f 93/100/41 107/113/41 106/115/41
f 93/100/42 100/107/42 104/114/42
f 108/116/34 110/136/34 111/117/34
f 114/119/35 110/136/49 108/116/36
f 115/121/38 113/137/50 109/118/39
f 116/122/34 118/138/34 119/123/34
f 122/125/47 118/138/51 116/122/36
f 123/127/38 121/139/50 117/124/39
f 124/128/34 126/140/34 127/129/34
f 130/131/35 126/140/49 124/128/36
f 131/133/38 129/141/50 125/130/39
o SM_Bld_Underpass_01.002
v -0.916148 0.859649 -0.821943
v -0.916148 0.859649 -0.884353
v -0.911316 0.061238 -0.821943
v -0.911316 0.061238 -0.884353
v -0.954642 0.871014 -0.795479
v -0.954642 0.871014 -0.910818
v -0.954642 0.061238 -0.795479
v -0.954642 0.061238 -0.910818
v -0.954642 0.000000 1.000000
v -1.000000 0.000000 1.000000
v -1.000000 -0.000000 -0.999999
v -0.954642 -0.000000 -0.999999
v -1.000000 0.871014 1.000000
v -0.954642 0.871014 1.000000
v -1.000000 0.871014 -0.999999
v -0.954642 0.871014 -0.999999
v -1.000000 0.108603 1.000001
v -0.954642 0.108603 1.000001
v -1.000000 0.108603 -0.999999
v -0.954642 0.108603 -0.999999
v -0.896747 0.072336 -0.999999
v -0.896747 0.072337 1.000000
v -0.896747 0.000000 1.000000
v -0.896747 -0.000000 -0.999999
v -0.916148 0.859649 0.886372
v -0.916148 0.859649 0.823961
v -0.911316 0.061238 0.886371
v -0.911316 0.061238 0.823960
v -0.954642 0.871014 0.912835
v -0.954642 0.871014 0.797497
v -0.954642 0.061238 0.912835
v -0.954642 0.061238 0.797496
v -0.916148 0.859649 0.294711
v -0.916148 0.859649 0.232301
v -0.911316 0.061238 0.294711
v -0.911316 0.061238 0.232300
v -0.954642 0.871014 0.321176
v -0.954642 0.871014 0.205837
v -0.954642 0.061238 0.321176
v -0.954642 0.061238 0.205836
v -0.916148 0.859649 -0.320888
v -0.916148 0.859649 -0.383298
v -0.911316 0.061238 -0.320889
v -0.911316 0.061238 -0.383298
v -0.954642 0.871014 -0.294424
v -0.954642 0.871014 -0.409762
v -0.954642 0.061238 -0.294424
v -0.954642 0.061238 -0.409762
vt 0.233261 0.307766
vt 0.233261 0.307766
vt 0.233261 0.307766
vt 0.233261 0.307766
vt 0.233261 0.307766
vt 0.233261 0.307766
vt 0.233261 0.307766
vt 0.245081 0.277381
vt 0.245081 0.277381
vt 0.245081 0.277381
vt 0.245081 0.277381
vt 0.245081 0.277381
vt 0.245081 0.277381
vt 0.245081 0.277381
vt 0.245081 0.277381
vt 0.245081 0.277381
vt 0.245081 0.277381
vt 0.245081 0.277381
vt 0.245081 0.277381
vt 0.245081 0.277381
vt 0.245081 0.277381
vt 0.245081 0.277381
vt 0.245081 0.277381
vt 0.233261 0.307766
vt 0.233261 0.307766
vt 0.233261 0.307766
vt 0.233261 0.307766
vt 0.233261 0.307766
vt 0.233261 0.307766
vt 0.233261 0.307766
vt 0.233261 0.307766
vt 0.233261 0.307766
vt 0.233261 0.307766
vt 0.233261 0.307766
vt 0.233261 0.307766
vt 0.233261 0.307766
vt 0.233261 0.307766
vt 0.233261 0.307766
vt 0.233261 0.307766
vt 0.233261 0.307766
vt 0.233261 0.307766
vt 0.233261 0.307766
vt 0.233261 0.307766
vt 0.233261 0.307766
vt 0.233261 0.307766
vt 0.233261 0.307766
vt 0.233261 0.307766
vt 0.233261 0.307766
vn 1.0000 0.0061 -0.0000
vn 0.5230 0.0030 0.8523
vn 0.4235 0.0076 0.9059
vn 0.6872 0.0519 0.7246
vn 0.5230 0.0030 -0.8523
vn 0.4235 0.0076 -0.9058
vn 0.5213 0.0032 -0.8534
vn 0.0000 -1.0000 0.0000
vn 0.0000 0.0000 1.0000
vn -1.0000 0.0000 0.0000
vn 0.0000 0.0000 -1.0000
vn 1.0000 -0.0000 0.0000
vn 0.5309 0.8475 -0.0000
vn 0.4235 0.0076 -0.9059
vn 0.5213 0.0032 0.8534
vn 0.6872 0.0519 -0.7246
vn 0.6872 0.0520 -0.7246
usemtl Default_OBJ.015
s 1
f 133/142/52 134/143/52 135/144/52
f 138/145/53 132/146/54 136/147/55
f 139/148/56 133/142/57 135/144/58
f 141/149/59 143/150/59 140/151/59
f 144/152/60 149/153/60 145/154/60
f 144/152/61 150/155/61 148/156/61
f 147/157/62 150/155/62 146/158/62
f 145/154/63 151/159/63 147/157/63
f 153/160/63 155/161/63 152/162/63
f 151/159/62 142/163/62 150/155/62
f 150/155/61 141/149/61 148/156/61
f 148/156/60 140/151/60 149/153/60
f 151/159/64 153/160/64 152/162/64
f 140/151/60 153/160/60 149/153/60
f 143/150/59 154/164/59 140/151/59
f 143/150/62 152/162/62 155/161/62
f 157/165/52 158/166/52 159/167/52
f 162/168/53 156/169/54 160/170/55
f 163/171/56 157/165/65 159/167/58
f 165/172/52 166/173/52 167/174/52
f 170/175/53 164/176/54 168/177/55
f 171/178/56 165/172/65 167/174/58
f 173/179/52 174/180/52 175/181/52
f 178/182/53 172/183/54 176/184/55
f 179/185/56 173/179/65 175/181/58
f 133/142/52 132/146/52 134/143/52
f 138/145/53 134/143/66 132/146/54
f 139/148/56 137/186/67 133/142/57
f 141/149/59 142/163/59 143/150/59
f 144/152/60 148/156/60 149/153/60
f 144/152/61 146/158/61 150/155/61
f 147/157/62 151/159/62 150/155/62
f 145/154/63 149/153/63 151/159/63
f 153/160/63 154/164/63 155/161/63
f 151/159/62 143/150/62 142/163/62
f 150/155/61 142/163/61 141/149/61
f 148/156/60 141/149/60 140/151/60
f 151/159/64 149/153/64 153/160/64
f 140/151/60 154/164/60 153/160/60
f 143/150/59 155/161/59 154/164/59
f 143/150/62 151/159/62 152/162/62
f 157/165/52 156/169/52 158/166/52
f 162/168/53 158/166/66 156/169/54
f 163/171/56 161/187/67 157/165/65
f 165/172/52 164/176/52 166/173/52
f 170/175/53 166/173/66 164/176/54
f 171/178/56 169/188/68 165/172/65
f 173/179/52 172/183/52 174/180/52
f 178/182/53 174/180/66 172/183/54
f 179/185/56 177/189/67 173/179/65
