

mtllib SciFi_Icon_Health.mtl
o SM_Icon_Health
v -0.162447 0.162447 0.075000
v 0.162447 0.162447 0.075000
v 0.162447 0.473981 0.075000
v -0.162447 0.473981 0.075000
v -0.137917 0.500000 0.075000
v 0.137917 0.500000 0.075000
v 0.137917 0.500000 -0.075000
v -0.137917 0.500000 -0.075000
v -0.162447 0.162447 -0.075000
v 0.162447 0.162447 -0.075000
v 0.162447 -0.162447 -0.075000
v -0.162447 -0.162447 -0.075000
v 0.162447 0.473981 -0.075000
v -0.162447 0.473981 -0.075000
v 0.500000 -0.137963 0.075000
v 0.500000 0.137962 0.075000
v 0.474028 0.162447 0.075000
v 0.474028 -0.162447 0.075000
v -0.500000 -0.137963 0.075000
v -0.500000 0.137962 0.075000
v -0.500000 0.137963 -0.075000
v -0.500000 -0.137962 -0.075000
v 0.474028 -0.162447 -0.075000
v 0.474028 0.162447 -0.075000
v 0.500000 0.137963 -0.075000
v 0.500000 -0.137962 -0.075000
v -0.162447 -0.162447 0.075000
v -0.474028 0.162447 0.075000
v -0.474028 -0.162447 0.075000
v -0.474028 -0.162447 -0.075000
v -0.474028 0.162447 -0.075000
v -0.137917 -0.500000 0.075000
v 0.137917 -0.500000 0.075000
v 0.162447 -0.473981 0.075000
v -0.162447 -0.473981 0.075000
v -0.162447 -0.473981 -0.075000
v 0.162447 -0.473981 -0.075000
v 0.137917 -0.500000 -0.075000
v -0.137917 -0.500000 -0.075000
v 0.162447 -0.162447 0.075000
vt 0.360139 0.025918
vt 0.359055 0.026461
vt 0.359055 0.025918
vt 0.360139 0.027003
vt 0.359055 0.028088
vt 0.359055 0.027003
vt 0.360139 0.029172
vt 0.359055 0.028359
vt 0.359055 0.029172
vt 0.361224 0.026461
vt 0.360139 0.026461
vt 0.357970 0.026461
vt 0.357970 0.025918
vt 0.360139 0.025918
vt 0.359188 0.026054
vt 0.359055 0.025918
vt 0.360139 0.027003
vt 0.359055 0.028088
vt 0.359055 0.027003
vt 0.360139 0.029037
vt 0.359055 0.029172
vt 0.359201 0.029037
vt 0.360139 0.030257
vt 0.359055 0.030257
vt 0.361224 0.026054
vt 0.360139 0.026054
vt 0.357970 0.025918
vt 0.357970 0.026054
vt 0.360139 0.026732
vt 0.359055 0.026867
vt 0.359055 0.026732
vt 0.357970 0.026867
vt 0.357970 0.026732
vt 0.361224 0.026732
vt 0.360139 0.026867
vt 0.360139 0.025918
vt 0.359055 0.026461
vt 0.359055 0.025918
vt 0.360024 0.028630
vt 0.359055 0.029172
vt 0.359055 0.028630
vt 0.360139 0.029172
vt 0.359055 0.030257
vt 0.361224 0.025918
vt 0.360001 0.026461
vt 0.357970 0.026461
vt 0.357970 0.025918
vt 0.360139 0.028223
vt 0.359055 0.028223
vt 0.360139 0.028630
vt 0.359055 0.028630
vt 0.359619 0.025918
vt 0.357970 0.027003
vt 0.360139 0.028088
vt 0.361224 0.026867
vt 0.357970 0.027003
vt 0.360139 0.028088
vt 0.359322 0.026189
vt 0.357970 0.026189
vt 0.360139 0.028901
vt 0.359348 0.028901
vt 0.360139 0.026189
vt 0.359055 0.027003
vt 0.357970 0.027003
vt 0.359909 0.028088
vt 0.359055 0.028088
vt 0.361224 0.026461
vt 0.359862 0.027003
vt 0.359637 0.028359
vt 0.361224 0.025918
vt 0.360139 0.029172
vt 0.361224 0.025918
vt 0.360139 0.030257
vt 0.360139 0.028359
vt 0.361224 0.027003
vt 0.361224 0.027003
vt 0.361224 0.026189
vt 0.361224 0.027003
vn 0.0000 -0.0000 1.0000
vn 0.0000 1.0000 0.0000
vn 0.0000 0.0000 -1.0000
vn 1.0000 0.0000 0.0000
vn -1.0000 0.0000 0.0000
vn 0.6860 0.7276 0.0000
vn 0.6860 -0.7276 -0.0000
vn 0.0000 -1.0000 -0.0000
vn 0.7276 -0.6860 0.0000
vn -0.7276 -0.6860 0.0000
vn -0.6860 -0.7276 -0.0000
vn -0.6860 0.7276 0.0000
vn -0.7276 0.6860 0.0000
vn 0.7276 0.6860 0.0000
usemtl Default_OBJ.005
s 1
f 2/1/1 4/2/1 1/3/1
f 6/4/2 8/5/2 5/6/2
f 10/7/3 12/8/3 9/9/3
f 2/1/4 13/10/4 3/11/4
f 1/3/5 14/12/5 9/13/5
f 16/14/1 18/15/1 15/16/1
f 20/17/5 22/18/5 19/19/5
f 24/20/3 26/21/3 23/22/3
f 26/21/4 16/23/4 15/24/4
f 16/14/6 24/25/6 17/26/6
f 26/27/7 18/15/7 23/28/7
f 1/29/1 29/30/1 27/31/1
f 27/31/8 30/32/8 12/33/8
f 9/34/2 28/35/2 1/29/2
f 33/36/1 35/37/1 32/38/1
f 37/39/3 39/40/3 36/41/3
f 38/42/8 32/43/8 39/40/8
f 38/44/9 34/45/9 33/36/9
f 32/38/10 36/46/10 39/47/10
f 31/48/3 12/8/3 30/49/3
f 13/50/3 9/9/3 14/51/3
f 2/1/1 27/31/1 40/52/1
f 28/35/1 19/19/1 29/30/1
f 29/30/11 22/53/11 30/32/11
f 21/54/3 30/49/3 22/18/3
f 31/55/12 20/17/12 28/35/12
f 4/2/13 8/56/13 14/12/13
f 7/57/3 14/51/3 8/5/3
f 13/10/14 6/4/14 3/11/14
f 3/11/1 5/6/1 4/2/1
f 17/26/1 40/58/1 18/15/1
f 18/15/8 11/59/8 23/28/8
f 10/60/3 23/22/3 11/61/3
f 24/25/2 2/62/2 17/26/2
f 34/45/1 27/63/1 35/37/1
f 35/37/5 12/64/5 36/46/5
f 11/65/3 36/41/3 12/66/3
f 37/67/4 40/68/4 34/45/4
f 2/1/1 3/11/1 4/2/1
f 6/4/2 7/57/2 8/5/2
f 10/7/3 11/69/3 12/8/3
f 2/1/4 10/70/4 13/10/4
f 1/3/5 4/2/5 14/12/5
f 16/14/1 17/26/1 18/15/1
f 20/17/5 21/54/5 22/18/5
f 24/20/3 25/71/3 26/21/3
f 26/21/4 25/71/4 16/23/4
f 16/14/6 25/72/6 24/25/6
f 26/27/7 15/16/7 18/15/7
f 1/29/1 28/35/1 29/30/1
f 27/31/8 29/30/8 30/32/8
f 9/34/2 31/55/2 28/35/2
f 33/36/1 34/45/1 35/37/1
f 37/39/3 38/42/3 39/40/3
f 38/42/8 33/73/8 32/43/8
f 38/44/9 37/67/9 34/45/9
f 32/38/10 35/37/10 36/46/10
f 31/48/3 9/74/3 12/8/3
f 13/50/3 10/7/3 9/9/3
f 2/1/1 1/29/1 27/31/1
f 28/35/1 20/17/1 19/19/1
f 29/30/11 19/19/11 22/53/11
f 21/54/3 31/48/3 30/49/3
f 31/55/12 21/75/12 20/17/12
f 4/2/13 5/6/13 8/56/13
f 7/57/3 13/50/3 14/51/3
f 13/10/14 7/76/14 6/4/14
f 3/11/1 6/4/1 5/6/1
f 17/26/1 2/62/1 40/58/1
f 18/15/8 40/58/8 11/59/8
f 10/60/3 24/20/3 23/22/3
f 24/25/2 10/77/2 2/62/2
f 34/45/1 40/68/1 27/63/1
f 35/37/5 27/63/5 12/64/5
f 11/65/3 37/39/3 36/41/3
f 37/67/4 11/78/4 40/68/4
