

mtllib SciFi_Sign_Dog.mtl
o SM_Sign_Neon_03
v 0.174181 0.549213 0.025000
v 0.066572 0.559515 0.025000
v 0.077872 0.532952 0.025000
v 0.158606 0.523049 0.025000
v 0.442230 -0.268636 0.025000
v 0.440536 -0.351053 0.025000
v 0.469842 -0.371841 0.025000
v 0.476312 -0.261619 0.025000
v 0.368115 -0.402806 0.025000
v 0.373240 -0.440486 0.025000
v 0.165924 -0.283927 0.025000
v 0.288386 -0.418343 0.025000
v 0.300711 -0.384658 0.025000
v 0.191300 -0.260607 0.025000
v -0.035383 -0.152126 0.025000
v 0.101379 -0.154787 0.025000
v 0.119102 -0.114233 0.025000
v -0.037317 -0.107307 0.025000
v 0.244640 0.122594 0.025000
v 0.242307 -0.023947 0.025000
v 0.270823 -0.011650 0.025000
v 0.275356 0.120837 0.025000
v 0.357167 -0.104862 0.025000
v 0.331378 -0.120185 0.025000
v -0.347455 0.327020 0.025000
v -0.391934 0.306612 0.025000
v -0.366180 0.287251 0.025000
v -0.350416 0.295285 0.025000
v 0.009008 0.028138 0.025000
v 0.118278 0.102784 0.025000
v 0.092138 0.122253 0.025000
v -0.000325 0.055546 0.025000
v 0.149556 0.245716 0.025000
v 0.115037 0.241736 0.025000
v 0.067337 0.338628 0.025000
v 0.033323 0.328095 0.025000
v 0.039269 0.466777 0.025000
v 0.010751 0.467952 0.025000
v 0.266430 0.344272 0.025000
v 0.250171 0.412877 0.025000
v 0.222677 0.398776 0.025000
v 0.247697 0.311801 0.025000
v -0.120915 0.062356 0.025000
v -0.135871 0.033243 0.025000
v -0.180717 0.164369 0.025000
v -0.201691 0.141679 0.025000
v -0.286920 0.235715 0.025000
v -0.297173 0.203597 0.025000
v -0.301263 0.268155 0.025000
v -0.320416 0.251525 0.025000
v -0.277653 -0.023527 0.025000
v -0.323059 0.044927 0.025000
v -0.347166 0.036725 0.025000
v -0.306184 -0.015126 0.025000
v -0.345649 0.157690 0.025000
v -0.369914 0.157151 0.025000
v -0.350455 0.234113 0.025000
v -0.374116 0.227884 0.025000
v -0.341303 -0.084319 0.025000
v -0.366600 -0.070382 0.025000
v -0.429346 -0.211853 0.025000
v -0.459442 -0.201986 0.025000
v -0.482492 -0.363073 0.025000
v -0.451933 -0.354981 0.025000
v -0.426677 -0.403587 0.025000
v -0.451930 -0.434239 0.025000
v -0.209430 -0.113115 0.025000
v -0.183464 -0.142723 0.025000
v -0.325077 -0.425461 0.025000
v -0.236277 -0.269891 0.025000
v -0.267500 -0.257478 0.025000
v -0.346576 -0.399671 0.025000
v -0.368625 -0.439543 0.025000
v -0.372494 -0.425272 0.025000
v 0.416911 0.225574 0.025000
v 0.281497 0.209236 0.025000
v 0.301492 0.180111 0.025000
v 0.423370 0.192064 0.025000
v 0.372539 0.367265 0.025000
v 0.362385 0.397902 0.025000
v 0.554869 0.404044 0.025000
v 0.499432 0.424871 0.025000
v 0.501718 0.392090 0.025000
v 0.546919 0.372470 0.025000
v 0.558742 0.247525 0.025000
v 0.536524 0.272299 0.025000
v 0.645047 0.425195 0.025000
v 0.618689 0.401941 0.025000
v 0.667508 0.376107 0.025000
v 0.630810 0.376787 0.025000
v 0.590597 0.327647 0.025000
v 0.565725 0.344744 0.025000
v -0.432407 -0.433070 0.025000
v -0.424554 -0.421796 0.025000
v 0.174181 0.549213 0.000000
v 0.158606 0.523049 0.000000
v 0.077872 0.532952 0.000000
v 0.066572 0.559515 0.000000
v 0.442230 -0.268636 -0.000000
v 0.476312 -0.261619 -0.000000
v 0.469842 -0.371841 -0.000000
v 0.440536 -0.351053 -0.000000
v 0.368115 -0.402806 -0.000000
v 0.373240 -0.440486 -0.000000
v 0.165924 -0.283927 -0.000000
v 0.191300 -0.260607 -0.000000
v 0.300711 -0.384658 -0.000000
v 0.288386 -0.418343 -0.000000
v -0.035383 -0.152126 -0.000000
v -0.037317 -0.107307 -0.000000
v 0.119102 -0.114233 -0.000000
v 0.101379 -0.154787 -0.000000
v 0.244640 0.122594 0.000000
v 0.275356 0.120837 0.000000
v 0.270823 -0.011650 -0.000000
v 0.242307 -0.023947 -0.000000
v 0.331378 -0.120185 -0.000000
v 0.357167 -0.104862 -0.000000
v -0.347455 0.327020 0.000000
v -0.350416 0.295285 0.000000
v -0.366180 0.287251 0.000000
v -0.391934 0.306612 0.000000
v 0.009008 0.028138 0.000000
v -0.000325 0.055546 0.000000
v 0.092138 0.122253 0.000000
v 0.118278 0.102784 0.000000
v 0.115037 0.241736 0.000000
v 0.149556 0.245716 0.000000
v 0.033323 0.328095 0.000000
v 0.067337 0.338628 0.000000
v 0.010751 0.467952 0.000000
v 0.039269 0.466777 0.000000
v 0.266430 0.344272 0.000000
v 0.247697 0.311801 0.000000
v 0.222677 0.398776 0.000000
v 0.250171 0.412877 0.000000
v -0.135871 0.033243 0.000000
v -0.120915 0.062356 0.000000
v -0.201691 0.141679 0.000000
v -0.180717 0.164369 0.000000
v -0.297173 0.203597 0.000000
v -0.286920 0.235715 0.000000
v -0.301263 0.268155 0.000000
v -0.320416 0.251525 0.000000
v -0.277653 -0.023527 -0.000000
v -0.306184 -0.015126 -0.000000
v -0.347166 0.036725 0.000000
v -0.323059 0.044927 0.000000
v -0.369914 0.157151 0.000000
v -0.345649 0.157690 0.000000
v -0.374116 0.227884 0.000000
v -0.350455 0.234113 0.000000
v -0.341303 -0.084319 -0.000000
v -0.366600 -0.070382 -0.000000
v -0.429346 -0.211853 -0.000000
v -0.459442 -0.201986 -0.000000
v -0.451933 -0.354981 -0.000000
v -0.482492 -0.363073 -0.000000
v -0.426677 -0.403587 -0.000000
v -0.451930 -0.434239 -0.000000
v -0.183464 -0.142723 -0.000000
v -0.209430 -0.113115 -0.000000
v -0.325077 -0.425461 -0.000000
v -0.346576 -0.399671 -0.000000
v -0.267500 -0.257478 -0.000000
v -0.236277 -0.269891 -0.000000
v -0.368625 -0.439543 -0.000000
v -0.372494 -0.425272 -0.000000
v 0.416911 0.225574 0.000000
v 0.423370 0.192064 0.000000
v 0.301492 0.180111 0.000000
v 0.281497 0.209236 0.000000
v 0.362385 0.397902 0.000000
v 0.372539 0.367265 0.000000
v 0.554869 0.404044 0.000000
v 0.546919 0.372470 0.000000
v 0.501718 0.392090 0.000000
v 0.499432 0.424871 0.000000
v 0.536524 0.272299 0.000000
v 0.558742 0.247525 0.000000
v 0.645047 0.425195 0.000000
v 0.618689 0.401941 0.000000
v 0.667508 0.376107 0.000000
v 0.630810 0.376787 0.000000
v 0.590597 0.327647 0.000000
v 0.565725 0.344744 0.000000
v -0.424554 -0.421796 -0.000000
v -0.432407 -0.433070 -0.000000
vt 0.027836 0.846443
vt 0.027826 0.846443
vt 0.027826 0.846444
vt 0.027821 0.846431
vt 0.027807 0.846432
vt 0.027815 0.846432
vt 0.027828 0.846431
vt 0.027818 0.846430
vt 0.027852 0.846432
vt 0.027835 0.846431
vt 0.027848 0.846433
vt 0.027862 0.846432
vt 0.027859 0.846433
vt 0.027862 0.846433
vt 0.027826 0.846434
vt 0.027818 0.846434
vt 0.027818 0.846434
vt 0.027815 0.846433
vt 0.027948 0.846438
vt 0.027940 0.846438
vt 0.027948 0.846438
vt 0.027910 0.846441
vt 0.027861 0.846442
vt 0.027912 0.846442
vt 0.027831 0.846442
vt 0.027861 0.846441
vt 0.027827 0.846443
vt 0.027840 0.846443
vt 0.027826 0.846443
vt 0.027837 0.846443
vt 0.027836 0.846443
vt 0.027836 0.846443
vt 0.027826 0.846444
vt 0.027826 0.846444
vt 0.027836 0.846443
vt 0.027942 0.846439
vt 0.027938 0.846439
vt 0.027937 0.846439
vt 0.027945 0.846439
vt 0.027940 0.846438
vt 0.027948 0.846438
vt 0.027940 0.846438
vt 0.027948 0.846438
vt 0.027940 0.846438
vt 0.027948 0.846438
vt 0.027940 0.846438
vt 0.027940 0.846438
vt 0.027948 0.846438
vt 0.027948 0.846438
vt 0.027948 0.846438
vt 0.027940 0.846438
vt 0.027940 0.846438
vt 0.027940 0.846438
vt 0.027948 0.846438
vt 0.027940 0.846438
vt 0.027948 0.846438
vt 0.027940 0.846438
vt 0.027940 0.846438
vt 0.027948 0.846438
vt 0.027948 0.846438
vt 0.027948 0.846438
vt 0.027948 0.846438
vt 0.027940 0.846438
vt 0.027948 0.846438
vt 0.027942 0.846438
vt 0.027946 0.846438
vt 0.027940 0.846438
vt 0.027823 0.846433
vt 0.027827 0.846435
vt 0.027818 0.846434
vt 0.027818 0.846434
vt 0.027826 0.846444
vt 0.027836 0.846443
vt 0.027826 0.846444
vt 0.027826 0.846444
vt 0.027836 0.846443
vt 0.027836 0.846443
vt 0.027827 0.846435
vt 0.027826 0.846444
vt 0.027836 0.846443
vt 0.027827 0.846435
vt 0.027818 0.846434
vt 0.027818 0.846434
vt 0.027827 0.846435
vt 0.027818 0.846434
vt 0.027943 0.846438
vt 0.027838 0.846430
vt 0.027836 0.846443
vt 0.027826 0.846443
vt 0.027836 0.846443
vt 0.027807 0.846432
vt 0.027821 0.846431
vt 0.027815 0.846432
vt 0.027828 0.846431
vt 0.027818 0.846430
vt 0.027828 0.846430
vt 0.027852 0.846432
vt 0.027835 0.846431
vt 0.027838 0.846430
vt 0.027859 0.846433
vt 0.027862 0.846432
vt 0.027862 0.846433
vt 0.027826 0.846434
vt 0.027818 0.846434
vt 0.027826 0.846434
vt 0.027815 0.846433
vt 0.027940 0.846438
vt 0.027948 0.846438
vt 0.027948 0.846438
vt 0.027910 0.846441
vt 0.027861 0.846442
vt 0.027861 0.846441
vt 0.027831 0.846442
vt 0.027840 0.846443
vt 0.027827 0.846443
vt 0.027837 0.846443
vt 0.027826 0.846443
vt 0.027836 0.846443
vt 0.027836 0.846443
vt 0.027826 0.846444
vt 0.027836 0.846443
vt 0.027826 0.846444
vt 0.027942 0.846439
vt 0.027912 0.846442
vt 0.027938 0.846439
vt 0.027945 0.846439
vt 0.027940 0.846438
vt 0.027948 0.846438
vt 0.027948 0.846438
vt 0.027940 0.846438
vt 0.027948 0.846438
vt 0.027940 0.846438
vt 0.027940 0.846438
vt 0.027948 0.846438
vt 0.027940 0.846438
vt 0.027948 0.846438
vt 0.027940 0.846438
vt 0.027940 0.846438
vt 0.027940 0.846438
vt 0.027940 0.846438
vt 0.027948 0.846438
vt 0.027948 0.846438
vt 0.027940 0.846438
vt 0.027948 0.846438
vt 0.027940 0.846438
vt 0.027948 0.846438
vt 0.027940 0.846438
vt 0.027940 0.846438
vt 0.027948 0.846438
vt 0.027948 0.846438
vt 0.027942 0.846438
vt 0.027946 0.846438
vt 0.027940 0.846438
vt 0.027848 0.846433
vt 0.027858 0.846433
vt 0.027823 0.846433
vt 0.027827 0.846435
vt 0.027818 0.846434
vt 0.027827 0.846435
vt 0.027818 0.846434
vt 0.027826 0.846444
vt 0.027826 0.846444
vt 0.027836 0.846443
vt 0.027826 0.846444
vt 0.027836 0.846443
vt 0.027818 0.846434
vt 0.027827 0.846435
vt 0.027818 0.846434
vt 0.027826 0.846444
vt 0.027836 0.846443
vt 0.027827 0.846435
vt 0.027818 0.846434
vt 0.027818 0.846434
vt 0.027948 0.846438
vt 0.027943 0.846438
vt 0.027946 0.846438
vt 0.027828 0.846430
vt 0.027858 0.846433
vt 0.027836 0.846443
vt 0.027937 0.846439
vt 0.027948 0.846438
vt 0.027940 0.846438
vt 0.027826 0.846434
vt 0.027827 0.846435
vt 0.027836 0.846443
vt 0.027826 0.846444
vt 0.027827 0.846435
vt 0.027946 0.846438
vn -0.0000 -0.0000 1.0000
vn 0.0000 0.0000 -1.0000
vn 0.0953 0.9954 0.0000
vn -0.1218 -0.9926 0.0000
vn -0.9998 0.0205 0.0000
vn 0.9983 -0.0586 0.0000
vn 0.5792 -0.8152 0.0000
vn -0.5814 0.8136 0.0000
vn -0.7392 -0.6735 0.0000
vn -0.8157 -0.5785 -0.0000
vn 0.8304 0.5572 0.0000
vn 0.7500 0.6615 0.0000
vn -0.0195 -0.9998 0.0000
vn -0.0422 -0.9991 0.0000
vn 0.0034 1.0000 -0.0000
vn 0.0442 0.9990 0.0000
vn -0.9999 0.0159 0.0000
vn -0.9862 0.1656 -0.0000
vn -0.9862 0.1657 -0.0000
vn 0.9872 -0.1592 0.0000
vn 0.9994 -0.0342 0.0000
vn 0.7961 0.6051 0.0000
vn 0.7725 0.6350 -0.0000
vn -0.8013 -0.5983 0.0000
vn -0.7744 -0.6327 0.0000
vn -0.4170 0.9089 0.0000
vn 0.4540 -0.8910 0.0000
vn 0.5641 -0.8257 -0.0000
vn -0.5851 0.8110 0.0000
vn 0.9769 -0.2138 0.0000
vn -0.9821 0.1882 0.0000
vn 0.8950 0.4460 0.0000
vn 0.7489 0.6627 0.0000
vn -0.7264 -0.6873 0.0000
vn 0.9768 0.2140 0.0000
vn -0.9872 -0.1593 0.0000
vn 0.8638 -0.5039 0.0000
vn -0.8538 0.5205 0.0000
vn 0.9120 0.4102 0.0000
vn 0.9730 0.2306 0.0000
vn -0.9216 -0.3882 -0.0000
vn -0.9610 -0.2765 0.0000
vn -0.9215 -0.3883 -0.0000
vn 0.8735 0.4869 0.0000
vn -0.8888 -0.4582 0.0000
vn 0.0564 0.9984 0.0000
vn -0.0352 -0.9994 -0.0000
vn 0.7226 0.6912 0.0000
vn 0.8627 0.5057 0.0000
vn -0.8548 -0.5189 0.0000
vn -0.7266 -0.6871 0.0000
vn 0.5576 0.8301 0.0000
vn -0.5441 -0.8390 0.0000
vn 0.7867 0.6173 0.0000
vn 0.8336 0.5524 0.0000
vn 0.8336 0.5523 0.0000
vn -0.8649 -0.5019 0.0000
vn -0.8248 -0.5654 0.0000
vn 0.9146 0.4044 0.0000
vn -0.8998 -0.4364 0.0000
vn 0.9361 0.3516 0.0000
vn 0.8333 0.5528 0.0000
vn -0.7845 -0.6201 -0.0000
vn -0.9381 -0.3464 -0.0000
vn -0.9381 -0.3463 0.0000
vn 0.9897 0.1431 0.0000
vn -0.9902 -0.1395 -0.0000
vn -0.9902 -0.1394 -0.0000
vn 0.9877 0.1566 -0.0000
vn -0.9893 -0.1456 -0.0000
vn -0.9893 -0.1457 -0.0000
vn 0.9589 0.2838 0.0000
vn -0.9753 -0.2207 0.0000
vn 0.7787 -0.6275 -0.0000
vn 0.6907 -0.7232 -0.0000
vn 0.7788 -0.6273 -0.0000
vn -0.7734 0.6340 0.0000
vn -0.6749 0.7379 0.0000
vn 0.9259 -0.3778 -0.0000
vn -0.9299 0.3678 -0.0000
vn -0.9899 0.1416 0.0000
vn 0.9878 -0.1559 0.0000
vn 0.8874 0.4611 0.0000
vn 0.9255 0.3787 0.0000
vn 0.9258 0.3780 0.0000
vn -0.9189 -0.3946 0.0000
vn -0.0337 0.9994 0.0000
vn -0.0634 -0.9980 0.0000
vn 0.8942 -0.4477 -0.0000
vn 0.8685 -0.4957 0.0000
vn -0.8472 0.5312 -0.0000
vn -0.9021 0.4316 0.0000
vn 0.3077 -0.9515 0.0000
vn -0.7027 0.7115 0.0000
vn -0.8474 0.5309 -0.0000
vn -0.9652 -0.2617 0.0000
vn 0.9235 -0.3835 0.0000
vn -0.9278 0.3732 0.0000
vn 0.8968 0.4424 0.0000
vn -0.8945 -0.4471 0.0000
vn 0.7336 0.6796 0.0000
vn -0.7339 -0.6793 0.0000
vn -0.1198 0.9928 0.0000
vn -0.2401 0.9707 0.0000
vn 0.2538 -0.9673 0.0000
vn 0.0976 -0.9952 0.0000
vn 0.9150 -0.4035 0.0000
vn 0.9873 -0.1591 0.0000
vn -0.9202 0.3914 0.0000
vn 0.3015 -0.9535 0.0000
vn 0.4060 -0.9139 0.0000
vn -0.4879 0.8729 0.0000
vn -0.3267 0.9451 0.0000
vn -0.3269 0.9450 -0.0000
vn 0.3517 0.9361 0.0000
vn -0.3982 -0.9173 0.0000
vn 0.1887 -0.9820 0.0000
vn -0.1931 0.9812 0.0000
vn 0.3791 -0.9254 0.0000
vn -0.3639 0.9315 0.0000
vn -0.2284 0.9736 0.0000
vn 0.3799 -0.9250 0.0000
vn 0.9093 0.4161 0.0000
vn -0.9009 -0.4341 0.0000
vn 0.5331 -0.8461 0.0000
vn -0.4417 0.8972 0.0000
vn 0.9292 -0.3695 0.0000
vn -0.9275 0.3739 0.0000
vn 0.0598 -0.9982 0.0000
vn 0.8205 -0.5716 0.0000
vn 0.9933 0.1158 0.0000
vn -0.2525 -0.9676 0.0000
vn 0.2600 0.9656 0.0000
usemtl Default_OBJ.018
s 1
f 1/1/1 3/2/1 4/3/1
f 6/4/1 8/5/1 5/6/1
f 9/7/1 7/8/1 6/4/1
f 11/9/1 13/10/1 14/11/1
f 16/12/1 18/13/1 15/14/1
f 19/15/1 21/16/1 22/17/1
f 23/18/1 5/6/1 8/5/1
f 26/19/1 28/20/1 25/21/1
f 29/22/1 31/23/1 32/24/1
f 33/25/1 31/23/1 30/26/1
f 35/27/1 34/28/1 33/25/1
f 37/29/1 36/30/1 35/27/1
f 3/2/1 38/31/1 37/29/1
f 39/32/1 41/33/1 42/34/1
f 40/35/1 4/3/1 41/33/1
f 43/36/1 29/22/1 32/24/1
f 43/36/1 46/37/1 44/38/1
f 45/39/1 48/40/1 46/37/1
f 49/41/1 28/20/1 50/42/1
f 47/43/1 50/42/1 48/40/1
f 52/44/1 54/45/1 51/46/1
f 55/47/1 53/48/1 52/44/1
f 55/47/1 58/49/1 56/50/1
f 27/51/1 58/49/1 57/52/1
f 59/53/1 54/45/1 60/54/1
f 61/55/1 60/54/1 62/56/1
f 62/56/1 64/57/1 61/55/1
f 65/58/1 63/59/1 66/60/1
f 18/13/1 68/61/1 15/14/1
f 70/62/1 72/63/1 69/64/1
f 69/64/1 74/65/1 73/66/1
f 68/61/1 71/67/1 70/62/1
f 14/11/1 16/12/1 11/9/1
f 21/16/1 24/68/1 23/18/1
f 75/69/1 77/70/1 78/71/1
f 77/70/1 19/15/1 22/17/1
f 79/72/1 39/32/1 42/34/1
f 81/73/1 83/74/1 84/75/1
f 79/72/1 82/76/1 80/77/1
f 78/71/1 86/78/1 75/69/1
f 81/73/1 88/79/1 87/80/1
f 87/80/1 90/81/1 89/82/1
f 91/83/1 90/81/1 92/84/1
f 91/83/1 86/78/1 85/85/1
f 66/60/1 94/86/1 65/58/1
f 12/87/1 9/7/1 13/10/1
f 95/88/2 97/89/2 98/90/2
f 100/91/2 102/92/2 99/93/2
f 103/94/2 101/95/2 104/96/2
f 105/97/2 107/98/2 108/99/2
f 110/100/2 112/101/2 109/102/2
f 113/103/2 115/104/2 116/105/2
f 99/93/2 118/106/2 100/91/2
f 120/107/2 122/108/2 119/109/2
f 123/110/2 125/111/2 126/112/2
f 125/111/2 128/113/2 126/112/2
f 127/114/2 130/115/2 128/113/2
f 129/116/2 132/117/2 130/115/2
f 131/118/2 97/89/2 132/117/2
f 133/119/2 135/120/2 136/121/2
f 136/121/2 96/122/2 95/88/2
f 123/110/2 138/123/2 124/124/2
f 138/123/2 139/125/2 140/126/2
f 140/126/2 141/127/2 142/128/2
f 143/129/2 120/107/2 119/109/2
f 142/128/2 144/130/2 143/129/2
f 146/131/2 148/132/2 145/133/2
f 147/134/2 150/135/2 148/132/2
f 150/135/2 151/136/2 152/137/2
f 151/136/2 121/138/2 152/137/2
f 153/139/2 146/131/2 145/133/2
f 155/140/2 154/141/2 153/139/2
f 156/142/2 157/143/2 158/144/2
f 159/145/2 158/144/2 157/143/2
f 110/100/2 161/146/2 162/147/2
f 164/148/2 166/149/2 163/150/2
f 168/151/2 163/150/2 167/152/2
f 165/153/2 161/146/2 166/149/2
f 106/154/2 112/101/2 111/155/2
f 117/156/2 115/104/2 118/106/2
f 169/157/2 171/158/2 172/159/2
f 113/103/2 171/158/2 114/160/2
f 133/119/2 174/161/2 134/162/2
f 175/163/2 177/164/2 178/165/2
f 174/161/2 178/165/2 177/164/2
f 170/166/2 179/167/2 180/168/2
f 182/169/2 175/163/2 181/170/2
f 184/171/2 181/170/2 183/172/2
f 185/173/2 184/171/2 183/172/2
f 179/167/2 185/173/2 180/168/2
f 160/174/2 187/175/2 188/176/2
f 108/99/2 103/94/2 104/96/2
f 98/90/3 1/1/3 95/88/3
f 96/122/4 3/2/4 97/89/4
f 102/92/5 5/6/5 99/93/5
f 100/91/6 7/8/6 101/95/6
f 101/95/7 10/177/7 104/96/7
f 103/94/8 6/4/8 102/92/8
f 108/99/9 11/9/10 105/97/10
f 106/154/11 13/10/12 107/98/12
f 112/101/13 15/14/14 109/102/14
f 110/100/15 17/178/16 111/155/16
f 116/105/17 19/15/18 113/103/19
f 114/160/20 21/16/21 115/104/21
f 100/91/22 23/18/23 8/5/22
f 99/93/24 24/68/25 117/156/25
f 122/108/26 25/21/26 119/109/26
f 120/107/27 27/51/27 121/138/27
f 126/112/28 29/22/28 123/110/28
f 124/124/29 31/23/29 125/111/29
f 128/113/30 30/26/30 126/112/30
f 125/111/31 34/28/31 127/114/31
f 130/115/32 33/25/33 128/113/33
f 129/116/34 34/28/34 36/30/34
f 132/117/35 35/27/32 130/115/32
f 129/116/36 38/31/36 131/118/36
f 97/89/37 37/29/37 132/117/37
f 131/118/38 2/179/38 98/90/38
f 136/121/39 39/32/40 133/119/40
f 135/120/41 42/34/42 41/33/43
f 95/88/44 40/35/39 136/121/39
f 135/120/41 4/3/45 96/122/45
f 138/123/46 32/24/46 124/124/46
f 123/110/47 44/38/47 137/180/47
f 140/126/48 43/36/49 138/123/49
f 137/180/50 46/37/34 139/125/51
f 142/128/52 45/39/48 140/126/48
f 141/127/53 46/37/34 48/40/53
f 119/109/54 49/41/55 143/129/56
f 144/130/57 28/20/58 120/107/58
f 143/129/56 47/43/59 142/128/59
f 144/130/57 48/40/60 50/42/57
f 148/132/61 51/46/62 145/133/62
f 146/131/63 53/48/64 147/134/65
f 150/135/66 52/44/61 148/132/61
f 147/134/65 56/50/67 149/181/68
f 152/137/69 55/47/66 150/135/66
f 149/181/68 58/49/70 151/136/71
f 121/138/72 57/52/69 152/137/69
f 122/108/73 58/49/70 26/19/73
f 153/139/74 51/46/75 59/53/76
f 154/141/77 54/45/78 146/131/78
f 153/139/74 61/55/79 155/140/79
f 156/142/80 60/54/77 154/141/77
f 158/144/81 62/56/80 156/142/80
f 155/140/79 64/57/82 157/143/82
f 157/143/83 65/58/84 159/145/85
f 160/174/86 63/59/86 158/144/86
f 162/147/87 18/13/15 110/100/15
f 109/102/14 68/61/88 161/146/88
f 166/149/89 69/64/90 163/150/90
f 164/148/91 71/67/92 165/153/92
f 167/152/93 69/64/93 73/66/93
f 168/151/94 72/63/95 164/148/91
f 168/151/96 73/66/96 74/65/96
f 161/146/97 70/62/89 166/149/89
f 165/153/92 67/182/98 162/147/98
f 111/155/99 14/11/11 106/154/11
f 105/97/10 16/12/100 112/101/100
f 115/104/101 23/18/23 118/106/23
f 116/105/102 24/68/25 20/183/102
f 172/159/103 75/69/104 169/157/104
f 170/166/105 77/70/106 171/158/106
f 171/158/107 22/17/108 114/160/20
f 113/103/19 76/184/109 172/159/109
f 174/161/110 42/34/111 134/162/111
f 133/119/112 80/77/113 173/185/114
f 178/165/115 81/73/115 175/163/115
f 176/186/116 83/74/116 177/164/116
f 177/164/117 79/72/110 174/161/110
f 178/165/118 80/77/113 82/76/118
f 180/168/119 78/71/105 170/166/105
f 169/157/104 86/78/120 179/167/120
f 175/163/121 87/80/121 181/170/121
f 182/169/122 84/75/122 176/186/122
f 181/170/123 89/82/123 183/172/123
f 184/171/124 88/79/124 182/169/124
f 185/173/125 89/82/125 91/83/125
f 186/187/126 90/81/126 184/171/126
f 185/173/127 85/85/127 180/168/127
f 186/187/128 86/78/128 92/84/128
f 188/176/129 66/60/129 160/174/129
f 187/175/130 93/188/130 188/176/130
f 159/145/85 94/86/131 187/175/131
f 104/96/132 12/87/132 108/99/132
f 107/98/133 9/7/133 103/94/133
f 1/1/1 2/179/1 3/2/1
f 6/4/1 7/8/1 8/5/1
f 9/7/1 10/177/1 7/8/1
f 11/9/1 12/87/1 13/10/1
f 16/12/1 17/178/1 18/13/1
f 19/15/1 20/183/1 21/16/1
f 23/18/1 24/68/1 5/6/1
f 26/19/1 27/51/1 28/20/1
f 29/22/1 30/26/1 31/23/1
f 33/25/1 34/28/1 31/23/1
f 35/27/1 36/30/1 34/28/1
f 37/29/1 38/31/1 36/30/1
f 3/2/1 2/179/1 38/31/1
f 39/32/1 40/35/1 41/33/1
f 40/35/1 1/1/1 4/3/1
f 43/36/1 44/38/1 29/22/1
f 43/36/1 45/39/1 46/37/1
f 45/39/1 47/43/1 48/40/1
f 49/41/1 25/21/1 28/20/1
f 47/43/1 49/41/1 50/42/1
f 52/44/1 53/48/1 54/45/1
f 55/47/1 56/50/1 53/48/1
f 55/47/1 57/52/1 58/49/1
f 27/51/1 26/19/1 58/49/1
f 59/53/1 51/46/1 54/45/1
f 61/55/1 59/53/1 60/54/1
f 62/56/1 63/59/1 64/57/1
f 65/58/1 64/57/1 63/59/1
f 18/13/1 67/182/1 68/61/1
f 70/62/1 71/67/1 72/63/1
f 69/64/1 72/63/1 74/65/1
f 68/61/1 67/182/1 71/67/1
f 14/11/1 17/178/1 16/12/1
f 21/16/1 20/183/1 24/68/1
f 75/69/1 76/184/1 77/70/1
f 77/70/1 76/184/1 19/15/1
f 79/72/1 80/77/1 39/32/1
f 81/73/1 82/76/1 83/74/1
f 79/72/1 83/74/1 82/76/1
f 78/71/1 85/85/1 86/78/1
f 81/73/1 84/75/1 88/79/1
f 87/80/1 88/79/1 90/81/1
f 91/83/1 89/82/1 90/81/1
f 91/83/1 92/84/1 86/78/1
f 66/60/1 93/188/1 94/86/1
f 12/87/1 10/177/1 9/7/1
f 95/88/2 96/122/2 97/89/2
f 100/91/2 101/95/2 102/92/2
f 103/94/2 102/92/2 101/95/2
f 105/97/2 106/154/2 107/98/2
f 110/100/2 111/155/2 112/101/2
f 113/103/2 114/160/2 115/104/2
f 99/93/2 117/156/2 118/106/2
f 120/107/2 121/138/2 122/108/2
f 123/110/2 124/124/2 125/111/2
f 125/111/2 127/114/2 128/113/2
f 127/114/2 129/116/2 130/115/2
f 129/116/2 131/118/2 132/117/2
f 131/118/2 98/90/2 97/89/2
f 133/119/2 134/162/2 135/120/2
f 136/121/2 135/120/2 96/122/2
f 123/110/2 137/180/2 138/123/2
f 138/123/2 137/180/2 139/125/2
f 140/126/2 139/125/2 141/127/2
f 143/129/2 144/130/2 120/107/2
f 142/128/2 141/127/2 144/130/2
f 146/131/2 147/134/2 148/132/2
f 147/134/2 149/181/2 150/135/2
f 150/135/2 149/181/2 151/136/2
f 151/136/2 122/108/2 121/138/2
f 153/139/2 154/141/2 146/131/2
f 155/140/2 156/142/2 154/141/2
f 156/142/2 155/140/2 157/143/2
f 159/145/2 160/174/2 158/144/2
f 110/100/2 109/102/2 161/146/2
f 164/148/2 165/153/2 166/149/2
f 168/151/2 164/148/2 163/150/2
f 165/153/2 162/147/2 161/146/2
f 106/154/2 105/97/2 112/101/2
f 117/156/2 116/105/2 115/104/2
f 169/157/2 170/166/2 171/158/2
f 113/103/2 172/159/2 171/158/2
f 133/119/2 173/185/2 174/161/2
f 175/163/2 176/186/2 177/164/2
f 174/161/2 173/185/2 178/165/2
f 170/166/2 169/157/2 179/167/2
f 182/169/2 176/186/2 175/163/2
f 184/171/2 182/169/2 181/170/2
f 185/173/2 186/187/2 184/171/2
f 179/167/2 186/187/2 185/173/2
f 160/174/2 159/145/2 187/175/2
f 108/99/2 107/98/2 103/94/2
f 98/90/3 2/179/3 1/1/3
f 96/122/4 4/3/4 3/2/4
f 102/92/5 6/4/5 5/6/5
f 100/91/6 8/5/6 7/8/6
f 101/95/7 7/8/7 10/177/7
f 103/94/8 9/7/8 6/4/8
f 108/99/9 12/87/9 11/9/10
f 106/154/11 14/11/11 13/10/12
f 112/101/13 16/12/13 15/14/14
f 110/100/15 18/13/15 17/178/16
f 116/105/17 20/183/17 19/15/18
f 114/160/20 22/17/108 21/16/21
f 100/91/22 118/106/23 23/18/23
f 99/93/24 5/6/24 24/68/25
f 122/108/26 26/19/26 25/21/26
f 120/107/27 28/20/27 27/51/27
f 126/112/28 30/26/28 29/22/28
f 124/124/29 32/24/29 31/23/29
f 128/113/30 33/25/30 30/26/30
f 125/111/31 31/23/31 34/28/31
f 130/115/32 35/27/32 33/25/33
f 129/116/34 127/114/34 34/28/34
f 132/117/35 37/29/35 35/27/32
f 129/116/36 36/30/36 38/31/36
f 97/89/37 3/2/37 37/29/37
f 131/118/38 38/31/38 2/179/38
f 136/121/39 40/35/39 39/32/40
f 135/120/41 134/162/42 42/34/42
f 95/88/44 1/1/44 40/35/39
f 135/120/41 41/33/43 4/3/45
f 138/123/46 43/36/46 32/24/46
f 123/110/47 29/22/47 44/38/47
f 140/126/48 45/39/48 43/36/49
f 137/180/50 44/38/50 46/37/34
f 142/128/52 47/43/52 45/39/48
f 141/127/53 139/125/51 46/37/34
f 119/109/54 25/21/54 49/41/55
f 144/130/57 50/42/57 28/20/58
f 143/129/56 49/41/55 47/43/59
f 144/130/57 141/127/60 48/40/60
f 148/132/61 52/44/61 51/46/62
f 146/131/63 54/45/63 53/48/64
f 150/135/66 55/47/66 52/44/61
f 147/134/65 53/48/64 56/50/67
f 152/137/69 57/52/69 55/47/66
f 149/181/68 56/50/67 58/49/70
f 121/138/72 27/51/72 57/52/69
f 122/108/73 151/136/71 58/49/70
f 153/139/74 145/133/75 51/46/75
f 154/141/77 60/54/77 54/45/78
f 153/139/74 59/53/76 61/55/79
f 156/142/80 62/56/80 60/54/77
f 158/144/81 63/59/81 62/56/80
f 155/140/79 61/55/79 64/57/82
f 157/143/83 64/57/83 65/58/84
f 160/174/86 66/60/86 63/59/86
f 162/147/87 67/182/87 18/13/15
f 109/102/14 15/14/14 68/61/88
f 166/149/89 70/62/89 69/64/90
f 164/148/91 72/63/95 71/67/92
f 167/152/93 163/150/93 69/64/93
f 168/151/94 74/65/94 72/63/95
f 168/151/96 167/152/96 73/66/96
f 161/146/97 68/61/97 70/62/89
f 165/153/92 71/67/92 67/182/98
f 111/155/99 17/178/99 14/11/11
f 105/97/10 11/9/10 16/12/100
f 115/104/101 21/16/101 23/18/23
f 116/105/102 117/156/25 24/68/25
f 172/159/103 76/184/103 75/69/104
f 170/166/105 78/71/105 77/70/106
f 171/158/107 77/70/107 22/17/108
f 113/103/19 19/15/18 76/184/109
f 174/161/110 79/72/110 42/34/111
f 133/119/112 39/32/112 80/77/113
f 178/165/115 82/76/115 81/73/115
f 176/186/116 84/75/116 83/74/116
f 177/164/117 83/74/117 79/72/110
f 178/165/118 173/185/114 80/77/113
f 180/168/119 85/85/119 78/71/105
f 169/157/104 75/69/104 86/78/120
f 175/163/121 81/73/121 87/80/121
f 182/169/122 88/79/122 84/75/122
f 181/170/123 87/80/123 89/82/123
f 184/171/124 90/81/124 88/79/124
f 185/173/125 183/172/125 89/82/125
f 186/187/126 92/84/126 90/81/126
f 185/173/127 91/83/127 85/85/127
f 186/187/128 179/167/128 86/78/128
f 188/176/129 93/188/129 66/60/129
f 187/175/130 94/86/130 93/188/130
f 159/145/85 65/58/84 94/86/131
f 104/96/132 10/177/132 12/87/132
f 107/98/133 13/10/133 9/7/133
